<?xml version="1.0" standalone="no"?>
<!DOCTYPE svg PUBLIC "-//W3C//DTD SVG 1.1//EN" "http://www.w3.org/Graphics/SVG/1.1/DTD/svg11.dtd" >
<svg>
<metadata>
Created by FontForge 20120731 at Fri Nov 22 14:12:58 2013
 By World Wide Web Server
Copyright (c) 2010 by Jonathan Hill. All rights reserved.
</metadata>
<defs>
<font id="Lintel-LightItalic" horiz-adv-x="514" >
  <font-face 
    font-family="Lintel Light Italic"
    font-weight="300"
    font-style="italic"
    font-stretch="normal"
    units-per-em="1000"
    panose-1="0 0 4 0 0 0 0 0 0 0"
    ascent="750"
    descent="-250"
    x-height="500.979"
    cap-height="700"
    bbox="-47.709 -216.991 1041.28 1023.31"
    underline-thickness="50"
    underline-position="-50"
    stemh="39"
    stemv="42"
    unicode-range="U+0020-FB02"
  />
<missing-glyph horiz-adv-x="500" 
d="M0 0v700h500v-700h-500zM250 395l170 255h-340zM280 350l170 -255v510zM80 50h340l-170 255zM50 605v-510l170 255z" />
    <glyph glyph-name="f_f" unicode="ff" horiz-adv-x="577" 
d="M450.76 501l8.31738 47.3105c21.5195 122.04 105.369 162.1 178.749 162.1c14.8301 0 27.2705 -1.45996 39.9609 -3.74023l-3.46973 -35.1396c-13.3398 2.21973 -27.54 3.48926 -38.2598 2.22949c-57.5801 -1.37012 -120.12 -36.1396 -136.89 -130.68l-7.45996 -42.0898
h141.63l-6.11035 -34.6699h-141.64l-115.14 -653.33h-40.96l115.14 653.33h-239.97l-115.14 -653.33h-40.9697l129.61 735.32c21.5195 122.05 105.369 162.109 178.749 162.109c14.8301 0 27.2705 -1.46973 39.9609 -3.73926l-3.46973 -35.1504
c-9.2998 1.5498 -19 2.58008 -27.6797 2.58008c-3.99023 0 -7.75977 -0.219727 -11.1797 -0.700195c-57.2998 -1.45996 -119.63 -36.1797 -136.34 -130.54l-7.41016 -41.8701h239.97z" />
    <glyph glyph-name="f_f_i" unicode="ffi" horiz-adv-x="765" 
d="M451.26 501l8.3291 47.3115c18.2002 103.25 89.0498 162.55 179.399 162.55c78.7197 0 134.09 -31.0195 139.88 -33.25l-4.23047 -31.0303s-57.0996 28.1699 -130.72 28.1699c-37.0098 0 -123.069 -13.3604 -144.35 -132.261l-7.36035 -41.5h284.37l-88.3398 -501h-40.96
l82.2197 466.33h-243.41l-115.14 -653.33h-40.96l115.14 653.33h-240.47l-115.14 -653.33h-40.9697l129.61 735.32c21.5195 122.05 105.369 162.109 178.749 162.109c14.8301 0 27.2705 -1.46973 39.9609 -3.73926l-3.46973 -35.1504
c-9.45996 1.58008 -19.3096 2.63965 -28.0498 2.63965c-3.75 0 -7.29004 -0.200195 -10.5205 -0.629883c-57.5098 -1.5 -119.979 -36.4199 -136.729 -131.14l-7.30957 -41.4004h240.47z" />
    <glyph glyph-name="f_f_j" unicode="ffj" horiz-adv-x="765" 
d="M451.26 501l8.32129 47.3213c18.21 103.25 89.0596 162.54 179.409 162.54c78.71 0 134.08 -31.0098 139.87 -33.25l-4.23047 -31.0195s-57.0898 28.1699 -130.72 28.1699c-37.3701 0 -123.28 -13.6504 -144.41 -132.61l-7.29004 -41.1504h284.36l-101.21 -574
c-9.86035 -56 -44.6504 -106 -111.091 -126c-12.0303 -3 -23.1699 -4 -34.2998 -5v35c11.2402 2 21.3799 4 28.9902 8c50.7598 16 70.6396 61 76.7793 96l93.7598 531.32h-243.41l-115.14 -653.32h-40.96l115.14 653.32h-240.48l-115.14 -653.32h-40.9697l129.61 735.32
c21.5195 122.04 105.38 162.1 178.75 162.1c14.8301 0 27.2705 -1.45996 39.9707 -3.74023l-3.46973 -35.1396c-9.37988 1.55957 -19.0596 2.55957 -27.6699 2.55957c-3.96973 0 -7.70996 -0.209961 -11.0898 -0.679688
c-57.4404 -1.53027 -119.78 -36.3906 -136.48 -130.761l-7.37012 -41.6602h240.47z" />
    <glyph glyph-name="f_f_l" unicode="ffl" horiz-adv-x="761" 
d="M451.27 501.02l8.33887 47.3193c18.2002 103.25 89.0498 162.54 179.399 162.54c100.11 0 165.9 -42.8604 165.9 -42.8604l-116.66 -668h-40.96l115.42 647.33c-39.9199 18.4297 -81.1602 27.4199 -123.05 27.4199c-33.8896 0 -119.27 -14.4102 -140.13 -132.36
l-7.30957 -41.3896h141.64l-6.12012 -34.6797h-141.63l-115.15 -653.34h-40.96l115.15 653.34h-240.48l-115.14 -653.34h-40.9697l129.61 735.34c21.5195 122.04 105.38 162.1 178.75 162.1c14.8301 0 27.2705 -1.45996 39.9609 -3.74023l-3.46973 -35.1396
c-13.5 2.25 -27.6602 3.41016 -38.3301 2.08008c-57.6699 -1.51953 -120.2 -36.4893 -136.931 -131.039l-7.34961 -41.5801h240.47z" />
    <glyph glyph-name="fi" unicode="fi" horiz-adv-x="484" 
d="M48.5596 -187l129.609 735.319c18.21 103.25 89.0596 162.54 179.409 162.54c78.71 0 134.08 -31.0098 139.87 -33.25l-4.23047 -31.0195s-57.0996 28.1699 -130.72 28.1699c-37.4297 0 -123.31 -13.6904 -144.43 -132.7l-7.28027 -41.0596h284.36l-88.3398 -501h-40.96
l82.2305 466.32h-243.41l-115.14 -653.32h-40.9697z" />
    <glyph glyph-name="fl" unicode="fl" horiz-adv-x="480" 
d="M48.5596 -187l129.612 735.319c18.21 103.25 89.0596 162.55 179.409 162.55c100.1 0 165.899 -42.8701 165.899 -42.8701l-116.66 -668h-40.9697l115.43 647.33c-39.9199 18.4404 -81.1602 27.4307 -123.061 27.4307c-34.1904 0 -119.381 -14.7402 -140.23 -132.88
l-7.20996 -40.8799h141.64l-6.12012 -34.6797h-141.63l-115.14 -653.32h-40.9697z" />
    <glyph glyph-name=".notdef" horiz-adv-x="500" 
d="M0 0v700h500v-700h-500zM250 395l170 255h-340zM280 350l170 -255v510zM80 50h340l-170 255zM50 605v-510l170 255z" />
    <glyph glyph-name="A" unicode="A" horiz-adv-x="594" 
d="M558.28 0h-44.0703l-43.1699 260.78h-255.85l-135.99 -260.78h-43.8398l365.59 700h37.7598zM233.9 299.71h232.181l-56.4004 336.54z" />
    <glyph glyph-name="Aacute" unicode="&#xc1;" horiz-adv-x="594" 
d="M452.18 785.46h-33.1592l70.3398 114.39h51.4297zM558.28 -0h-44.0703l-43.1699 260.78h-255.85l-135.99 -260.78h-43.8398l365.59 700h37.7598zM233.9 299.71h232.181l-56.4004 336.54z" />
    <glyph glyph-name="Abreve" unicode="&#x102;" horiz-adv-x="594" 
d="M550.96 906.33l27.6797 -2.94141c-12.2998 -69.7695 -75.1299 -121.63 -140.39 -121.63c-60.6396 0 -104.37 43.6104 -104.37 102.561c0 7.12988 0.639648 14.4795 1.95996 22.0098l27.4902 -2.92969c-0.740234 -4.7998 -1.11035 -9.62988 -1.11035 -14.4297
c0 -40.0596 25.7402 -77.8496 75.7803 -77.8496c57.8799 0 104.05 50.2998 112.96 95.21zM558.3 -0.000976562h-44.0801l-43.1602 260.78h-255.85l-135.99 -260.78h-43.8496l365.59 700h37.7695zM233.91 299.709h232.181l-56.4004 336.54z" />
    <glyph glyph-name="Acaron" unicode="&#x1cd;" horiz-adv-x="594" 
d="M460.4 773.57h-46.7197l-111.36 134.84h45.04l91.6797 -111.54l128.09 111.54h47.4502zM558.28 0h-44.0801l-43.1602 260.78h-255.85l-135.99 -260.78h-43.8496l365.59 700h37.7695zM233.891 299.71h232.181l-56.4004 336.54z" />
    <glyph glyph-name="Acircumflex" unicode="&#xc2;" horiz-adv-x="594" 
d="M589.45 770.14h-45.4297l-87.75 111.54l-132.03 -111.54h-47.0303l158.91 134.84h46.71zM558.28 -0h-44.0801l-43.1602 260.78h-255.85l-135.99 -260.78h-43.8496l365.59 700h37.7695zM233.891 299.71h232.181l-56.4004 336.54z" />
    <glyph glyph-name="Adieresis" unicode="&#xc4;" horiz-adv-x="594" 
d="M363.24 857.37c12.7695 0 22.0205 -9.66992 22.0205 -22.2998c0 -13.6797 -11.9199 -25.8594 -25.2295 -25.8594c-13.0703 0 -22.5605 9.96973 -22.5605 22.5195c0 14.0195 12.2598 25.6396 25.7695 25.6396zM531.191 857.36c12.7695 0 22.0205 -9.66016 22.0205 -22.29
c0 -13.6797 -11.9199 -25.8594 -25.2295 -25.8594c-13.0703 0 -22.5605 9.96973 -22.5605 22.5195c0 14.0195 12.2598 25.6299 25.7695 25.6299zM558.272 -0.00976562h-44.0703l-43.1699 260.79h-255.85l-135.99 -260.79h-43.8398l365.59 700h37.7598zM233.893 299.71
h232.181l-56.4004 336.53z" />
    <glyph glyph-name="Agrave" unicode="&#xc0;" horiz-adv-x="594" 
d="M468.66 785.32h-31.2109l-48.2695 114.39h49.4805zM558.279 0h-44.0801l-43.1602 260.78h-255.85l-135.99 -260.78h-43.8496l365.59 700h37.7695zM233.89 299.71h232.181l-56.4004 336.54z" />
    <glyph glyph-name="Amacron" unicode="&#x100;" horiz-adv-x="594" 
d="M555.37 815.59h-228.211l5.03027 28.5098h228.2zM558.279 -0h-44.0801l-43.1602 260.78h-255.85l-135.99 -260.78h-43.8496l365.59 700h37.7695zM233.89 299.71h232.181l-56.4004 336.54z" />
    <glyph glyph-name="Aogonek" unicode="&#x104;" horiz-adv-x="648" 
d="M558.41 0l-21.9912 -7c-75.8301 -51 -89.4297 -87 -93.3193 -107c-1.04004 -5.53027 -1.53027 -10.6406 -1.53027 -15.3604c0 -31.9697 22.5996 -45.6396 52.0098 -45.6396c33.6201 0 65.21 16 88.7402 45l21.9697 -15c-29.2803 -36 -73.2002 -55 -114.74 -55
c-41.0801 0 -80.3496 20.79 -80.3496 69.54c0 5.75977 0.549805 11.9102 1.70996 18.46c3.36035 20 16.9004 63 102.341 112.9l-42.2305 259.77h-255.85l-135.97 -260.67h-43.8398l365.57 699.89h37.7598zM233.879 299.61h232.181l-56.4004 336.53z" />
    <glyph glyph-name="Aring" unicode="&#xc5;" horiz-adv-x="594" 
d="M461.82 946.3c56.4805 0 98.21 -43.3408 98.21 -97.9707c0 -67.8496 -66.1504 -130.81 -133.12 -130.81c-56.6504 0 -98.1904 43.7402 -98.1904 98.1201c0 68.4697 66.6201 130.66 133.101 130.66zM461.989 916.469c-54.5098 0 -104.851 -46.9414 -104.851 -102.701
c0 -38.9297 27.9902 -67.2695 69.4502 -67.2695c53.2803 0 104.11 46.8301 104.11 103.23c0 38.54 -27.9297 66.7402 -68.71 66.7402zM558.278 -0.0126953h-44.0801l-43.1602 260.79h-255.85l-135.99 -260.79h-43.8496l365.59 700h37.7695zM233.889 299.707h232.181
l-56.4004 336.53z" />
    <glyph glyph-name="Atilde" unicode="&#xc3;" horiz-adv-x="594" 
d="M296.2 810.12l-14.3818 24.8799c35.6299 31.75 72.7803 51.7803 105.021 51.7803c54.0996 0 89.0898 -42.9102 134.74 -42.9102c24.8301 0 53.2402 14.0303 76.1006 34.6299l13.5 -25.7002c-27.96 -22.3096 -62.04 -38.9297 -90 -38.9297
c-54.0996 0 -89.2393 41.2002 -136.22 41.2002c-28.29 0 -59.3896 -16.6299 -88.7598 -44.9502zM558.278 0h-44.0801l-43.1602 260.78h-255.85l-135.99 -260.78h-43.8496l365.59 700h37.7695zM233.889 299.71h232.181l-56.4004 336.54z" />
    <glyph glyph-name="AE" unicode="&#xc6;" horiz-adv-x="766" 
d="M830.92 661.06l-383.369 0.00976562l-50.4102 -292.09h348.98l-6.86035 -38.9297h-347.41l-50.2402 -291.12h378.57l-6.86035 -38.9297h-417.63l44.6299 260.78h-125.13l-135.99 -260.78h-43.8398l365.59 700h436.84zM233.9 299.72h111.74l54.71 319.37z" />
    <glyph glyph-name="B" unicode="B" horiz-adv-x="611" 
d="M220.63 700.01l251.871 0.000976562c100.27 0 151.18 -62.3604 151.18 -142.74c0 -11.7598 -1.08984 -23.9102 -3.26953 -36.2998c-15.4102 -87.3701 -58.4404 -144.93 -128.101 -170.18c59.6602 -17.9404 90.4102 -68.5801 90.4102 -130.73
c0 -11.6396 -1.08008 -23.6895 -3.25 -36.0098c-21.2002 -120.19 -95.4004 -184.051 -211.03 -184.051h-271.24zM204.541 369.94l202.38 0.000976562c93.4102 0 153.98 52.2598 171.511 151.68c1.75977 9.9502 2.63965 19.6699 2.63965 29.0498
c0 62.7695 -39.3896 110.38 -119.87 110.38h-205.33zM197.471 329.972l-51.3301 -291.119h220.83c93.4102 0 153.98 52.2695 171.511 151.689c1.75977 9.9502 2.63965 19.6699 2.63965 29.0498c0 62.7598 -39.3896 110.38 -119.87 110.38h-223.78z" />
    <glyph glyph-name="C" unicode="C" horiz-adv-x="561" 
d="M117.79 222.18l46.7314 265.031c27.4297 155.55 134.59 230.1 273.35 230.1c94.79 0 155.59 -38.1104 180.95 -99.5508l-34.1504 -15.0195c-22.4502 49.04 -73.2197 75.5801 -145.88 75.5801c-117.25 0 -209.67 -63.4502 -232.7 -194.05l-46.7305 -265.03
c-3.01953 -17.1201 -4.48926 -33.0498 -4.48926 -47.8096c0 -97.6904 64.1201 -143.41 163.561 -143.41c75.5 0 137.8 29.2598 177.319 78.3594l30.1396 -20.3604c-46.7803 -61.4297 -118.92 -97.0195 -210.99 -97.0195c-123.37 0 -202.32 59.0303 -202.32 177.29
c0 17.3496 1.7002 35.9795 5.20996 55.8896z" />
    <glyph glyph-name="Cacute" unicode="&#x106;" horiz-adv-x="561" 
d="M427.77 785.46h-33.1699l70.3398 114.39h51.4404zM117.79 222.18l46.7314 265.03c27.4297 155.55 134.59 230.1 273.35 230.1c94.79 0 155.59 -38.1201 180.95 -99.5498l-34.1504 -15.0303c-22.4502 49.04 -73.2197 75.5898 -145.88 75.5898
c-117.25 0 -209.67 -63.4502 -232.7 -194.05l-46.7305 -265.04c-3.01953 -17.1201 -4.48926 -33.0498 -4.48926 -47.7998c0 -97.7002 64.1201 -143.42 163.561 -143.42c75.5 0 137.8 29.2598 177.319 78.3701l30.1396 -20.3604
c-46.7803 -61.4404 -118.92 -97.0205 -210.99 -97.0205c-123.37 0 -202.32 59.0303 -202.32 177.28c0 17.3604 1.7002 35.9902 5.20996 55.9004z" />
    <glyph glyph-name="Ccaron" unicode="&#x10c;" horiz-adv-x="561" 
d="M442.35 773.57h-46.7197l-111.36 134.84h45.04l91.6797 -111.54l128.08 111.54h47.4502zM117.79 222.181l46.7314 265.031c27.4297 155.55 134.59 230.1 273.35 230.1c94.79 0 155.59 -38.1104 180.95 -99.5508l-34.1504 -15.0195
c-22.4502 49.04 -73.2197 75.5801 -145.88 75.5801c-117.25 0 -209.67 -63.4502 -232.7 -194.05l-46.7305 -265.03c-3.01953 -17.1201 -4.48926 -33.0498 -4.48926 -47.8096c0 -97.6904 64.1201 -143.41 163.561 -143.41c75.5 0 137.8 29.2598 177.319 78.3594
l30.1396 -20.3604c-46.7803 -61.4297 -118.92 -97.0195 -210.99 -97.0195c-123.37 0 -202.32 59.0303 -202.32 177.29c0 17.3496 1.7002 35.9795 5.20996 55.8896z" />
    <glyph glyph-name="Ccedilla" unicode="&#xc7;" horiz-adv-x="561" 
d="M117.79 222.18l46.7197 265.021c27.4297 155.55 134.59 230.1 273.35 230.1c94.79 0 155.59 -38.1104 180.95 -99.5508l-34.1504 -15.0195c-22.4502 49.04 -73.2197 75.5801 -145.88 75.5801c-117.25 0 -209.67 -63.4502 -232.7 -194.05l-46.7305 -265.03
c-3.01953 -17.1201 -4.48926 -33.0498 -4.48926 -47.8096c0 -97.6904 64.1201 -143.41 163.561 -143.41c75.5 0 137.8 29.2598 177.319 78.3594l30.1396 -20.3604c-45.3701 -58.4297 -113.63 -93.0195 -200.43 -96.0195c-14.2998 0 -27.0195 0 -39.1191 1l-42.9404 -44
c16.1201 6 34.6699 9 51.0996 8c40.5703 -0.889648 76.5107 -19.4297 76.5107 -62.7793c0 -5.05957 -0.490234 -10.46 -1.52051 -16.21c-12.4297 -71 -81.9297 -89 -138.87 -89c-36.04 0 -66.5498 10 -95.5303 21l14.75 27c25.1602 -18 57.54 -22 78.3701 -23
c49.1504 0 101.32 21 109.721 68c0.589844 3.41016 0.870117 6.66992 0.870117 9.75977c0 26.7695 -21.4102 41.2393 -52.3604 41.2393c-19.1104 0 -45.2002 -5 -85.6299 -23l-9.2002 13l68.21 73c-90.8896 14.96 -147.22 72.5195 -147.22 172.39
c0 17.3203 1.7002 35.9199 5.2002 55.79z" />
    <glyph glyph-name="Cdotaccent" unicode="&#x10a;" horiz-adv-x="561" 
d="M453.88 857.29c12.7695 0 22.0303 -9.66895 22.0303 -22.2988c0 -13.6699 -11.9297 -25.8604 -25.2393 -25.8604c-13.0703 0 -22.5703 9.96973 -22.5703 22.5195c0 14.0195 12.2695 25.6396 25.7793 25.6396zM117.801 222.181l46.7305 265.031
c27.4297 155.55 134.59 230.1 273.35 230.1c94.79 0 155.58 -38.1104 180.94 -99.5508l-34.1396 -15.0195c-22.46 49.04 -73.2197 75.5801 -145.88 75.5801c-117.26 0 -209.67 -63.4502 -232.7 -194.05l-46.7402 -265.03
c-3.01953 -17.1201 -4.47949 -33.0498 -4.47949 -47.8096c0 -97.6904 64.1201 -143.41 163.55 -143.41c75.5 0 137.81 29.2598 177.319 78.3594l30.1396 -20.3604c-46.7695 -61.4297 -118.909 -97.0195 -210.989 -97.0195c-123.36 0 -202.311 59.0303 -202.311 177.29
c0 17.3496 1.7002 35.9795 5.20996 55.8896z" />
    <glyph glyph-name="D" unicode="D" horiz-adv-x="642" 
d="M220.62 700l228.153 -0.0107422c136.68 0 202.199 -74.3896 202.199 -180.43c0 -16.5 -1.58008 -33.7598 -4.73047 -51.6299l-46.7305 -265.01c-27.8604 -157.97 -136.091 -202.92 -252.041 -202.92h-250.28zM255.844 661.06l-109.689 -622.14h205.47
c97.7197 0 183.66 38.4102 206.32 166.93l46.7305 265.01c2.80957 15.9404 4.22949 31.1807 4.22949 45.5908c0 87.5195 -52.4199 144.609 -164.28 144.609h-188.78z" />
    <glyph glyph-name="Eth" unicode="&#xd0;" horiz-adv-x="652" 
d="M230.18 700l228.14 -0.0107422c136.69 0 202.2 -74.3896 202.2 -180.43c0 -16.5 -1.58008 -33.7598 -4.73047 -51.6299l-46.7305 -265.01c-27.8496 -157.97 -136.08 -202.92 -252.04 -202.92h-250.27l58.1904 330.03h-96.75l6.87012 38.9297h96.75zM265.399 661.06
l-51.501 -292.101h183.46l-6.87012 -38.9297h-183.46l-51.3301 -291.1h205.48c97.7197 0 183.66 38.4102 206.32 166.92l46.7305 265.01c2.80957 15.9404 4.22949 31.1807 4.22949 45.5908c0 87.5195 -52.4199 144.609 -164.29 144.609h-188.77z" />
    <glyph glyph-name="Dcaron" unicode="&#x10e;" horiz-adv-x="642" 
d="M483.88 773.57h-46.7305l-111.36 134.84h45.04l91.6904 -111.54l128.08 111.54h47.4502zM220.619 700l228.141 -0.0107422c136.69 0 202.21 -74.3896 202.21 -180.43c0 -16.5 -1.58984 -33.7598 -4.74023 -51.6299l-46.7305 -265.01
c-27.8496 -157.97 -136.08 -202.92 -252.04 -202.92h-250.27zM255.84 661.06l-109.701 -622.14h205.48c97.7197 0 183.66 38.4102 206.32 166.93l46.7305 265.01c2.80957 15.9404 4.22949 31.1807 4.22949 45.5908c0 87.5195 -52.4199 144.609 -164.29 144.609h-188.77z" />
    <glyph glyph-name="Dcroat" unicode="&#x110;" horiz-adv-x="647" 
d="M229.5 700l228.163 -0.0107422c136.68 0 202.199 -74.3896 202.199 -180.43c0 -16.5 -1.58008 -33.7598 -4.73047 -51.6299l-46.7305 -265.01c-27.8604 -157.97 -136.091 -202.92 -252.051 -202.92h-250.27l59.1201 335.32h-95.3604l5.01953 28.5h95.3701z
M264.733 661.06l-52.4092 -297.24h184.88l-5.03027 -28.5098h-184.87l-52.2598 -296.38h205.47c97.7197 0 183.66 38.4102 206.32 166.92l46.7305 265.01c2.80957 15.9404 4.22949 31.1807 4.22949 45.5908c0 87.5195 -52.4199 144.609 -164.28 144.609h-188.78z" />
    <glyph glyph-name="E" unicode="E" horiz-adv-x="576" 
d="M635.6 661.06l-379.749 0.00976562l-51.5098 -292.09h351.6l-6.86035 -38.9297h-351.6l-51.3301 -291.12h385.57l-6.86035 -38.9297h-427.66l123.43 700h421.83z" />
    <glyph glyph-name="Eacute" unicode="&#xc9;" horiz-adv-x="576" 
d="M458.4 785.46h-33.1699l70.3398 114.39h51.4404zM635.591 661.06l-379.749 0.00976562l-51.5 -292.09h351.6l-6.87012 -38.9297h-351.6l-51.3301 -291.12h385.58l-6.87012 -38.9297h-427.66l123.43 700h421.84z" />
    <glyph glyph-name="Ecaron" unicode="&#x11a;" horiz-adv-x="576" 
d="M447.63 773.57h-46.7197l-111.36 134.84h45.04l91.6797 -111.54l128.09 111.54h47.4502zM635.59 661.061l-379.749 0.00976562l-51.5 -292.09h351.6l-6.87012 -38.9297h-351.6l-51.3301 -291.12h385.58l-6.87012 -38.9297h-427.66l123.43 700h421.84z" />
    <glyph glyph-name="Ecircumflex" unicode="&#xca;" horiz-adv-x="576" 
d="M576.68 770.14h-45.4297l-87.75 111.54l-132.03 -111.54h-47.0303l158.91 134.84h46.71zM635.59 661.069l-379.749 0.000976562l-51.5 -292.08h351.6l-6.87012 -38.9404h-351.6l-51.3301 -291.11h385.58l-6.87012 -38.9404h-427.66l123.43 700h421.84z" />
    <glyph glyph-name="Edieresis" unicode="&#xcb;" horiz-adv-x="576" 
d="M350.47 857.37c12.7695 0 22.0303 -9.66895 22.0303 -22.2891c0 -13.6797 -11.9199 -25.8701 -25.2295 -25.8701c-13.0801 0 -22.5703 9.96973 -22.5703 22.5195c0 14.0195 12.2598 25.6396 25.7695 25.6396zM518.431 857.371
c12.7695 0 22.0205 -9.66992 22.0205 -22.2998c0 -13.6797 -11.9199 -25.8594 -25.2295 -25.8594c-13.0703 0 -22.5605 9.96973 -22.5605 22.5195c0 14.0195 12.2598 25.6396 25.7695 25.6396zM635.602 661.062l-379.749 0.00976562l-51.5098 -292.09h351.6
l-6.86035 -38.9297h-351.6l-51.3301 -291.12h385.57l-6.86035 -38.9297h-427.66l123.43 700h421.83z" />
    <glyph glyph-name="Edotaccent" unicode="&#x116;" horiz-adv-x="576" 
d="M445.28 857.03c12.7695 0 22.0205 -9.66992 22.0205 -22.29c0 -13.6797 -11.9297 -25.8701 -25.2295 -25.8701c-13.0801 0 -22.5703 9.98047 -22.5703 22.5303c0 14.0195 12.2695 25.6299 25.7793 25.6299zM635.592 661.061l-379.749 0.00976562l-51.5098 -292.09h351.6
l-6.86035 -38.9297h-351.6l-51.3301 -291.12h385.57l-6.86035 -38.9297h-427.66l123.43 700h421.83z" />
    <glyph glyph-name="Egrave" unicode="&#xc8;" horiz-adv-x="576" 
d="M477.54 785.32h-31.2109l-48.2695 114.39h49.4805zM635.589 661.061l-379.749 0.00976562l-51.5 -292.09h351.6l-6.87012 -38.9297h-351.6l-51.3301 -291.12h385.58l-6.87012 -38.9297h-427.66l123.43 700h421.84z" />
    <glyph glyph-name="Emacron" unicode="&#x112;" horiz-adv-x="576" 
d="M568.68 815.59h-228.199l5.01953 28.5098h228.21zM635.341 661.06l-379.749 0.00976562l-51.5098 -292.09h351.6l-6.86035 -38.9297h-351.6l-51.3301 -291.12h385.57l-6.86035 -38.9297h-427.66l123.43 700h421.83z" />
    <glyph glyph-name="Eogonek" unicode="&#x118;" horiz-adv-x="613" 
d="M635.4 660.98l-379.298 -0.000976562l-51.4404 -291.71h351.17l-6.86035 -38.9102h-351.17l-51.2598 -290.74h385.1l-6.86035 -39.6201h-90.71c-6.20996 -5 -97.2998 -59 -107.89 -117c-1 -5.46973 -1.48047 -10.5293 -1.48047 -15.1992
c0 -32.0898 22.5098 -45.7998 51.8994 -45.7998c33.5498 0 65.1494 16 88.6396 45l21.9404 -14c-29.3701 -37 -73.2402 -56 -114.601 -56c-41.0303 0 -80.2705 20.79 -80.2705 69.5303c0 5.75977 0.549805 11.9102 1.70996 18.4697c9.90039 57 92.0605 110 100.811 115.9
h-297.21l123.28 699.19h421.36z" />
    <glyph glyph-name="F" unicode="F" horiz-adv-x="563" 
d="M628.92 661.06l-373.069 0.00976562l-51.5098 -292.09h339.1l-6.86035 -38.9297h-339.1l-58.2002 -330.05h-42.0801l123.43 700h415.16z" />
    <glyph glyph-name="G" unicode="G" horiz-adv-x="638" 
d="M115.57 209.59l48.96 277.621c27.4297 155.55 134.12 230.1 273.92 230.1c95.6104 0 156.46 -38.04 181.85 -99.3799l-35.8203 -15.2998c-23.3701 49.4697 -71.54 75.7197 -146.8 75.7197c-118.89 0 -208.319 -62.1299 -231.589 -194.08l-48.9502 -277.63
c-2.59961 -14.71 -3.81934 -28.3398 -3.81934 -40.9502c0 -103.12 81.7998 -137.601 162.63 -137.601c94.3203 0 201.08 46.29 224.92 181.49l20.8701 118.36h-139.22l6.63965 37.6602h181.31l-64.4697 -365.61h-34.79l16.4805 94.7002
c-51.4902 -77.5898 -139.641 -105.7 -216.32 -105.7c-98.9404 0 -200.25 47.0498 -200.25 172.56c0 14.8896 1.42969 30.8896 4.44922 48.04z" />
    <glyph glyph-name="Gbreve" unicode="&#x11e;" horiz-adv-x="638" 
d="M572.86 906.33l27.6797 -2.94141c-12.2998 -69.7695 -75.1299 -121.63 -140.39 -121.63c-60.6396 0 -104.37 43.6104 -104.37 102.561c0 7.12988 0.639648 14.4795 1.96973 22.0098l27.4805 -2.92969c-0.740234 -4.7998 -1.11035 -9.62988 -1.11035 -14.4297
c0 -40.0596 25.7402 -77.8496 75.7803 -77.8496c57.8896 0 104.05 50.2998 112.96 95.21zM115.58 209.589l48.96 277.621c27.4297 155.55 134.12 230.1 273.92 230.1c95.6104 0 156.46 -38.04 181.85 -99.3799l-35.8203 -15.2998
c-23.3701 49.4697 -71.54 75.7197 -146.8 75.7197c-118.89 0 -208.319 -62.1299 -231.589 -194.08l-48.9502 -277.63c-2.59961 -14.71 -3.81934 -28.3398 -3.81934 -40.9502c0 -103.12 81.7998 -137.601 162.63 -137.601c94.3203 0 201.08 46.29 224.92 181.49
l20.8701 118.36h-139.22l6.63965 37.6602h181.31l-64.4697 -365.61h-34.79l16.4805 94.7002c-51.4902 -77.5898 -139.641 -105.7 -216.32 -105.7c-98.9404 0 -200.25 47.0498 -200.25 172.56c0 14.8896 1.42969 30.8896 4.44922 48.04z" />
    <glyph glyph-name="Gcommaaccent" unicode="&#x122;" horiz-adv-x="638" 
d="M115.57 209.59l48.96 277.621c27.4297 155.55 134.12 230.1 273.92 230.1c95.6104 0 156.46 -38.04 181.85 -99.3799l-35.8203 -15.2998c-23.3701 49.4697 -71.54 75.7197 -146.8 75.7197c-118.89 0 -208.319 -62.1299 -231.589 -194.08l-48.9502 -277.63
c-2.59961 -14.71 -3.81934 -28.3398 -3.81934 -40.9502c0 -103.12 81.7998 -137.601 162.63 -137.601c94.3203 0 201.08 46.29 224.92 181.49l20.8701 118.36h-139.22l6.63965 37.6602h181.31l-64.4697 -365.61h-34.79l16.4805 94.7002
c-51.4902 -77.5898 -139.641 -105.7 -216.32 -105.7c-98.9404 0 -200.25 47.0498 -200.25 172.56c0 14.8896 1.42969 30.8896 4.44922 48.04zM249.98 -188.999l23.6992 41c-5.49023 4 -9.69043 12 -8.09082 20c1.75 11 11.6602 19 21.75 19c12.7998 0 21.96 -12 19.6904 -24
c-0.299805 -2 -1.22949 -5 -2.74902 -8l-32.2197 -48h-22.0801z" />
    <glyph glyph-name="Gdotaccent" unicode="&#x120;" horiz-adv-x="638" 
d="M456.35 858.13c12.7695 0 22.0303 -9.66016 22.0303 -22.29c0 -13.6797 -11.9199 -25.8594 -25.2295 -25.8594c-13.0801 0 -22.5703 9.96973 -22.5703 22.5195c0 14.0195 12.2598 25.6299 25.7695 25.6299zM115.58 209.6l48.959 277.621
c27.4297 155.55 134.12 230.1 273.92 230.1c95.6104 0 156.45 -38.04 181.851 -99.3799l-35.8301 -15.2998c-23.3701 49.4697 -71.5303 75.7197 -146.8 75.7197c-118.88 0 -208.32 -62.1299 -231.58 -194.08l-48.96 -277.63
c-2.58984 -14.71 -3.80957 -28.3398 -3.80957 -40.9502c0 -103.12 81.7998 -137.601 162.62 -137.601c94.3203 0 201.09 46.29 224.93 181.49l20.8701 118.36h-139.23l6.63965 37.6602h181.31l-64.46 -365.61h-34.7998l16.4805 94.7002
c-51.4902 -77.5898 -139.63 -105.7 -216.31 -105.7c-98.9502 0 -200.25 47.0498 -200.25 172.56c0 14.8896 1.41992 30.8896 4.4502 48.04z" />
    <glyph glyph-name="H" unicode="H" horiz-adv-x="663" 
d="M565.43 0h-42.0811l58.1904 330.05h-384.06l-58.2002 -330.05h-42.0801l123.43 700h42.0801l-58.3701 -331.02h384.07l58.3701 331.02h42.0801z" />
    <glyph glyph-name="Hbar" unicode="&#x126;" horiz-adv-x="674" 
d="M665.14 532.95h54.7695l-5.08984 -28.8496h-54.7695l-88.8799 -504.1h-42.0898l58.2002 330.05h-384.07l-58.1904 -330.05h-42.0898l88.8896 504.1h-54.8301l5.08984 28.8496h54.8301l29.4502 167.05h42.0898l-29.46 -167.05h384.07l29.4502 167.05h42.0898z
M233.909 504.101l-23.8311 -135.12h384.07l23.8203 135.12h-384.06z" />
    <glyph glyph-name="I" unicode="I" horiz-adv-x="236" 
d="M139.28 0h-42.0801l123.43 700h42.0801z" />
    <glyph glyph-name="IJ" unicode="&#x132;" horiz-adv-x="560" 
d="M139.28 0h-42.0801l123.43 700h42.0801zM633.54 699.84l-88 -499.019c-25.9004 -146.92 -129.75 -215.82 -265.12 -209.82l4.07031 38.0498c110.42 -3.19043 197.95 52.5791 219.49 174.709l87.4697 496.08h42.0898z" />
    <glyph glyph-name="Iacute" unicode="&#xcd;" horiz-adv-x="236" 
d="M247.45 785.46h-33.1699l70.3398 114.39h51.4404zM139.28 -0h-42.0801l123.43 700h42.0801z" />
    <glyph glyph-name="Icaron" unicode="&#x1cf;" horiz-adv-x="236" 
d="M281.4 773.57h-46.7207l-111.43 134.84h45.4697l91.3203 -111.54l128.08 111.54h47.4502zM139.279 0h-42.0801l123.43 700h42.0801z" />
    <glyph glyph-name="Icircumflex" unicode="&#xce;" horiz-adv-x="236" 
d="M410.45 770.14h-45.4297l-87.75 111.54l-131.66 -111.54h-47.4502l158.96 134.84h46.71zM139.28 -0h-42.0801l123.43 700h42.0801z" />
    <glyph glyph-name="Idieresis" unicode="&#xcf;" horiz-adv-x="236" 
d="M184.24 857.37c12.7695 0 22.0195 -9.66992 22.0195 -22.2998c0 -13.6797 -11.9199 -25.8594 -25.2295 -25.8594c-13.1299 0 -22.6299 9.96973 -22.6299 22.5195c0 14.0195 12.2598 25.6396 25.8398 25.6396zM352.19 857.36c12.7695 0 22.0205 -9.66016 22.0205 -22.29
c0 -13.6797 -11.9199 -25.8594 -25.2295 -25.8594c-13.0703 0 -22.5605 9.96973 -22.5605 22.5195c0 14.0195 12.2598 25.6299 25.7695 25.6299zM139.271 -0.00976562h-42.0801l123.43 700h42.0801z" />
    <glyph glyph-name="Idotaccent" unicode="&#x130;" horiz-adv-x="236" 
d="M267.08 858.19c12.7695 0 22.0107 -9.66016 22.0107 -22.29c0 -13.6797 -11.9199 -25.8594 -25.2295 -25.8594c-13.0703 0 -22.5605 9.96973 -22.5605 22.5195c0 14.0195 12.2695 25.6299 25.7793 25.6299zM139.271 0h-42.0801l123.43 700h42.0801z" />
    <glyph glyph-name="Igrave" unicode="&#xcc;" horiz-adv-x="236" 
d="M303.11 785.32h-31.2109l-48.2695 114.39h49.4805zM139.279 0h-42.0801l123.43 700h42.0801z" />
    <glyph glyph-name="Imacron" unicode="&#x12a;" horiz-adv-x="236" 
d="M376.79 818h-228.199l5.01953 28.5098h228.21zM139.281 0h-42.0801l123.43 700h42.0801z" />
    <glyph glyph-name="Iogonek" unicode="&#x12e;" horiz-adv-x="236" 
d="M262.71 700l-122.621 -701.001c-84.0195 -55 -99.5391 -94 -103.589 -115c-1.00977 -5.46973 -1.47949 -10.5293 -1.47949 -15.1992c0 -32.0898 22.5303 -45.7998 51.96 -45.7998c33.6201 0 65.2197 16 88.7295 45l21.9502 -14c-29.25 -37 -73.1396 -56 -114.71 -56
c-40.9004 0 -80.2803 21.4102 -80.2803 69.1602c0 5.87988 0.589844 12.1494 1.85938 18.8398c3.16016 19 18.8906 64 94.8105 109l-2.28027 5l123.57 700h42.0801z" />
    <glyph glyph-name="J" unicode="J" horiz-adv-x="324" 
d="M397.16 699.84l-87.9912 -499.019c-25.9004 -146.92 -129.75 -215.82 -265.12 -209.82l4.07031 38.0498c110.42 -3.19043 197.95 52.5791 219.48 174.709l87.4805 496.08h42.0801z" />
    <glyph glyph-name="K" unicode="K" horiz-adv-x="591" 
d="M330.79 409.3l224.06 -409.3h-51.29l-205.51 376.23l-111.14 -108.99l-47.6299 -267.24h-42.0898l123.43 700h42.0996l-65.2695 -367.25l372.58 367.25h54.7002z" />
    <glyph glyph-name="Kcommaaccent" unicode="&#x136;" horiz-adv-x="591" 
d="M330.79 409.3l224.06 -409.3h-51.29l-205.51 376.23l-111.14 -108.99l-47.6299 -267.24h-42.0898l123.43 700h42.0996l-65.2695 -367.25l372.58 367.25h54.7002zM234.22 -189l23.709 41c-5.49023 4 -9.69043 12 -8.10059 20c1.75 11 11.6602 19 21.75 19
c12.7998 0 21.96 -12 19.6904 -24c-0.299805 -2 -1.22949 -5 -2.74902 -8l-32.2197 -48h-22.0801z" />
    <glyph glyph-name="L" unicode="L" horiz-adv-x="480" 
d="M146.15 38.9297h304.36l-6.87012 -38.9297h-346.44l123.43 700h42.0801z" />
    <glyph glyph-name="Lacute" unicode="&#x139;" horiz-adv-x="480" 
d="M287.28 785.46h-33.1699l70.3398 114.39h51.4404zM146.141 38.9297h304.361l-6.86035 -38.9404h-346.45l123.43 700h42.0898z" />
    <glyph glyph-name="Lcaron" unicode="&#x13d;" horiz-adv-x="480" 
d="M424.26 665.87l27.1602 48.5811c-5.5 3.84961 -9.63965 10.7998 -9.63965 19.25c0 14.6699 13.71 28.0703 28.1797 28.0703c15.5996 0 26.6699 -13.5703 23.9004 -29.2803c-0.480469 -2.73047 -1.73047 -6.64062 -3.74023 -10.2109l-37.6699 -56.4102h-28.1904z
M146.13 38.9414h304.361l-6.86035 -38.9404h-346.45l123.43 700h42.0898z" />
    <glyph glyph-name="Lcommaaccent" unicode="&#x13b;" horiz-adv-x="480" 
d="M146.15 38.9297h304.36l-6.87012 -38.9297h-346.44l123.43 700h42.0801zM202.551 -189l23.709 41c-5.49023 4 -9.69043 12 -8.10059 20c1.75 11 11.6602 19 21.75 19c12.7998 0 21.96 -12 19.6904 -24c-0.299805 -2 -1.22949 -5 -2.74902 -8l-32.2197 -48h-22.0801z" />
    <glyph glyph-name="Ldot" unicode="&#x13f;" horiz-adv-x="480" 
d="M146.15 38.9297h304.36l-6.87012 -38.9297h-346.44l123.43 700h42.0801zM361.491 397.6c13.9805 0 24.3203 -10.9102 24.3203 -24.4902c0 -14.8096 -13.7197 -28.21 -28.1895 -28.21c-13.9805 0 -24.3506 10.9102 -24.3506 24.4902c0 14.8096 13.75 28.21 28.2197 28.21z
" />
    <glyph glyph-name="Lslash" unicode="&#x141;" horiz-adv-x="516" 
d="M243.58 386.62l153.511 64.1602l10.5898 -34.5996l-171.13 -71.7998l-54.0703 -305.45h304.36l-6.87012 -38.9404h-346.45l57.6904 325.96l-117.32 -48.9199l-8.65039 34.96l132.84 55.2998l58.8799 332.71h42.0898z" />
    <glyph glyph-name="M" unicode="M" horiz-adv-x="743" 
d="M650.41 0h-41.1309l105.78 597.43l-322.84 -584.23h-33.75l-115.09 584.23l-105.78 -597.43h-41.1201l123.43 700h41.2803l124.91 -623.32l345.59 623.32h42.1504z" />
    <glyph glyph-name="N" unicode="N" horiz-adv-x="624" 
d="M532.21 0h-42.8506l-246.14 614.99l-108.94 -614.99h-42.0898l123.43 700h41.4502l246.79 -619.25l109.7 619.25h42.0801z" />
    <glyph glyph-name="Nacute" unicode="&#x143;" horiz-adv-x="624" 
d="M448.13 784.61h-33.1699l70.3398 114.39h51.4404zM532.21 0h-42.8506l-246.14 614.99l-108.94 -614.99h-42.0898l123.43 700h41.4502l246.79 -619.25l109.7 619.25h42.0801z" />
    <glyph glyph-name="Ncaron" unicode="&#x147;" horiz-adv-x="624" 
d="M474.23 773.57h-46.7305l-111.36 134.84h45.04l91.6904 -111.54l128.08 111.54h47.4502zM532.21 0h-42.8604l-246.13 614.99l-108.95 -614.99h-42.0801l123.43 700h41.4404l246.8 -619.25l109.69 619.25h42.0898z" />
    <glyph glyph-name="Ncommaaccent" unicode="&#x145;" horiz-adv-x="624" 
d="M532.21 0h-42.8506l-246.14 614.99l-108.94 -614.99h-42.0898l123.43 700h41.4502l246.79 -619.25l109.7 619.25h42.0801zM237.06 -189l23.709 41c-5.49023 4 -9.69043 12 -8.10059 20c1.75 11 11.6602 19 21.75 19c12.7998 0 21.96 -12 19.6904 -24
c-0.299805 -2 -1.22949 -5 -2.74902 -8l-32.2197 -48h-22.0801z" />
    <glyph glyph-name="Eng" unicode="&#x14a;" horiz-adv-x="624" 
d="M655.64 700l-137 -777c-8.49023 -48 -37.3105 -89 -84.001 -113c-18.0195 -9 -38.0098 -15 -61.3896 -18v35c21.1104 3 38.5908 9 51.3408 19c32.6904 19 47.8008 53 52.8604 79l13.1396 71l-247.36 618.99l-108.95 -614.99h-42.0801l123.43 700h41.4404l246.79 -619.25
l109.7 619.25h42.0801z" />
    <glyph glyph-name="Ntilde" unicode="&#xd1;" horiz-adv-x="624" 
d="M310.03 810.12l-14.3896 24.8799c35.6396 31.75 72.7793 51.7803 105.029 51.7803c54.0996 0 89.0898 -42.9102 134.74 -42.9102c24.8203 0 53.2305 14.0303 76.0908 34.6299l13.5098 -25.7002c-27.96 -22.3096 -62.0498 -38.9297 -90 -38.9297
c-54.0996 0 -89.25 41.2002 -136.22 41.2002c-28.29 0 -59.4004 -16.6299 -88.7607 -44.9502zM532.211 0h-42.8604l-246.13 614.99l-108.95 -614.99h-42.0801l123.43 700h41.4404l246.8 -619.25l109.69 619.25h42.0898z" />
    <glyph glyph-name="O" unicode="O" horiz-adv-x="625" 
d="M115.3 208.06l48.9512 277.621c27.4297 155.55 134.12 230.1 273.92 230.1c130.73 0 198.74 -68.5996 198.74 -178.779c0 -17.4102 -1.7002 -35.8506 -5.11035 -55.2305l-48.7803 -276.66c-28.8896 -163.84 -160.09 -218.12 -268.82 -218.12
c-98.8799 0 -203.34 45.8301 -203.34 173.12c0 14.8496 1.41992 30.8193 4.43945 47.9492zM541.381 207.15l48.7803 276.659c3.0498 17.2803 4.56934 33.5801 4.56934 48.8203c0 90.8496 -53.9199 144.22 -159.479 144.22c-118.73 0 -206.091 -62.2402 -229.19 -193.21
l-48.9502 -277.63c-2.58008 -14.6299 -3.7998 -28.1895 -3.7998 -40.749c0 -103.45 82.4404 -138.7 164.021 -138.7c93.5303 0 200.21 45.3896 224.05 180.59z" />
    <glyph glyph-name="Oacute" unicode="&#xd3;" horiz-adv-x="625" 
d="M440.77 784.61h-33.1699l70.3398 114.39h51.4404zM115.3 208.061l48.9521 277.621c27.4297 155.55 134.12 230.1 273.92 230.1c130.72 0 198.739 -68.5996 198.739 -178.779c0 -17.4102 -1.7002 -35.8506 -5.12012 -55.2305l-48.7803 -276.66
c-28.8896 -163.84 -160.08 -218.12 -268.82 -218.12c-98.8701 0 -203.34 45.8301 -203.34 173.12c0 14.8496 1.42969 30.8193 4.44922 47.9492zM541.372 207.151l48.792 276.659c3.04004 17.2803 4.55957 33.5801 4.55957 48.8203c0 90.8496 -53.9102 144.22 -159.48 144.22
c-118.73 0 -206.091 -62.2402 -229.181 -193.21l-48.96 -277.63c-2.58008 -14.6299 -3.79004 -28.1895 -3.79004 -40.749c0 -103.45 82.4297 -138.7 164.02 -138.7c93.5303 0 200.2 45.3896 224.04 180.59z" />
    <glyph glyph-name="Ocaron" unicode="&#x1d1;" horiz-adv-x="625" 
d="M475.45 773.57h-46.7207l-111.36 134.84h45.04l91.6904 -111.54l128.08 111.54h47.4502zM115.3 208.061l48.9512 277.621c27.4297 155.55 134.12 230.1 273.92 230.1c130.73 0 198.74 -68.5996 198.74 -178.779c0 -17.4102 -1.7002 -35.8506 -5.11035 -55.2305
l-48.7803 -276.66c-28.8896 -163.84 -160.09 -218.12 -268.82 -218.12c-98.8799 0 -203.34 45.8301 -203.34 173.12c0 14.8496 1.41992 30.8193 4.43945 47.9492zM541.381 207.151l48.7803 276.659c3.0498 17.2803 4.56934 33.5801 4.56934 48.8203
c0 90.8496 -53.9199 144.22 -159.479 144.22c-118.73 0 -206.091 -62.2402 -229.19 -193.21l-48.9502 -277.63c-2.58008 -14.6299 -3.7998 -28.1895 -3.7998 -40.749c0 -103.45 82.4404 -138.7 164.021 -138.7c93.5303 0 200.21 45.3896 224.05 180.59z" />
    <glyph glyph-name="Ocircumflex" unicode="&#xd4;" horiz-adv-x="625" 
d="M604.5 770.13h-45.4297l-87.75 111.54l-132.03 -111.54h-47.0303l158.91 134.84h46.71zM115.301 208.06l48.9521 277.621c27.4297 155.55 134.12 230.1 273.92 230.1c130.72 0 198.739 -68.5996 198.739 -178.779c0 -17.4102 -1.7002 -35.8506 -5.12012 -55.2305
l-48.7803 -276.66c-28.8896 -163.84 -160.08 -218.12 -268.82 -218.12c-98.8701 0 -203.34 45.8301 -203.34 173.12c0 14.8496 1.42969 30.8193 4.44922 47.9492zM541.373 207.15l48.792 276.659c3.04004 17.2803 4.55957 33.5801 4.55957 48.8203
c0 90.8496 -53.9102 144.22 -159.48 144.22c-118.73 0 -206.091 -62.2402 -229.181 -193.21l-48.96 -277.63c-2.58008 -14.6299 -3.79004 -28.1895 -3.79004 -40.749c0 -103.45 82.4297 -138.7 164.02 -138.7c93.5303 0 200.2 45.3896 224.04 180.59z" />
    <glyph glyph-name="Odieresis" unicode="&#xd6;" horiz-adv-x="625" 
d="M378.29 857.37c12.7695 0 22.0205 -9.66895 22.0205 -22.2891c0 -13.6797 -11.9199 -25.8701 -25.2295 -25.8701c-13.0703 0 -22.5605 9.96973 -22.5605 22.5195c0 14.0195 12.2598 25.6396 25.7695 25.6396zM546.251 857.371
c12.7695 0 22.0303 -9.66895 22.0303 -22.2988c0 -13.6699 -11.9297 -25.8604 -25.2393 -25.8604c-13.0703 0 -22.5703 9.96973 -22.5703 22.5195c0 14.0195 12.2695 25.6396 25.7793 25.6396zM115.312 208.062l48.9521 277.631c27.4297 155.55 134.12 230.1 273.92 230.1
c130.72 0 198.739 -68.6104 198.739 -178.79c0 -17.4004 -1.7002 -35.8506 -5.12012 -55.2207l-48.7803 -276.66c-28.8896 -163.84 -160.08 -218.12 -268.82 -218.12c-98.8701 0 -203.34 45.8301 -203.34 173.11c0 14.8604 1.42969 30.8203 4.44922 47.9502z
M541.384 207.163l48.792 276.65c3.04004 17.2803 4.55957 33.5801 4.55957 48.8301c0 90.8398 -53.9102 144.22 -159.48 144.22c-118.73 0 -206.091 -62.2402 -229.181 -193.21l-48.96 -277.63c-2.58008 -14.6299 -3.79004 -28.2002 -3.79004 -40.7598
c0 -103.45 82.4297 -138.69 164.02 -138.69c93.5303 0 200.2 45.3799 224.04 180.59z" />
    <glyph glyph-name="Ograve" unicode="&#xd2;" horiz-adv-x="625" 
d="M499.86 784.61h-31.21l-48.2402 114.39h49.4502zM115.301 208.061l48.9512 277.621c27.4297 155.55 134.12 230.1 273.92 230.1c130.73 0 198.74 -68.5996 198.74 -178.779c0 -17.4102 -1.7002 -35.8506 -5.11035 -55.2305l-48.7803 -276.66
c-28.8896 -163.84 -160.09 -218.12 -268.82 -218.12c-98.8799 0 -203.34 45.8301 -203.34 173.12c0 14.8496 1.41992 30.8193 4.43945 47.9492zM541.382 207.151l48.7803 276.659c3.0498 17.2803 4.56934 33.5801 4.56934 48.8203
c0 90.8496 -53.9199 144.22 -159.479 144.22c-118.73 0 -206.091 -62.2402 -229.19 -193.21l-48.9502 -277.63c-2.58008 -14.6299 -3.7998 -28.1895 -3.7998 -40.749c0 -103.45 82.4404 -138.7 164.021 -138.7c93.5303 0 200.21 45.3896 224.05 180.59z" />
    <glyph glyph-name="Ohungarumlaut" unicode="&#x150;" horiz-adv-x="625" 
d="M428.85 784.33h-32.0508l69.1104 114.67h49.6504zM484.688 784.33h-32.04l69.0996 114.67h49.6504zM115.299 208.061l48.9512 277.631c27.4297 155.55 134.12 230.1 273.92 230.1c130.73 0 198.74 -68.6104 198.74 -178.79
c0 -17.4004 -1.7002 -35.8506 -5.11035 -55.2207l-48.7803 -276.66c-28.8896 -163.84 -160.09 -218.12 -268.82 -218.12c-98.8799 0 -203.34 45.8301 -203.34 173.11c0 14.8604 1.41992 30.8203 4.43945 47.9502zM541.38 207.161l48.7803 276.65
c3.0498 17.2803 4.56934 33.5801 4.56934 48.8301c0 90.8398 -53.9199 144.22 -159.479 144.22c-118.73 0 -206.091 -62.2402 -229.19 -193.21l-48.9502 -277.63c-2.58008 -14.6299 -3.7998 -28.2002 -3.7998 -40.7598c0 -103.45 82.4404 -138.69 164.021 -138.69
c93.5303 0 200.21 45.3799 224.05 180.59z" />
    <glyph glyph-name="Omacron" unicode="&#x14c;" horiz-adv-x="625" 
d="M570.84 818h-228.199l5.01953 28.5098h228.21zM115.301 208.06l48.9521 277.621c27.4297 155.55 134.12 230.1 273.92 230.1c130.72 0 198.739 -68.5996 198.739 -178.779c0 -17.4102 -1.7002 -35.8506 -5.12012 -55.2305l-48.7803 -276.66
c-28.8896 -163.84 -160.08 -218.12 -268.82 -218.12c-98.8701 0 -203.34 45.8301 -203.34 173.12c0 14.8496 1.42969 30.8193 4.44922 47.9492zM541.373 207.15l48.792 276.659c3.04004 17.2803 4.55957 33.5801 4.55957 48.8203c0 90.8496 -53.9102 144.22 -159.48 144.22
c-118.73 0 -206.091 -62.2402 -229.181 -193.21l-48.96 -277.63c-2.58008 -14.6299 -3.79004 -28.1895 -3.79004 -40.749c0 -103.45 82.4297 -138.7 164.02 -138.7c93.5303 0 200.2 45.3896 224.04 180.59z" />
    <glyph glyph-name="Oslash" unicode="&#xd8;" horiz-adv-x="625" 
d="M605.01 750l-35.8271 -68.4375c44.8096 -30.6504 67.7295 -80.6006 67.7295 -144.561c0 -17.4102 -1.7002 -35.8506 -5.12012 -55.2305l-48.7803 -276.66c-28.8896 -163.84 -160.08 -218.12 -268.82 -218.12c-33.9502 0 -68.5703 5.41016 -99.3799 17.6602
l-28.6201 -54.6602h-42.3203l37.5703 71.7598c-41.7305 27.0703 -70.5908 71.46 -70.5908 138.36c0 14.8496 1.42969 30.8193 4.44922 47.9492l48.9502 277.63c27.4297 155.55 134.12 230.1 273.92 230.1c37.96 0 70.6299 -5.79004 97.8799 -16.6904l26.6396 50.9004
h42.3203zM205.822 482.742l-48.9619 -277.631c-2.59961 -14.7197 -3.81934 -28.3496 -3.81934 -40.9492c0 -49.7803 19.0703 -83.5703 47.8799 -105.2l316.24 604.05c-22.1396 9.08984 -48.96 13.8398 -80.4297 13.8398c-119.51 0 -207.819 -63.1396 -230.909 -194.109z
M541.44 208.052l48.7891 276.649c3.07031 17.4199 4.60059 33.8203 4.60059 49.1406c0 48.2598 -15.2002 85.7402 -45.29 110.2l-315.81 -603.24c25.04 -9.99023 53.5498 -14.2402 81.9297 -14.2402c94.3203 0 201.94 46.2803 225.78 181.49z" />
    <glyph glyph-name="Otilde" unicode="&#xd5;" horiz-adv-x="625" 
d="M311.25 810.12l-14.3818 24.8799c35.6299 31.75 72.7803 51.7803 105.021 51.7803c54.0996 0 89.0898 -42.9102 134.74 -42.9102c24.8301 0 53.2402 14.0303 76.1006 34.6299l13.5098 -25.7002c-27.9697 -22.3096 -62.0498 -38.9297 -90.0098 -38.9297
c-54.0996 0 -89.2393 41.2002 -136.22 41.2002c-28.29 0 -59.3896 -16.6299 -88.7598 -44.9502zM115.298 208.06l48.9521 277.621c27.4297 155.55 134.12 230.1 273.92 230.1c130.72 0 198.739 -68.5996 198.739 -178.779c0 -17.4102 -1.7002 -35.8506 -5.12012 -55.2305
l-48.7803 -276.66c-28.8896 -163.84 -160.08 -218.12 -268.82 -218.12c-98.8701 0 -203.34 45.8301 -203.34 173.12c0 14.8496 1.42969 30.8193 4.44922 47.9492zM541.37 207.15l48.792 276.659c3.04004 17.2803 4.55957 33.5801 4.55957 48.8203
c0 90.8496 -53.9102 144.22 -159.48 144.22c-118.73 0 -206.091 -62.2402 -229.181 -193.21l-48.96 -277.63c-2.58008 -14.6299 -3.79004 -28.1895 -3.79004 -40.749c0 -103.45 82.4297 -138.7 164.02 -138.7c93.5303 0 200.2 45.3896 224.04 180.59z" />
    <glyph glyph-name="OE" unicode="&#x152;" horiz-adv-x="954" 
d="M85.54 209.59l48.9414 277.629c27.4297 155.55 134.12 230.1 273.92 230.1c98 0 157.79 -41.4697 178.15 -109.62l17.2197 92.2998h426.98l-6.86035 -38.9297h-384.9l-51.5098 -292.09h351.6l-6.86035 -38.9297h-351.6l-51.3301 -291.12h383.86l-6.87012 -38.9297
h-426.21l17.2998 91.1504c-51.5 -75.2197 -138.29 -102.149 -212.9 -102.149c-98.8799 0 -203.37 45.4502 -203.37 172.67c0 14.8398 1.41992 30.79 4.43945 47.9199zM510.021 200.148l50.4492 286.099c3.07031 17.4199 4.60059 33.8203 4.60059 49.1406
c0 90.4297 -53.3604 143 -158.11 143c-119.51 0 -207.819 -63.1396 -230.909 -194.109l-48.96 -277.63c-2.58984 -14.71 -3.80957 -28.3398 -3.80957 -40.9502c0 -103.12 81.7998 -137.601 162.62 -137.601c91.75 0 202.85 51.4404 224.119 172.051z" />
    <glyph glyph-name="P" unicode="P" horiz-adv-x="609" 
d="M220.62 700l256.401 0.000976562c105.5 0 158.54 -65.3496 158.54 -148.569c0 -12.0801 -1.12012 -24.5303 -3.35059 -37.2207c-21.8203 -123.72 -99.6807 -190.75 -220.811 -190.73h-215.08l-57.04 -323.48h-42.0898zM255.901 661.071l-52.6602 -298.589h212.84
c95.8096 0 157.92 53.5898 175.9 155.55c1.7998 10.21 2.7002 20.1797 2.7002 29.7998c0 64.3896 -40.4102 113.239 -122.95 113.239h-215.83z" />
    <glyph glyph-name="Thorn" unicode="&#xde;" horiz-adv-x="609" 
d="M235.63 546.41l214.301 -0.000976562c105.5 0 158.55 -65.3496 158.55 -148.569c0 -12.0801 -1.12012 -24.54 -3.36035 -37.2305c-21.8096 -123.72 -99.6699 -190.739 -220.81 -190.72h-215.08l-29.9502 -169.89h-42.0898l123.43 700h42.0898zM228.761 507.479
l-52.6592 -298.589h212.84c95.8096 0 157.92 53.5898 175.89 155.54c1.7998 10.21 2.70996 20.1797 2.70996 29.8096c0 64.3896 -40.4102 113.239 -122.95 113.239h-215.83z" />
    <glyph glyph-name="Q" unicode="Q" horiz-adv-x="625" 
d="M115.3 208.06l48.9512 277.621c27.4297 155.55 134.12 230.1 273.92 230.1c130.72 0 198.739 -68.5996 198.739 -178.779c0 -17.4102 -1.7002 -35.8506 -5.12012 -55.2305l-48.7803 -276.66c-11.7803 -66.7998 -40.5605 -115.39 -77.9004 -149.51l42.0703 -53.4697
l-26.0703 -21.1396l-42.29 53.8096c-50.0596 -34.1904 -110.159 -47.8105 -164.619 -47.8105c-98.8799 0 -203.34 45.8301 -203.34 173.12c0 14.8496 1.41992 30.8193 4.43945 47.9492zM541.371 207.15l48.7891 276.659c3.0498 17.2803 4.56934 33.5801 4.56934 48.8203
c0 90.8496 -53.9199 144.22 -159.479 144.22c-118.73 0 -206.091 -62.2402 -229.19 -193.21l-48.9502 -277.63c-2.58008 -14.6299 -3.7998 -28.1895 -3.7998 -40.749c0 -103.45 82.4404 -138.7 164.021 -138.7c46.4404 0 96.1309 11.1904 137.301 39.0107l-88.0996 112.1
l26.0703 20.96l88.0898 -111.99c29.1396 28.0898 51.3096 67.3594 60.6797 120.51z" />
    <glyph glyph-name="R" unicode="R" horiz-adv-x="616" 
d="M220.62 700l256.399 0.000976562c105.57 0 158.67 -65.1104 158.67 -148.04c0 -11.9805 -1.11035 -24.3408 -3.33008 -36.9209c-20.5498 -116.54 -90.0195 -180.25 -200.859 -185.81h-39.7402l153.22 -329.23h-49.3398l-149.79 325.24h-149.22l-57.3496 -325.24h-42.0898
zM255.85 661.071l-52.3486 -296.82h212.84c95.8096 0 157.869 53.3301 175.739 154.68c1.78027 10.0801 2.66992 19.9404 2.66992 29.4502c0 64.0801 -40.46 112.71 -123.07 112.69h-215.83z" />
    <glyph glyph-name="Racute" unicode="&#x154;" horiz-adv-x="616" 
d="M436.19 784.61h-33.1699l70.3398 114.39h51.4404zM220.62 700l256.399 0.000976562c105.57 0 158.67 -65.1104 158.67 -148.04c0 -11.9805 -1.11035 -24.3408 -3.33008 -36.9209c-20.5498 -116.54 -90.0195 -180.25 -200.859 -185.81h-39.7402l153.22 -329.23h-49.3398
l-149.79 325.24h-149.22l-57.3496 -325.24h-42.0898zM255.85 661.071l-52.3486 -296.82h212.84c95.8096 0 157.869 53.3301 175.739 154.68c1.78027 10.0801 2.66992 19.9404 2.66992 29.4502c0 64.0801 -40.46 112.71 -123.07 112.69h-215.83z" />
    <glyph glyph-name="Rcaron" unicode="&#x158;" horiz-adv-x="616" 
d="M470.86 773.57h-46.7197l-111.36 134.84h45.04l91.6797 -111.54l128.09 111.54h47.4502zM220.621 700l256.401 0.000976562c105.56 0 158.659 -65.1104 158.659 -148.04c0 -11.9805 -1.11035 -24.3408 -3.33008 -36.9209
c-20.5498 -116.54 -90.0195 -180.25 -200.85 -185.81h-39.75l153.22 -329.23h-49.3398l-149.78 325.24h-149.23l-57.3496 -325.24h-42.0801zM255.843 661.071l-52.3398 -296.82h212.83c95.8096 0 157.88 53.3301 175.75 154.68
c1.78027 10.0801 2.66992 19.9404 2.66992 29.4502c0 64.0801 -40.46 112.71 -123.08 112.69h-215.83z" />
    <glyph glyph-name="Rcommaaccent" unicode="&#x156;" horiz-adv-x="616" 
d="M220.62 700l256.399 0.000976562c105.57 0 158.67 -65.1104 158.67 -148.04c0 -11.9805 -1.11035 -24.3408 -3.33008 -36.9209c-20.5498 -116.54 -90.0195 -180.25 -200.859 -185.81h-39.7402l153.22 -329.23h-49.3398l-149.79 325.24h-149.22l-57.3496 -325.24h-42.0898
zM255.85 661.071l-52.3486 -296.82h212.84c95.8096 0 157.869 53.3301 175.739 154.68c1.78027 10.0801 2.66992 19.9404 2.66992 29.4502c0 64.0801 -40.46 112.71 -123.07 112.69h-215.83zM241.391 -188.989l23.7002 41c-5.49023 4 -9.69043 12 -8.10059 20
c1.75 11 11.6699 19 21.7598 19c12.7998 0 21.9502 -12 19.6807 -24c-0.290039 -2 -1.21973 -5 -2.73926 -8l-32.2305 -48h-22.0703z" />
    <glyph glyph-name="S" unicode="S" horiz-adv-x="582" 
d="M82.6396 182.96l40.4307 -1.14258c-0.959961 -6.75 -1.4502 -13.5098 -1.4502 -20.2295c0 -68.8301 51.25 -133.32 170.92 -133.32c142.88 0 214.71 68.2803 231.5 163.681c1.25977 7.13965 1.85938 13.9199 1.85938 20.3701c0 77.9004 -87.9697 107.37 -176.66 138.32
c-100.14 33.1699 -189.18 67.5996 -189.18 155.229c0 7.91992 0.730469 16.2803 2.24023 25.1006c20.1602 117.73 130.87 179.311 255.7 179.311c114.6 0 201.14 -52.1504 201.14 -150.641c0 -9.16992 -0.75 -18.7295 -2.29004 -28.6992l-40.5098 1.13965
c1.25977 7.98047 1.87012 15.6201 1.87012 22.9004c0 78.6299 -71.1504 116.54 -161.62 116.54c-102.62 0 -197.25 -50.3701 -213.57 -143.14c-1.03027 -5.86035 -1.53027 -11.4502 -1.53027 -16.79c0 -64.8701 73.6504 -92.0898 163.24 -122.41
c108.19 -34.1602 202.2 -75.7402 202.2 -172.94c0 -9.5 -0.900391 -19.5303 -2.77051 -30.1299c-19.75 -112.01 -101.13 -197.12 -272.05 -197.12c-143.52 0 -211.18 81.8604 -211.18 169.65c0 8.08008 0.570312 16.2002 1.70996 24.3203z" />
    <glyph glyph-name="Sacute" unicode="&#x15a;" horiz-adv-x="582" 
d="M419.22 784.61h-33.1592l70.3398 114.39h51.4297zM82.6406 182.96l40.4404 -1.14258c-0.959961 -6.75 -1.4502 -13.5098 -1.4502 -20.2295c0 -68.8301 51.2402 -133.32 170.91 -133.32c142.89 0 214.72 68.2803 231.51 163.681
c1.25 7.13965 1.86035 13.9199 1.86035 20.3701c0 77.9004 -87.9697 107.37 -176.67 138.32c-100.14 33.1699 -189.17 67.5996 -189.17 155.229c0 7.91992 0.719727 16.2803 2.22949 25.1006c20.1602 117.73 130.88 179.311 255.7 179.311
c114.6 0 201.149 -52.1504 201.149 -150.641c0 -9.16992 -0.75 -18.7295 -2.2998 -28.6992l-40.5098 1.13965c1.26953 7.98047 1.87988 15.6201 1.87988 22.9004c0 78.6299 -71.1504 116.54 -161.62 116.54c-102.63 0 -197.26 -50.3701 -213.58 -143.14
c-1.03027 -5.86035 -1.53027 -11.4502 -1.53027 -16.79c0 -64.8701 73.6504 -92.0898 163.24 -122.41c108.19 -34.1602 202.2 -75.7402 202.2 -172.94c0 -9.5 -0.900391 -19.5303 -2.77051 -30.1299c-19.75 -112.01 -101.12 -197.12 -272.05 -197.12
c-143.52 0 -211.18 81.8604 -211.18 169.65c0 8.08008 0.570312 16.2002 1.70996 24.3203z" />
    <glyph glyph-name="Scaron" unicode="&#x160;" horiz-adv-x="582" 
d="M453.9 773.57h-46.7305l-111.36 134.84h45.04l91.6904 -111.54l128.08 111.54h47.4502zM82.6299 182.96l40.4307 -1.14258c-0.959961 -6.75 -1.4502 -13.5098 -1.4502 -20.2295c0 -68.8301 51.25 -133.32 170.92 -133.32c142.88 0 214.71 68.2803 231.5 163.681
c1.25977 7.13965 1.85938 13.9199 1.85938 20.3701c0 77.9004 -87.9697 107.37 -176.66 138.32c-100.14 33.1699 -189.18 67.5996 -189.18 155.229c0 7.91992 0.730469 16.2803 2.24023 25.1006c20.1602 117.73 130.87 179.311 255.7 179.311
c114.6 0 201.14 -52.1504 201.14 -150.641c0 -9.16992 -0.75 -18.7295 -2.29004 -28.6992l-40.5098 1.13965c1.25977 7.98047 1.87012 15.6201 1.87012 22.9004c0 78.6299 -71.1504 116.54 -161.62 116.54c-102.62 0 -197.25 -50.3701 -213.57 -143.14
c-1.03027 -5.86035 -1.53027 -11.4502 -1.53027 -16.79c0 -64.8701 73.6504 -92.0898 163.24 -122.41c108.19 -34.1602 202.2 -75.7402 202.2 -172.94c0 -9.5 -0.900391 -19.5303 -2.77051 -30.1299c-19.75 -112.01 -101.13 -197.12 -272.05 -197.12
c-143.52 0 -211.18 81.8604 -211.18 169.65c0 8.08008 0.570312 16.2002 1.70996 24.3203z" />
    <glyph glyph-name="Scedilla" unicode="&#x15e;" horiz-adv-x="582" 
d="M82.6396 182.95l40.4434 -1.13086c-0.959961 -6.75 -1.4502 -13.5098 -1.4502 -20.2295c0 -68.8301 51.25 -133.32 170.92 -133.32c142.88 0 214.71 68.2803 231.5 163.681c1.25977 7.13965 1.85938 13.9199 1.85938 20.3701c0 77.9004 -87.9697 107.37 -176.66 138.32
c-100.14 33.1699 -189.18 67.5996 -189.18 155.229c0 7.91992 0.730469 16.2803 2.24023 25.1006c20.1602 117.73 130.87 179.311 255.7 179.311c114.6 0 201.14 -52.1504 201.14 -150.641c0 -9.16016 -0.75 -18.7305 -2.29004 -28.6904l-40.5098 1.12988
c1.25977 7.99023 1.87012 15.6201 1.87012 22.9102c0 78.6201 -71.1504 116.53 -161.62 116.53c-102.62 0 -197.25 -50.3799 -213.57 -143.14c-1.03027 -5.87012 -1.53027 -11.46 -1.53027 -16.79c0 -64.8701 73.6504 -92.1006 163.24 -122.41
c108.19 -34.1699 202.2 -75.7402 202.2 -172.94c0 -9.5 -0.900391 -19.5303 -2.77051 -30.1299c-19.6104 -111.22 -99.9004 -196.12 -268.62 -197.12l-39.4102 -41c15.8096 6 34.1396 9 51.1592 8c40.3301 -0.889648 76.46 -19.4395 76.46 -63.5498
c0 -5.12988 -0.490234 -10.6104 -1.52051 -16.4502c-12.4404 -71 -81.96 -89 -138.9 -89c-36.04 0 -66.5205 11 -95.501 22l14.75 26c25.1602 -17 57.54 -22 78.3701 -23c49.1504 0 101.32 22 109.721 69c0.570312 3.24023 0.839844 6.33984 0.839844 9.29004
c0 26.1699 -21.71 40.71 -51.8496 40.71c-18.46 0 -45.7998 -4 -86.1201 -22l-9.19043 13l63.3398 67c-127.13 9.11035 -186.77 87.2305 -186.77 169.66c0 8.08008 0.570312 16.2002 1.70996 24.2998z" />
    <glyph glyph-name="Scommaaccent" unicode="&#x218;" horiz-adv-x="595" 
d="M82.6396 182.96l40.4307 -1.13184c-0.959961 -6.75 -1.4502 -13.5098 -1.4502 -20.2295c0 -68.8301 51.25 -133.32 170.92 -133.32c142.88 0 214.71 68.2803 231.5 163.681c1.25977 7.13965 1.85938 13.9199 1.85938 20.3701c0 77.9004 -87.9697 107.37 -176.66 138.32
c-100.14 33.1699 -189.18 67.5996 -189.18 155.229c0 7.91992 0.730469 16.2803 2.24023 25.1006c20.1602 117.73 130.87 179.311 255.7 179.311c114.6 0 201.14 -52.1504 201.14 -150.641c0 -9.16992 -0.75 -18.7295 -2.29004 -28.6992l-40.5098 1.13965
c1.25977 7.98047 1.87012 15.6201 1.87012 22.9004c0 78.6299 -71.1504 116.54 -161.62 116.54c-102.62 0 -197.25 -50.3701 -213.57 -143.14c-1.03027 -5.86035 -1.53027 -11.4502 -1.53027 -16.79c0 -65.0703 74.1104 -92.2607 163.971 -122.671
c107.96 -34.0898 201.47 -75.7197 201.47 -172.67c0 -9.50977 -0.900391 -19.54 -2.77051 -30.1504c-19.75 -112.01 -101.13 -197.12 -272.05 -197.12c-143.52 0 -211.18 81.8604 -211.18 169.65c0 8.08008 0.570312 16.2002 1.70996 24.3203zM232.261 -188.992l23.709 41
c-5.49023 4 -9.69043 12 -8.10059 20c1.75 11 11.6602 19 21.75 19c12.7998 0 21.96 -12 19.6904 -24c-0.299805 -2 -1.22949 -5 -2.74902 -8l-32.2197 -48h-22.0801z" />
    <glyph glyph-name="T" unicode="T" horiz-adv-x="530" 
d="M592.94 661.06h-198.03l-116.56 -661.06h-42.0898l116.57 661.06h-191.24l6.87012 38.9404h431.35z" />
    <glyph glyph-name="Tbar" unicode="&#x166;" horiz-adv-x="530" 
d="M592.95 661.07h-198.03l-50.5703 -286.82h102.44l-5.01953 -28.5h-102.45l-60.9697 -345.75h-42.0801l60.96 345.75h-95.6504l5.03027 28.5h95.6504l50.5703 286.82h-191.23l6.86035 38.9297h431.35z" />
    <glyph glyph-name="Tcaron" unicode="&#x164;" horiz-adv-x="530" 
d="M427.72 773.57h-46.7305l-111.36 134.84h45.04l91.6904 -111.54l128.08 111.54h47.4502zM592.939 661.061h-198.03l-116.56 -661.06h-42.0898l116.57 661.06h-191.24l6.87012 38.9404h431.35z" />
    <glyph glyph-name="Tcedilla" unicode="&#x162;" horiz-adv-x="530" 
d="M592.94 661.06l-198.019 -0.000976562l-116.35 -661.06l-11 -4l-44.2402 -47c16.0195 6 34.5195 9 50.8691 8c40.7305 0 76.7402 -19.2402 76.7402 -63.46c0 -5.16992 -0.490234 -10.6797 -1.53027 -16.54c-12.4297 -71 -81.9297 -89 -138.87 -89
c-36.04 0 -66.5498 11 -95.5303 22l14.75 26c25.1602 -17 57.54 -22 78.3701 -23c49.1504 0 101.32 22 109.721 69c0.589844 3.41016 0.870117 6.65039 0.870117 9.7207c0 26.6104 -21.4102 40.2803 -52.3604 40.2803c-19.1104 0 -45.2002 -4 -85.6299 -22l-9.19043 13
l67.7598 74l-3.25 3l116.78 661.06h-191.24l6.87012 38.9404h431.35z" />
    <glyph glyph-name="uni021A" unicode="&#x21a;" horiz-adv-x="521" 
d="M592.94 661.06h-198.03l-116.56 -661.06h-42.0898l116.57 661.06h-191.24l6.87012 38.9404h431.35zM198.19 -189l23.7002 41c-5.49023 4 -9.69043 12 -8.10059 20c1.75 11 11.6699 19 21.7598 19c12.7998 0 21.9502 -12 19.6807 -24
c-0.290039 -2 -1.21973 -5 -2.73926 -8l-32.2305 -48h-22.0703z" />
    <glyph glyph-name="U" unicode="U" horiz-adv-x="628" 
d="M671.84 700.82l-87.1299 -494.16c-28.8896 -163.85 -160.06 -217.659 -268.79 -217.659c-98.8604 0 -203.37 45.4502 -203.37 172.67c0 14.8496 1.41992 30.7998 4.43945 47.9297l86.6201 491.22h42.0801l-87.1299 -494.16
c-2.59961 -14.7197 -3.81934 -28.3496 -3.81934 -40.9492c0 -103.12 81.7998 -137.601 162.63 -137.601c94.3096 0 201.93 46.2803 225.77 181.49l86.6201 491.22h42.0801z" />
    <glyph glyph-name="Uacute" unicode="&#xda;" horiz-adv-x="628" 
d="M440.35 784.61h-33.1699l70.3398 114.39h51.4404zM671.84 700.82l-87.1318 -494.16c-28.8896 -163.85 -160.069 -217.659 -268.789 -217.659c-98.8701 0 -203.37 45.4502 -203.37 172.67c0 14.8496 1.41992 30.7998 4.43945 47.9297l86.6104 491.22h42.0898
l-87.1396 -494.16c-2.58984 -14.7197 -3.80957 -28.3496 -3.80957 -40.9492c0 -103.12 81.7998 -137.601 162.62 -137.601c94.3203 0 201.94 46.2803 225.78 181.49l86.6104 491.22h42.0898z" />
    <glyph glyph-name="Ucaron" unicode="&#x1d3;" horiz-adv-x="628" 
d="M474.93 773.57h-46.7197l-111.36 134.84h45.04l91.6797 -111.54l128.08 111.54h47.4502zM671.84 700.82l-87.1299 -494.16c-28.8896 -163.85 -160.06 -217.659 -268.79 -217.659c-98.8604 0 -203.37 45.4502 -203.37 172.67c0 14.8496 1.41992 30.7998 4.43945 47.9297
l86.6201 491.22h42.0801l-87.1299 -494.16c-2.59961 -14.7197 -3.81934 -28.3496 -3.81934 -40.9492c0 -103.12 81.7998 -137.601 162.63 -137.601c94.3096 0 201.93 46.2803 225.77 181.49l86.6201 491.22h42.0801z" />
    <glyph glyph-name="Ucircumflex" unicode="&#xdb;" horiz-adv-x="628" 
d="M603.98 770.14h-45.4297l-87.75 111.54l-132.03 -111.54h-47.0303l158.91 134.84h46.71zM671.841 700.819l-87.1299 -494.16c-28.8896 -163.85 -160.06 -217.659 -268.79 -217.659c-98.8604 0 -203.37 45.4502 -203.37 172.67c0 14.8496 1.41992 30.7998 4.43945 47.9297
l86.6201 491.22h42.0801l-87.1299 -494.16c-2.59961 -14.7197 -3.81934 -28.3496 -3.81934 -40.9492c0 -103.12 81.7998 -137.601 162.63 -137.601c94.3096 0 201.93 46.2803 225.77 181.49l86.6201 491.22h42.0801z" />
    <glyph glyph-name="Udieresis" unicode="&#xdc;" horiz-adv-x="628" 
d="M377.77 857.37c12.7695 0 22.0205 -9.66895 22.0205 -22.2891c0 -13.6797 -11.9297 -25.8701 -25.2295 -25.8701c-13.0801 0 -22.5703 9.96973 -22.5703 22.5195c0 14.0195 12.2695 25.6396 25.7793 25.6396zM545.721 857.371
c12.7695 0 22.0303 -9.66895 22.0303 -22.2988c0 -13.6699 -11.9297 -25.8604 -25.2393 -25.8604c-13.0703 0 -22.5703 9.96973 -22.5703 22.5195c0 14.0195 12.2695 25.6396 25.7793 25.6396zM671.842 700.822l-87.1299 -494.16
c-28.8896 -163.85 -160.06 -217.659 -268.79 -217.659c-98.8604 0 -203.37 45.4502 -203.37 172.67c0 14.8496 1.41992 30.7998 4.43945 47.9297l86.6201 491.22h42.0801l-87.1299 -494.16c-2.59961 -14.7197 -3.81934 -28.3496 -3.81934 -40.9492
c0 -103.12 81.7998 -137.601 162.63 -137.601c94.3096 0 201.93 46.2803 225.77 181.49l86.6201 491.22h42.0801z" />
    <glyph glyph-name="Udieresisacute" unicode="&#x1d7;" horiz-adv-x="658" 
d="M499.98 876.37h-33.1699l70.3398 114.39h51.4297zM390.971 832.47c12.7695 0 22.0205 -9.66016 22.0205 -22.29c0 -13.6797 -11.9297 -25.8594 -25.2295 -25.8594c-13.0801 0 -22.5703 9.96973 -22.5703 22.5195c0 14.0195 12.2695 25.6299 25.7793 25.6299z
M558.922 832.47c12.7695 0 22.0303 -9.66016 22.0303 -22.29c0 -13.6797 -11.9297 -25.8594 -25.2393 -25.8594c-13.0703 0 -22.5703 9.96973 -22.5703 22.5195c0 14.0195 12.2695 25.6299 25.7793 25.6299zM671.843 700.819l-87.1299 -494.16
c-28.8896 -163.85 -160.06 -217.659 -268.79 -217.659c-98.8604 0 -203.37 45.4502 -203.37 172.67c0 14.8496 1.41992 30.7998 4.43945 47.9297l86.6201 491.22h42.0801l-87.1299 -494.16c-2.59961 -14.7197 -3.81934 -28.3496 -3.81934 -40.9492
c0 -103.12 81.7998 -137.601 162.63 -137.601c94.3096 0 201.93 46.2803 225.77 181.49l86.6201 491.22h42.0801z" />
    <glyph glyph-name="Udieresiscaron" unicode="&#x1d9;" horiz-adv-x="628" 
d="M495.19 888.47h-46.7305l-111.36 134.84h45.04l91.6904 -111.54l128.08 111.54h47.4502zM375.49 844.489c12.7695 0 22.0303 -9.66016 22.0303 -22.29c0 -13.6797 -11.9297 -25.8594 -25.2295 -25.8594c-13.0801 0 -22.5703 9.96973 -22.5703 22.5195
c0 14.0195 12.2598 25.6299 25.7695 25.6299zM543.451 844.489c12.7695 0 22.0205 -9.66016 22.0205 -22.29c0 -13.6797 -11.9297 -25.8701 -25.2295 -25.8701c-13.0801 0 -22.5703 9.98047 -22.5703 22.5303c0 14.0195 12.2695 25.6299 25.7793 25.6299zM671.832 700.819
l-87.1299 -494.171c-28.8896 -163.85 -160.06 -217.649 -268.79 -217.649c-98.8604 0 -203.37 45.4502 -203.37 172.67c0 14.8398 1.41992 30.7998 4.43945 47.9199l86.6201 491.23h42.0801l-87.1299 -494.17c-2.59961 -14.71 -3.81934 -28.3398 -3.81934 -40.9502
c0 -103.12 81.7998 -137.601 162.63 -137.601c94.3096 0 201.93 46.29 225.77 181.49l86.6201 491.23h42.0801z" />
    <glyph glyph-name="Udieresisgrave" unicode="&#x1db;" horiz-adv-x="658" 
d="M519.86 876.15h-31.21l-48.2402 114.39h49.4502zM390.971 832.471c12.7695 0 22.0205 -9.66016 22.0205 -22.29c0 -13.6797 -11.9199 -25.8594 -25.2295 -25.8594c-13.0703 0 -22.5605 9.96973 -22.5605 22.5195c0 14.0195 12.2598 25.6299 25.7695 25.6299z
M558.922 832.471c12.7695 0 22.0303 -9.66016 22.0303 -22.29c0 -13.6797 -11.9199 -25.8594 -25.2295 -25.8594c-13.0801 0 -22.5703 9.96973 -22.5703 22.5195c0 14.0195 12.2695 25.6299 25.7695 25.6299zM671.853 700.82l-87.1318 -494.16
c-28.8896 -163.85 -160.069 -217.659 -268.789 -217.659c-98.8701 0 -203.37 45.4502 -203.37 172.67c0 14.8496 1.41992 30.7998 4.43945 47.9297l86.6104 491.22h42.0898l-87.1396 -494.16c-2.58984 -14.7197 -3.80957 -28.3496 -3.80957 -40.9492
c0 -103.12 81.7998 -137.601 162.62 -137.601c94.3203 0 201.94 46.2803 225.78 181.49l86.6104 491.22h42.0898z" />
    <glyph glyph-name="Udieresismacron" unicode="&#x1d5;" horiz-adv-x="658" 
d="M602.46 895.71h-228.199l5.01953 28.5h228.21zM390.971 832.47c12.7695 0 22.0205 -9.66016 22.0205 -22.29c0 -13.6797 -11.9297 -25.8594 -25.2295 -25.8594c-13.0801 0 -22.5703 9.96973 -22.5703 22.5195c0 14.0195 12.2695 25.6299 25.7793 25.6299zM558.922 832.47
c12.7695 0 22.0303 -9.66016 22.0303 -22.29c0 -13.6797 -11.9297 -25.8594 -25.2393 -25.8594c-13.0703 0 -22.5703 9.96973 -22.5703 22.5195c0 14.0195 12.2695 25.6299 25.7793 25.6299zM671.843 700.819l-87.1299 -494.16
c-28.8896 -163.85 -160.06 -217.659 -268.79 -217.659c-98.8604 0 -203.37 45.4502 -203.37 172.67c0 14.8496 1.41992 30.7998 4.43945 47.9297l86.6201 491.22h42.0801l-87.1299 -494.16c-2.59961 -14.7197 -3.81934 -28.3496 -3.81934 -40.9492
c0 -103.12 81.7998 -137.601 162.63 -137.601c94.3096 0 201.93 46.2803 225.77 181.49l86.6201 491.22h42.0801z" />
    <glyph glyph-name="Ugrave" unicode="&#xd9;" horiz-adv-x="628" 
d="M495.17 785.32h-31.21l-48.2598 114.39h49.4697zM671.84 700.82l-87.1299 -494.16c-28.8896 -163.85 -160.06 -217.659 -268.79 -217.659c-98.8604 0 -203.37 45.4502 -203.37 172.67c0 14.8496 1.41992 30.7998 4.43945 47.9297l86.6201 491.22h42.0801
l-87.1299 -494.16c-2.59961 -14.7197 -3.81934 -28.3496 -3.81934 -40.9492c0 -103.12 81.7998 -137.601 162.63 -137.601c94.3096 0 201.93 46.2803 225.77 181.49l86.6201 491.22h42.0801z" />
    <glyph glyph-name="Uhungarumlaut" unicode="&#x170;" horiz-adv-x="658" 
d="M424.05 785.18h-32.0508l69.1104 114.67h49.6504zM532.979 785.18h-32.0498l69.0996 114.67h49.6602zM671.84 700.819l-87.1299 -494.16c-28.8896 -163.85 -160.06 -217.659 -268.79 -217.659c-98.8604 0 -203.37 45.4502 -203.37 172.67
c0 14.8496 1.41992 30.7998 4.43945 47.9297l86.6201 491.22h42.0801l-87.1299 -494.16c-2.59961 -14.7197 -3.81934 -28.3496 -3.81934 -40.9492c0 -103.12 81.7998 -137.601 162.63 -137.601c94.3096 0 201.93 46.2803 225.77 181.49l86.6201 491.22h42.0801z" />
    <glyph glyph-name="Umacron" unicode="&#x16a;" horiz-adv-x="658" 
d="M588.67 815.59h-228.211l5.03027 28.5098h228.2zM671.839 700.82l-87.1299 -494.16c-28.8896 -163.85 -160.06 -217.659 -268.79 -217.659c-98.8604 0 -203.37 45.4502 -203.37 172.67c0 14.8496 1.41992 30.7998 4.43945 47.9297l86.6201 491.22h42.0801
l-87.1299 -494.16c-2.59961 -14.7197 -3.81934 -28.3496 -3.81934 -40.9492c0 -103.12 81.7998 -137.601 162.63 -137.601c94.3096 0 201.93 46.2803 225.77 181.49l86.6201 491.22h42.0801z" />
    <glyph glyph-name="Uogonek" unicode="&#x172;" horiz-adv-x="658" 
d="M689.01 700.82l-87.1318 -494.16c-25.3701 -143.84 -130.53 -199.64 -221.87 -212.659c-79.5996 -52 -93.8096 -89 -97.9092 -110c-1.00977 -5.45996 -1.49023 -10.5195 -1.49023 -15.1895c0 -32.0898 22.54 -45.8096 52 -45.8096c33.5801 0 65.21 16 88.7295 45
l21.9502 -14c-29.3096 -37 -73.2295 -56 -114.72 -56c-41.0801 0 -80.3799 20.7998 -80.3799 69.5498c0 5.75977 0.549805 11.8994 1.70996 18.4492c3.16992 19 15.1504 55 83.96 104c-26.0996 -1 -49.5 2 -71.1797 8c-72.5703 18 -132.931 67.5898 -132.931 164.01
c0 14.75 1.41016 30.5898 4.41016 47.5898l86.6104 491.22h42.0898l-87.1396 -494.16c-2.58984 -14.7197 -3.80957 -28.3496 -3.80957 -40.9492c0 -103.12 81.7998 -137.601 162.62 -137.601c94.3203 0 201.94 46.2803 225.78 181.49l86.6104 491.22h42.0898z" />
    <glyph glyph-name="Uring" unicode="&#x16e;" horiz-adv-x="628" 
d="M476.35 946.3c56.4805 0 98.21 -43.3408 98.21 -97.9707c0 -67.8496 -66.1504 -130.81 -133.12 -130.81c-56.6504 0 -98.1904 43.7402 -98.1904 98.1201c0 68.4697 66.6201 130.66 133.101 130.66zM476.519 916.469c-54.5098 0 -104.851 -46.9307 -104.851 -102.69
c0 -38.9404 27.9902 -67.2803 69.4502 -67.2803c53.2803 0 104.11 46.8301 104.11 103.23c0 38.54 -27.9297 66.7402 -68.71 66.7402zM671.838 700.817l-87.1299 -494.16c-28.8896 -163.85 -160.06 -217.659 -268.79 -217.659c-98.8604 0 -203.37 45.4502 -203.37 172.67
c0 14.8496 1.41992 30.7998 4.43945 47.9297l86.6201 491.22h42.0801l-87.1299 -494.16c-2.59961 -14.7197 -3.81934 -28.3496 -3.81934 -40.9492c0 -103.12 81.7998 -137.601 162.63 -137.601c94.3096 0 201.93 46.2803 225.77 181.49l86.6201 491.22h42.0801z" />
    <glyph glyph-name="V" unicode="V" horiz-adv-x="563" 
d="M298.07 0h-56.6709l-99.0498 700h42.3203l91.9102 -650.49l321.99 650.49h43.7002z" />
    <glyph glyph-name="W" unicode="W" horiz-adv-x="794" 
d="M582.76 0h-51.5908l-26.8096 601.45l-239.46 -601.45h-51.5498l-53.9004 700h44.0996l45.2803 -639.27l251.2 639.27h41.8301l25.1104 -640.13l268.8 640.13h46.0303z" />
    <glyph glyph-name="Wacute" unicode="&#x1e82;" horiz-adv-x="794" 
d="M554.53 784.36h-33.1699l70.3398 114.39h51.4404zM582.771 0h-51.5996l-26.8096 601.45l-239.45 -601.45h-51.5596l-53.8896 700h44.0996l45.2803 -639.27l251.19 639.27h41.8398l25.0996 -640.13l268.81 640.13h46.0195z" />
    <glyph glyph-name="Wcircumflex" unicode="&#x174;" horiz-adv-x="794" 
d="M688.71 770.14h-45.4395l-87.7402 111.54l-132.03 -111.54h-47.04l158.91 134.84h46.71zM582.761 -0h-51.5908l-26.8096 601.45l-239.46 -601.45h-51.5498l-53.9004 700h44.0996l45.2803 -639.27l251.2 639.27h41.8301l25.1104 -640.13l268.8 640.13h46.0303z" />
    <glyph glyph-name="Wdieresis" unicode="&#x1e84;" horiz-adv-x="794" 
d="M462.49 857.37c12.7695 0 22.0205 -9.66895 22.0205 -22.2891c0 -13.6797 -11.9199 -25.8701 -25.2295 -25.8701c-13.0703 0 -22.5605 9.96973 -22.5605 22.5195c0 14.0195 12.2598 25.6396 25.7695 25.6396zM630.441 857.371
c12.7695 0 22.0303 -9.66895 22.0303 -22.2891c0 -13.6797 -11.9297 -25.8701 -25.2295 -25.8701c-13.0801 0 -22.5703 9.96973 -22.5703 22.5195c0 14.0195 12.2598 25.6396 25.7695 25.6396zM582.752 0.00195312h-51.5908l-26.8096 601.45l-239.46 -601.45h-51.5498
l-53.9004 700h44.0996l45.2803 -639.27l251.2 639.27h41.8301l25.1104 -640.13l268.8 640.13h46.0303z" />
    <glyph glyph-name="Wgrave" unicode="&#x1e80;" horiz-adv-x="794" 
d="M557.35 785.17h-31.21l-48.2402 114.39h49.4502zM582.76 -0h-51.5996l-26.8096 601.45l-239.45 -601.45h-51.5596l-53.8896 700h44.0996l45.2803 -639.27l251.19 639.27h41.8398l25.0996 -640.13l268.81 640.13h46.0195z" />
    <glyph glyph-name="X" unicode="X" horiz-adv-x="602" 
d="M393.69 363.58l171.99 -363.58h-49.5l-156.72 328.41l-271.66 -328.41h-52.5801l302.25 363.59l-159.33 336.41h47.5898l143.43 -305.09l252 305.09h51.5303z" />
    <glyph glyph-name="Y" unicode="Y" horiz-adv-x="566" 
d="M365.59 349.14l-62.0693 -349.14h-42.0898l61.7305 347.22l-163.48 352.78h47.5498l142.72 -309.24l252.71 309.24h51.5596z" />
    <glyph glyph-name="Yacute" unicode="&#xdd;" horiz-adv-x="566" 
d="M411 784.61h-33.1699l70.3398 114.39h51.4404zM365.58 349.141l-62.0693 -349.14h-42.0898l61.7305 347.22l-163.48 352.78h47.5596l142.71 -309.24l252.72 309.24h51.5498z" />
    <glyph glyph-name="Ycircumflex" unicode="&#x176;" horiz-adv-x="566" 
d="M574.73 770.14h-45.4395l-87.7402 111.54l-132.03 -111.54h-47.04l158.91 134.84h46.71zM365.581 349.14l-62.0693 -349.14h-42.0898l61.7305 347.22l-163.48 352.78h47.5596l142.71 -309.24l252.72 309.24h51.5498z" />
    <glyph glyph-name="Ydieresis" unicode="&#x178;" horiz-adv-x="566" 
d="M348.52 857.37c12.7695 0 22.0303 -9.66895 22.0303 -22.2988c0 -13.6699 -11.9297 -25.8604 -25.2393 -25.8604c-13.0703 0 -22.5703 9.96973 -22.5703 22.5195c0 14.0195 12.2695 25.6396 25.7793 25.6396zM516.48 857.371
c12.7695 0 22.0205 -9.66992 22.0205 -22.2998c0 -13.6797 -11.9297 -25.8594 -25.2295 -25.8594c-13.0801 0 -22.5703 9.96973 -22.5703 22.5195c0 14.0195 12.2695 25.6396 25.7793 25.6396zM365.592 349.142l-62.0693 -349.15h-42.0898l61.7305 347.23l-163.48 352.77
h47.5498l142.72 -309.23l252.71 309.23h51.5596z" />
    <glyph glyph-name="Ygrave" unicode="&#x1ef2;" horiz-adv-x="566" 
d="M460.68 785.32h-31.2109l-48.2695 114.39h49.4805zM365.589 349.141l-62.0693 -349.14h-42.0898l61.7305 347.22l-163.48 352.78h47.5498l142.72 -309.24l252.71 309.24h51.5596z" />
    <glyph glyph-name="Z" unicode="Z" horiz-adv-x="588" 
d="M650.18 668.55l-536.25 -629.621h430.56l-6.87012 -38.9297h-486.86l5.03027 31.4404l536.25 629.62h-401.3l6.86035 38.9404h457.61z" />
    <glyph glyph-name="Zacute" unicode="&#x179;" horiz-adv-x="588" 
d="M441.8 784.61h-33.1699l70.3398 114.39h51.4297zM650.18 668.551l-536.259 -629.621h430.56l-6.86035 -38.9297h-486.86l5.01953 31.4404l536.26 629.62h-401.31l6.87012 38.9404h457.6z" />
    <glyph glyph-name="Zcaron" unicode="&#x17d;" horiz-adv-x="588" 
d="M458.09 773.57h-46.7197l-111.36 134.84h45.04l91.6797 -111.54l128.09 111.54h47.4502zM650.17 668.551l-536.25 -629.621h430.56l-6.87012 -38.9297h-486.86l5.03027 31.4404l536.25 629.62h-401.3l6.86035 38.9404h457.61z" />
    <glyph glyph-name="Zdotaccent" unicode="&#x17b;" horiz-adv-x="588" 
d="M452.4 857.92c12.7695 0 22.0205 -9.66992 22.0205 -22.2998c0 -13.6797 -11.9199 -25.8594 -25.2295 -25.8594c-13.0703 0 -22.5605 9.96973 -22.5605 22.5195c0 14.0195 12.2598 25.6396 25.7695 25.6396zM650.182 668.55l-536.259 -629.621h430.56l-6.86035 -38.9297
h-486.86l5.01953 31.4404l536.26 629.62h-401.31l6.87012 38.9404h457.6z" />
    <glyph glyph-name="a" unicode="a" 
d="M436.92 0h-34.8604l4.92969 25.1797c-48.3896 -23.6201 -103.819 -34.1797 -153.14 -34.1797c-90.5498 0 -170.569 34.6201 -170.569 131.53c0 11.3701 1.09961 23.5898 3.40918 36.7197l32.1797 182.49c22.7695 129.11 119.14 167.891 214.77 167.94
c54.6104 0.00976562 110.681 -15.1807 150.4 -33.6309l6.24023 24.9502h34.9805zM405.149 59.3604l70.6016 385.97c-31.0596 15.9502 -84.8496 29.4697 -137.42 29.4697c-83.1904 0 -161.04 -34 -179.34 -137.82l-32.0703 -181.64
c-1.7002 -9.76953 -2.52051 -18.8994 -2.52051 -27.4297c0 -73 59.8896 -101.58 134.279 -101.58c50.8496 0 104.01 12.7305 146.47 33.0303z" />
    <glyph glyph-name="a.ss01" horiz-adv-x="512" 
d="M185.84 443.76l-20.1729 27.9326c35.8604 22.9404 84.8506 37.71 152.19 37.8096c149.59 0.0996094 183.07 -62.6602 183.07 -136.11c0 -24.7305 -3.7998 -50.6709 -8.22949 -75.8311l-52.8604 -300.18h-34.8496l4.92969 25.6104c-48.3896 -24 -103.819 -34 -153.14 -34
c-100.51 1.78027 -181.38 34.96 -181.38 135.92c0 12.4297 1.21973 25.8896 3.79004 40.4492c23.9404 135.79 132.23 168.59 247.471 168.59c40.1396 0 84.6797 -4.48047 128.71 -8.66016c2.62012 15.3203 4.5 30.6699 4.5 45.3604
c0 56.2998 -27.5098 102.76 -144.85 102.76c-55.8799 0 -97.9395 -11.9502 -129.18 -29.6504zM408.237 57.9424l43.8311 233.87c-40.21 5.37012 -82.3799 9.65039 -121.28 9.65039c-102.45 0 -193.94 -29.2002 -213.761 -141.601
c-1.98047 -11.2598 -2.93066 -21.6699 -2.93066 -31.29c0 -79.2803 64.6904 -104.44 148.051 -104.44c50.5596 0 104.05 13.2305 146.09 33.8105z" />
    <glyph glyph-name="aacute" unicode="&#xe1;" 
d="M351.83 585.61h-33.1592l70.3398 114.39h51.4297zM436.921 0h-34.8516l4.91992 25.1797c-48.3896 -23.6201 -103.81 -34.1797 -153.13 -34.1797c-90.5596 0 -170.579 34.6201 -170.579 131.53c0 11.3701 1.09961 23.5898 3.41992 36.7197l32.1797 182.49
c22.7598 129.11 119.14 167.891 214.77 167.94c54.6104 0.00976562 110.681 -15.1807 150.4 -33.6309l6.23047 24.9502h34.9805zM405.149 59.3604l70.6084 385.97c-31.0596 15.9502 -84.8594 29.4697 -137.43 29.4697c-83.1797 0 -161.029 -34 -179.339 -137.82
l-32.0596 -181.64c-1.70996 -9.76953 -2.51953 -18.8994 -2.51953 -27.4297c0 -73 59.8896 -101.58 134.27 -101.58c50.8496 0 104.02 12.7305 146.47 33.0303z" />
    <glyph glyph-name="abreve" unicode="&#x103;" 
d="M477.06 707.33l27.6895 -2.94141c-12.3096 -69.7695 -75.1299 -121.63 -140.39 -121.63c-60.6396 0 -104.38 43.6104 -104.38 102.561c0 7.12988 0.639648 14.4795 1.96973 22.0098l27.4805 -2.92969c-0.740234 -4.7998 -1.11035 -9.62988 -1.11035 -14.4297
c0 -40.0596 25.7402 -77.8496 75.7803 -77.8496c57.8896 0 104.05 50.2998 112.96 95.21zM436.929 -0.000976562h-34.8604l4.92969 25.1797c-48.3896 -23.6201 -103.819 -34.1797 -153.14 -34.1797c-90.5498 0 -170.569 34.6201 -170.569 131.53
c0 11.3701 1.09961 23.5898 3.40918 36.7197l32.1797 182.49c22.7695 129.11 119.14 167.891 214.77 167.94c54.6104 0.00976562 110.681 -15.1807 150.4 -33.6309l6.24023 24.9502h34.9805zM405.158 59.3594l70.6016 385.97
c-31.0596 15.9502 -84.8496 29.4697 -137.42 29.4697c-83.1904 0 -161.04 -34 -179.34 -137.82l-32.0703 -181.64c-1.7002 -9.76953 -2.52051 -18.8994 -2.52051 -27.4297c0 -73 59.8896 -101.58 134.279 -101.58c50.8496 0 104.01 12.7305 146.47 33.0303z" />
    <glyph glyph-name="acaron" unicode="&#x1ce;" 
d="M386.51 574.57h-46.7305l-111.36 134.84h45.04l91.6904 -111.54l128.08 111.54h47.4502zM436.909 0h-34.8516l4.91992 25.1797c-48.3896 -23.6201 -103.81 -34.1797 -153.13 -34.1797c-90.5596 0 -170.579 34.6201 -170.579 131.53
c0 11.3701 1.09961 23.5898 3.41992 36.7197l32.1797 182.49c22.7598 129.11 119.14 167.891 214.77 167.94c54.6104 0.00976562 110.681 -15.1807 150.4 -33.6309l6.23047 24.9502h34.9805zM405.138 59.3604l70.6084 385.97
c-31.0596 15.9502 -84.8594 29.4697 -137.43 29.4697c-83.1797 0 -161.029 -34 -179.339 -137.82l-32.0596 -181.64c-1.70996 -9.76953 -2.51953 -18.8994 -2.51953 -27.4297c0 -73 59.8896 -101.58 134.27 -101.58c50.8496 0 104.02 12.7305 146.47 33.0303z" />
    <glyph glyph-name="acircumflex" unicode="&#xe2;" 
d="M515.56 571.14h-45.4297l-87.75 111.54l-132.03 -111.54h-47.0303l158.91 134.84h46.71zM436.92 -0h-34.8604l4.92969 25.1797c-48.3896 -23.6201 -103.819 -34.1797 -153.14 -34.1797c-90.5498 0 -170.569 34.6201 -170.569 131.53
c0 11.3701 1.09961 23.5898 3.40918 36.7197l32.1797 182.49c22.7695 129.11 119.14 167.891 214.77 167.94c54.6104 0.00976562 110.681 -15.1807 150.4 -33.6309l6.24023 24.9502h34.9805zM405.149 59.3604l70.6016 385.97
c-31.0596 15.9502 -84.8496 29.4697 -137.42 29.4697c-83.1904 0 -161.04 -34 -179.34 -137.82l-32.0703 -181.64c-1.7002 -9.76953 -2.52051 -18.8994 -2.52051 -27.4297c0 -73 59.8896 -101.58 134.279 -101.58c50.8496 0 104.01 12.7305 146.47 33.0303z" />
    <glyph glyph-name="adieresis" unicode="&#xe4;" 
d="M289.35 658.37c12.7695 0 22.0205 -9.66992 22.0205 -22.2998c0 -13.6797 -11.9297 -25.8594 -25.2295 -25.8594c-13.0801 0 -22.5703 9.96973 -22.5703 22.5195c0 14.0195 12.2695 25.6396 25.7793 25.6396zM457.301 658.36c12.7598 0 22.0205 -9.66016 22.0205 -22.29
c0 -13.6797 -11.9297 -25.8594 -25.2295 -25.8594c-13.0801 0 -22.5703 9.96973 -22.5703 22.5195c0 14.0195 12.2695 25.6299 25.7793 25.6299zM436.912 -0.00976562l-34.8516 -0.000976562l4.91992 25.1904c-48.3896 -23.6299 -103.81 -34.1895 -153.13 -34.1895
c-90.5596 0 -170.579 34.6299 -170.579 131.53c0 11.3701 1.09961 23.6006 3.41992 36.7207l32.1797 182.5c22.7598 129.1 119.14 167.89 214.77 167.93c54.6104 0.0195312 110.681 -15.1807 150.4 -33.6309l6.23047 24.9502h34.9805zM405.141 59.3594l70.6084 385.961
c-31.0596 15.96 -84.8594 29.4795 -137.43 29.4795c-83.1797 0 -161.029 -34 -179.339 -137.82l-32.0596 -181.65c-1.70996 -9.75977 -2.51953 -18.8994 -2.51953 -27.4297c0 -73 59.8896 -101.57 134.27 -101.57c50.8496 0 104.02 12.7305 146.47 33.0303z" />
    <glyph glyph-name="agrave" unicode="&#xe0;" 
d="M410.92 585.61h-31.21l-48.25 114.39h49.46zM436.92 0h-34.8604l4.92969 25.1797c-48.3896 -23.6201 -103.819 -34.1797 -153.14 -34.1797c-90.5498 0 -170.569 34.6201 -170.569 131.53c0 11.3701 1.09961 23.5898 3.40918 36.7197l32.1797 182.49
c22.7695 129.11 119.14 167.891 214.77 167.94c54.6104 0.00976562 110.681 -15.1807 150.4 -33.6309l6.24023 24.9502h34.9805zM405.149 59.3604l70.6016 385.97c-31.0596 15.9502 -84.8496 29.4697 -137.42 29.4697c-83.1904 0 -161.04 -34 -179.34 -137.82
l-32.0703 -181.64c-1.7002 -9.76953 -2.52051 -18.8994 -2.52051 -27.4297c0 -73 59.8896 -101.58 134.279 -101.58c50.8496 0 104.01 12.7305 146.47 33.0303z" />
    <glyph glyph-name="amacron" unicode="&#x101;" 
d="M481.9 619h-228.199l5.01953 28.5098h228.21zM436.921 0h-34.8604l4.92969 25.1797c-48.3896 -23.6201 -103.819 -34.1797 -153.14 -34.1797c-90.5498 0 -170.569 34.6201 -170.569 131.53c0 11.3701 1.09961 23.5898 3.40918 36.7197l32.1797 182.49
c22.7695 129.11 119.14 167.891 214.77 167.94c54.6104 0.00976562 110.681 -15.1807 150.4 -33.6309l6.24023 24.9502h34.9805zM405.15 59.3604l70.6016 385.97c-31.0596 15.9502 -84.8496 29.4697 -137.42 29.4697c-83.1904 0 -161.04 -34 -179.34 -137.82
l-32.0703 -181.64c-1.7002 -9.76953 -2.52051 -18.8994 -2.52051 -27.4297c0 -73 59.8896 -101.58 134.279 -101.58c50.8496 0 104.01 12.7305 146.47 33.0303z" />
    <glyph glyph-name="aogonek" unicode="&#x105;" 
d="M86.6904 159.25l32.1768 182.49c22.7598 129.1 119.14 167.89 214.77 167.93c54.6104 0.0195312 110.681 -15.1807 150.4 -33.6309l6.23047 24.9502h34.9805l-89.0996 -506l-10.71 -6c-59.6699 -44 -71.46 -75 -75.1396 -94
c-1 -5.58984 -1.48047 -10.7402 -1.48047 -15.4805c0 -32.5801 22.5303 -45.6396 51.9707 -46.5195c33.6104 0 65.2402 17 88.7598 45l21.9404 -13c-29.2695 -37 -73.1992 -57 -114.739 -57c-41.0703 0 -80.3506 21.5996 -80.3506 69.7998
c0 5.69043 0.549805 11.7607 1.70996 18.2012c3.2002 19 15.3604 56 83.1006 104.97l5.78027 24.2197c-48.3896 -23.6201 -103.819 -34.1797 -153.14 -34.1797c-90.5498 0 -170.569 34.6201 -170.569 131.53c0 11.3701 1.09961 23.5898 3.40918 36.7197zM405.137 59.3506
l70.6084 385.97c-31.0596 15.9502 -84.8594 29.4697 -137.43 29.4697c-83.1797 0 -161.029 -34 -179.339 -137.82l-32.0596 -181.64c-1.70996 -9.76953 -2.51953 -18.8994 -2.51953 -27.4297c0 -73 59.8896 -101.58 134.27 -101.58c50.8496 0 104.02 12.7305 146.47 33.0303
z" />
    <glyph glyph-name="aring" unicode="&#xe5;" 
d="M387.93 747.3c56.4697 0 98.2002 -43.3301 98.2002 -97.96c0 -67.8604 -66.1504 -130.82 -133.12 -130.82c-56.6504 0 -98.1807 43.75 -98.1807 98.1201c0 68.4697 66.6201 130.66 133.101 130.66zM388.09 717.47c-54.5098 0 -104.841 -46.9307 -104.841 -102.69
c0 -38.9404 27.9805 -67.2803 69.4502 -67.2803c53.2803 0 104.11 46.8301 104.11 103.23c0 38.5498 -27.9297 66.7402 -68.7197 66.7402zM436.909 -0.000976562h-34.8516l4.91992 25.1797c-48.3896 -23.6201 -103.81 -34.1797 -153.13 -34.1797
c-90.5596 0 -170.579 34.6201 -170.579 131.53c0 11.3701 1.09961 23.5898 3.41992 36.7197l32.1797 182.49c22.7598 129.11 119.14 167.891 214.77 167.94c54.6104 0.00976562 110.681 -15.1807 150.4 -33.6309l6.23047 24.9502h34.9805zM405.138 59.3594l70.6084 385.97
c-31.0596 15.9502 -84.8594 29.4697 -137.43 29.4697c-83.1797 0 -161.029 -34 -179.339 -137.82l-32.0596 -181.64c-1.70996 -9.76953 -2.51953 -18.8994 -2.51953 -27.4297c0 -73 59.8896 -101.58 134.27 -101.58c50.8496 0 104.02 12.7305 146.47 33.0303z" />
    <glyph glyph-name="atilde" unicode="&#xe3;" 
d="M222.31 611.12l-14.3809 24.8799c35.6299 31.75 72.7803 51.7803 105.021 51.7803c54.0996 0 89.0898 -42.9102 134.74 -42.9102c24.8301 0 53.2402 14.0303 76.1006 34.6299l13.5 -25.7002c-27.96 -22.3096 -62.04 -38.9297 -90 -38.9297
c-54.0996 0 -89.2393 41.2002 -136.22 41.2002c-28.29 0 -59.4004 -16.6299 -88.7607 -44.9502zM436.919 0h-34.8604l4.92969 25.1797c-48.3896 -23.6201 -103.819 -34.1797 -153.14 -34.1797c-90.5498 0 -170.569 34.6201 -170.569 131.53
c0 11.3701 1.09961 23.5898 3.40918 36.7197l32.1797 182.49c22.7695 129.11 119.14 167.891 214.77 167.94c54.6104 0.00976562 110.681 -15.1807 150.4 -33.6309l6.24023 24.9502h34.9805zM405.148 59.3604l70.6016 385.97
c-31.0596 15.9502 -84.8496 29.4697 -137.42 29.4697c-83.1904 0 -161.04 -34 -179.34 -137.82l-32.0703 -181.64c-1.7002 -9.76953 -2.52051 -18.8994 -2.52051 -27.4297c0 -73 59.8896 -101.58 134.279 -101.58c50.8496 0 104.01 12.7305 146.47 33.0303z" />
    <glyph glyph-name="ae" unicode="&#xe6;" horiz-adv-x="827" 
d="M524.65 501l-12.0498 -66.1309c37.71 49.6904 98.0801 75.0908 168.17 75.1006c100.25 0.0898438 157.46 -50.1602 157.46 -130.5c0 -14.4004 -1.83984 -29.7705 -5.59961 -45.9902c-22.9199 -99.0195 -107.63 -134.989 -196.33 -134.989
c-52.4102 0 -106.21 12.5498 -149.49 32.0898l-17.4805 -91.8203c-1.83008 -10.4102 -2.73047 -20.04 -2.73047 -28.9199c0 -61.3799 42.75 -86.7998 112.21 -86.7998c59.3701 0 111.851 15.96 158.49 43.2295l20.0303 -26.0098
c-51.9697 -32.8398 -112.25 -51.2598 -181.09 -51.2598c-64.0596 0 -110.25 19.3604 -129.69 59.9404l-9.63965 -48.9404h-34.8496l4.92969 25.1797c-48.3896 -23.6201 -103.819 -34.1797 -153.14 -34.1797c-90.5498 0 -170.569 34.6201 -170.569 131.53
c0 11.3701 1.09961 23.5898 3.40918 36.7197l32.1797 182.49c22.7695 129.11 119.14 167.891 214.77 167.94c54.6104 0.00976562 110.681 -15.1807 150.4 -33.6309l6.24023 24.9502h34.3701zM405.141 59.3594l70.6084 385.97
c-31.0596 15.9502 -84.8594 29.4697 -137.43 29.4697c-83.1797 0 -161.029 -34 -179.339 -137.82l-32.0596 -181.64c-1.70996 -9.76953 -2.51953 -18.8994 -2.51953 -27.4297c0 -73 59.8896 -101.58 134.27 -101.58c50.8496 0 104.02 12.7305 146.47 33.0303z
M505.099 336.859l-13.3203 -72.7012c30.0801 -16.3301 87.1904 -33.1104 144.21 -33.1104c70.9004 0 141.681 25.9404 160.261 110.94c2.79004 12.7002 4.16016 24.5898 4.16016 35.6201c0 61.9404 -43.2002 96.8408 -121.16 96.8408
c-90.9902 0 -158.28 -47.5996 -174.15 -137.59z" />
    <glyph glyph-name="b" unicode="b" 
d="M241.6 700l-40.1191 -220.392c44.0801 16.9404 102.811 30.0908 152.971 30.0713c86.6699 -0.0498047 164.52 -32.46 164.52 -131.06c0 -12.2305 -1.2002 -25.4805 -3.73047 -39.8203l-32.1797 -182.49c-22.3496 -126.77 -125.279 -165.31 -220.449 -165.31
c-52.0303 0 -104.011 12.1904 -143.961 35.8203l-6.48047 -26.8203h-34.9805l123.43 700h40.9805zM442.421 158.269l32.0703 181.649c2.13965 12.1602 3.15918 23.3203 3.15918 33.5508c0 77.1201 -57.9404 101.33 -128.99 101.33
c-55.2803 0 -114.17 -14.4404 -150.84 -30.4004l-70.6299 -386.07c35.3096 -20.2998 83.9697 -32 132.1 -32c85.79 0 166.521 38.5801 183.131 131.94z" />
    <glyph glyph-name="c" unicode="c" horiz-adv-x="447" 
d="M92.9102 194.48l20.1416 114.219c23.9697 135.95 115.43 201.26 223.39 201.26c54.6699 0 99.5996 -18.5 135.88 -48.1299l-29.5996 -18.9102c-32.9805 21.4805 -69.7705 31.1309 -107.181 31.1309c-85.4004 0 -161.891 -54.0098 -182.041 -168.29l-20.1396 -114.22
c-2.82031 -15.9805 -4.16992 -30.7207 -4.16992 -44.2607c0 -83.2998 50.8301 -121.08 121.95 -121.08c40.1299 0 82.1602 11.9102 122.43 33.4004l24.8301 -23.4297c-46.4805 -29.6299 -96.2002 -46.1699 -148.16 -46.1699c-96.0996 0 -162 51.6699 -162 154.28
c0 15.5596 1.50977 32.2998 4.66992 50.2002z" />
    <glyph glyph-name="cacute" unicode="&#x107;" horiz-adv-x="447" 
d="M316.67 585.61h-33.1699l70.3398 114.39h51.4404zM92.9102 194.48l20.1426 114.218c23.9697 135.94 115.43 201.261 223.399 201.261c54.6699 0 99.5898 -18.5 135.87 -48.1299l-29.5898 -18.9199c-32.9805 21.4902 -69.7705 31.1299 -107.181 31.1299
c-85.4004 0 -161.9 -54.0098 -182.051 -168.279l-20.1396 -114.22c-2.82031 -15.9805 -4.16016 -30.7305 -4.16016 -44.2705c0 -83.29 50.8203 -121.08 121.95 -121.08c40.1201 0 82.1602 11.9199 122.43 33.4004l24.8301 -23.4199
c-46.4805 -29.6299 -96.2109 -46.1797 -148.171 -46.1797c-96.0996 0 -162 51.6797 -162 154.279c0 15.5703 1.51953 32.3008 4.66992 50.2109z" />
    <glyph glyph-name="ccaron" unicode="&#x10d;" horiz-adv-x="447" 
d="M351.34 574.57h-46.7197l-111.36 134.84h45.04l91.6797 -111.54l128.09 111.54h47.4502zM92.9004 194.48l20.1426 114.218c23.9697 135.94 115.43 201.261 223.399 201.261c54.6699 0 99.5898 -18.5 135.87 -48.1299l-29.5898 -18.9199
c-32.9805 21.4902 -69.7705 31.1299 -107.181 31.1299c-85.4004 0 -161.9 -54.0098 -182.051 -168.279l-20.1396 -114.22c-2.82031 -15.9805 -4.16016 -30.7305 -4.16016 -44.2705c0 -83.29 50.8203 -121.08 121.95 -121.08c40.1201 0 82.1602 11.9199 122.43 33.4004
l24.8301 -23.4199c-46.4805 -29.6299 -96.2109 -46.1797 -148.171 -46.1797c-96.0996 0 -162 51.6797 -162 154.279c0 15.5703 1.51953 32.3008 4.66992 50.2109z" />
    <glyph glyph-name="ccedilla" unicode="&#xe7;" horiz-adv-x="447" 
d="M92.9102 194.48l20.1416 114.22c23.9697 135.95 115.43 201.26 223.39 201.26c54.6699 0 99.5996 -18.5 135.88 -48.1299l-29.5996 -18.9102c-32.9805 21.4805 -69.7705 31.1309 -107.181 31.1309c-85.4004 0 -161.891 -54.0098 -182.041 -168.29l-20.1396 -114.22
c-2.82031 -15.9805 -4.16992 -30.7207 -4.16992 -44.2607c0 -83.2998 50.8301 -121.08 121.95 -121.08c40.1299 0 82.1602 11.9102 122.43 33.4004l24.8301 -23.4297c-44.8398 -25.5703 -90.3496 -40.1807 -133.71 -44.1807c-11.9902 -1 -23.1299 -1 -34.2402 -1
l-43.1299 -43c16.3203 6 35.0605 9 51.6104 8c40.3203 -0.889648 75.9707 -20.2197 75.9707 -63.71c0 -5.09961 -0.490234 -10.5195 -1.52051 -16.2891c-12.4297 -71 -81.9297 -89 -138.87 -89c-36.04 0 -66.5498 11 -95.5303 22l14.75 26
c25.1602 -17 57.54 -22 78.3701 -23c49.1504 0 101.32 22 109.721 69c0.589844 3.41016 0.870117 6.65039 0.870117 9.7207c0 26.6201 -21.4404 40.29 -52.3906 40.29c-19.1104 0 -45.1807 -4 -85.6006 -22l-9.2002 13l68.7402 73
c-70.0801 13.7598 -115.99 63.8193 -115.99 149.419c0 15.5195 1.50977 32.21 4.66016 50.0596z" />
    <glyph glyph-name="cdotaccent" unicode="&#x10b;" horiz-adv-x="447" 
d="M337.44 658.37c12.7695 0 22.0205 -9.66992 22.0205 -22.2998c0 -13.6797 -11.9199 -25.8594 -25.2295 -25.8594c-13.0703 0 -22.5605 9.96973 -22.5605 22.5195c0 14.0195 12.2598 25.6396 25.7695 25.6396zM92.9014 194.48l20.1426 114.218
c23.9697 135.94 115.43 201.261 223.399 201.261c54.6699 0 99.5898 -18.5 135.87 -48.1299l-29.5898 -18.9199c-32.9805 21.4902 -69.7705 31.1299 -107.181 31.1299c-85.4004 0 -161.9 -54.0098 -182.051 -168.279l-20.1396 -114.22
c-2.82031 -15.9805 -4.16016 -30.7305 -4.16016 -44.2705c0 -83.29 50.8203 -121.08 121.95 -121.08c40.1201 0 82.1602 11.9199 122.43 33.4004l24.8301 -23.4199c-46.4805 -29.6299 -96.2109 -46.1797 -148.171 -46.1797c-96.0996 0 -162 51.6797 -162 154.279
c0 15.5703 1.51953 32.3008 4.66992 50.2109z" />
    <glyph glyph-name="d" unicode="d" 
d="M436.92 0h-34.8604l4.92969 25.1904c-48.3896 -23.6299 -103.819 -34.1895 -153.14 -34.1895c-90.5498 0 -170.569 34.6299 -170.569 131.53c0 11.3701 1.09961 23.6006 3.40918 36.7207l32.1797 182.5c22.9004 129.88 120.381 167.89 215.111 167.949
c52.8896 0.0195312 106.989 -14.3105 145.1 -31.251l40.3096 221.55h40.96zM405.149 59.3701l70.6016 385.961c-31.0596 15.96 -84.8496 29.4795 -137.42 29.4795c-83.1904 0 -161.04 -34 -179.34 -137.82l-32.0703 -181.65
c-1.7002 -9.75977 -2.52051 -18.8994 -2.52051 -27.4297c0 -73 59.8896 -101.57 134.279 -101.57c50.8496 0 104.01 12.7305 146.47 33.0303z" />
    <glyph glyph-name="eth" unicode="&#xf0;" horiz-adv-x="570" 
d="M594.95 687.94l-61.0605 -51.1602c32.0996 -37.71 44.9297 -86.7197 44.9297 -133.729c0 -15.5703 -1.41016 -30.9307 -4 -45.5811l-44.7402 -253.75c-21.2402 -120.46 -132.811 -215.72 -252.66 -215.72c-109.3 0 -185.6 78.0801 -185.6 181.45
c0 12.5498 1.12988 25.4795 3.45996 38.6797c20.5996 116.83 131.529 209.4 251.01 209.4c62.1504 0 134.96 -26.8096 161.36 -112.109l28.5898 156.79c2.12988 12.0801 3.34961 25.0498 3.34961 38.3594c0 37.0098 -9.4502 76.7002 -35.0898 107.58l-70.0996 -60.5
l-16.4404 18.9502l68.6602 57.75c-26.2305 23.4102 -65.04 38.4502 -119.96 38.4502c-65.9004 0 -118.54 -21.5898 -154.05 -48.3398l-22.0703 31.71c39.9297 29.3496 100.87 55.5596 176.851 55.5596c68.21 0 116.01 -19.4199 147.79 -47.9395l63.3203 53.0996z
M346.63 380.641c-101.54 0 -193.91 -79.0322 -211.59 -179.292c-1.91016 -10.8301 -2.83984 -21.4102 -2.83984 -31.6602c0 -81.8301 59 -142.6 146.66 -142.6c101.36 0 193.24 80.0703 210.9 180.141c1.59961 10.6201 2.36914 20.8799 2.36914 30.7402
c0 86.6904 -59.8799 142.671 -145.5 142.671z" />
    <glyph glyph-name="dcaron" unicode="&#x10f;" horiz-adv-x="573" 
d="M632.44 665.87l27.1602 48.5811c-5.5 3.84961 -9.63965 10.7998 -9.63965 19.25c0 14.6699 13.71 28.0703 28.1797 28.0703c15.5898 0 26.6602 -13.5703 23.8906 -29.2803c-0.480469 -2.73047 -1.73047 -6.64062 -3.74023 -10.2109l-37.6602 -56.4102h-28.1904z
M436.91 0.000976562l-34.8604 0.0107422l4.92969 25.1797c-48.3896 -23.6201 -103.819 -34.1797 -153.14 -34.1797c-90.5498 0 -170.569 34.6201 -170.569 131.53c0 11.3701 1.09961 23.5898 3.40918 36.7197l32.1797 182.49c22.9004 129.89 120.381 167.89 215.111 167.96
c52.8896 0.00976562 106.989 -14.3203 145.1 -31.2607l40.3096 221.55h40.96zM405.14 59.3721l70.6016 385.97c-31.0596 15.9502 -84.8496 29.4697 -137.42 29.4697c-83.1904 0 -161.04 -34 -179.34 -137.82l-32.0703 -181.64
c-1.7002 -9.76953 -2.52051 -18.8994 -2.52051 -27.4297c0 -73 59.8896 -101.58 134.279 -101.58c50.8496 0 104.01 12.7305 146.47 33.0303z" />
    <glyph glyph-name="dcroat" unicode="&#x111;" horiz-adv-x="523" 
d="M546 618.66l54.3584 -0.0117188l-5.01953 -28.4902h-54.3701l-104.06 -590.17h-34.8496l4.91992 25.1904c-48.3896 -23.6299 -103.81 -34.1895 -153.14 -34.1895c-90.5498 0 -170.569 34.6299 -170.569 131.53c0 11.3701 1.09961 23.6006 3.41992 36.7207l32.1797 182.5
c22.9004 129.89 120.381 167.89 215.101 167.96c52.8896 0.00976562 107 -14.3203 145.1 -31.2607l20.9502 111.73h-142.89l5.01953 28.4902h142.89l14.3398 81.3398h40.96zM405.139 59.3486l70.6123 385.971c-31.0703 15.96 -84.8604 29.4795 -137.431 29.4795
c-83.1904 0 -161.04 -34 -179.34 -137.82l-32.0703 -181.65c-1.7002 -9.75977 -2.52051 -18.8994 -2.52051 -27.4297c0 -73 59.8896 -101.58 134.279 -101.58c50.8496 0 104.02 12.7305 146.47 33.0303z" />
    <glyph glyph-name="e" unicode="e" horiz-adv-x="481" 
d="M84.0996 144.52l33.6328 190.781c19.8896 112.77 103.88 174.659 216.99 174.659c100.25 0.0996094 157.46 -50.1602 157.46 -130.49c0 -14.4004 -1.83984 -29.7705 -5.59961 -45.9902c-22.9004 -98.9502 -107.811 -134.88 -196.671 -134.88
c-52.5898 0 -106.57 12.5801 -149.9 32.1396l-16.7402 -91.9805c-1.83008 -10.4102 -2.73047 -20.04 -2.73047 -28.9199c0 -61.3799 42.75 -86.7998 112.21 -86.7998c59.3799 0 111.85 15.96 158.489 43.2295l20.04 -26.0098
c-51.9697 -32.8398 -112.26 -51.2598 -181.09 -51.2598c-94.7305 0 -149.32 42.5 -149.32 120.71c0 10.9102 1.05957 22.5205 3.22949 34.8105zM158.162 336.561l-13.3203 -72.7002c30.0801 -16.3301 87.1904 -33.1104 144.21 -33.1104
c70.9004 0 141.681 25.9404 160.261 110.95c2.79004 12.7002 4.16016 24.5898 4.16016 35.6201c0 61.9404 -43.2002 96.8301 -121.17 96.8301c-90.9805 0 -158.271 -47.5996 -174.141 -137.59z" />
    <glyph glyph-name="e.ss01" horiz-adv-x="481" 
d="M84.0996 144.52l33.6211 190.782c19.8799 112.77 103.87 174.659 216.99 174.659c102.48 0.0996094 155.62 -50.8906 155.62 -134.371c0 -12.8096 -1.25 -26.3799 -3.76953 -40.6602l-17.0498 -96.7305h-328.7l-17.54 -99.4404
c-1.83008 -10.4102 -2.73047 -20.04 -2.73047 -28.9199c0 -61.3799 42.75 -86.7998 112.21 -86.7998c59.3799 0 111.85 15.96 158.489 43.2295l20.04 -26.0098c-51.9697 -32.8398 -112.26 -51.2598 -181.09 -51.2598c-94.7305 0 -149.32 42.5 -149.32 120.71
c0 10.9102 1.05957 22.5205 3.22949 34.8105zM435.771 269.542l12.3193 69.8906c2.13965 12.1396 3.13965 23.2695 3.13965 33.4697c0 78.8701 -60.0098 101.84 -118.17 101.84c-73.3799 0 -156.29 -36.8398 -174.63 -140.82l-11.3496 -64.3799h288.69z" />
    <glyph glyph-name="eacute" unicode="&#xe9;" horiz-adv-x="481" 
d="M334.86 585.61h-33.1699l70.3398 114.39h51.4404zM84.1006 144.521l33.6328 190.781c19.8896 112.77 103.88 174.659 216.99 174.659c100.25 0.0996094 157.46 -50.1602 157.46 -130.49c0 -14.4004 -1.83984 -29.7705 -5.59961 -45.9902
c-22.9004 -98.9502 -107.811 -134.88 -196.671 -134.88c-52.5898 0 -106.57 12.5801 -149.9 32.1396l-16.7402 -91.9805c-1.83008 -10.4102 -2.73047 -20.04 -2.73047 -28.9199c0 -61.3799 42.75 -86.7998 112.21 -86.7998c59.3799 0 111.85 15.96 158.489 43.2295
l20.04 -26.0098c-51.9697 -32.8398 -112.26 -51.2598 -181.09 -51.2598c-94.7305 0 -149.32 42.5 -149.32 120.71c0 10.9102 1.05957 22.5205 3.22949 34.8105zM158.163 336.562l-13.3203 -72.7002c30.0801 -16.3301 87.1904 -33.1104 144.21 -33.1104
c70.9004 0 141.681 25.9404 160.261 110.95c2.79004 12.7002 4.16016 24.5898 4.16016 35.6201c0 61.9404 -43.2002 96.8301 -121.17 96.8301c-90.9805 0 -158.271 -47.5996 -174.141 -137.59z" />
    <glyph glyph-name="ecaron" unicode="&#x11b;" horiz-adv-x="481" 
d="M369.53 574.57h-46.7207l-111.36 134.84h45.04l91.6904 -111.54l128.08 111.54h47.4502zM84.0996 144.521l33.6328 190.781c19.8896 112.77 103.88 174.659 216.99 174.659c100.25 0.0996094 157.46 -50.1602 157.46 -130.49
c0 -14.4004 -1.83984 -29.7705 -5.59961 -45.9902c-22.9004 -98.9502 -107.811 -134.88 -196.671 -134.88c-52.5898 0 -106.57 12.5801 -149.9 32.1396l-16.7402 -91.9805c-1.83008 -10.4102 -2.73047 -20.04 -2.73047 -28.9199c0 -61.3799 42.75 -86.7998 112.21 -86.7998
c59.3799 0 111.85 15.96 158.489 43.2295l20.04 -26.0098c-51.9697 -32.8398 -112.26 -51.2598 -181.09 -51.2598c-94.7305 0 -149.32 42.5 -149.32 120.71c0 10.9102 1.05957 22.5205 3.22949 34.8105zM158.162 336.562l-13.3203 -72.7002
c30.0801 -16.3301 87.1904 -33.1104 144.21 -33.1104c70.9004 0 141.681 25.9404 160.261 110.95c2.79004 12.7002 4.16016 24.5898 4.16016 35.6201c0 61.9404 -43.2002 96.8301 -121.17 96.8301c-90.9805 0 -158.271 -47.5996 -174.141 -137.59z" />
    <glyph glyph-name="ecircumflex" unicode="&#xea;" horiz-adv-x="481" 
d="M498.59 571.13h-45.4395l-87.7402 111.54l-132.03 -111.54h-47.04l158.91 134.84h46.71zM84.1006 144.52l33.6328 190.77c19.8896 112.78 103.88 174.66 216.99 174.67c100.25 0.0898438 157.46 -50.1602 157.46 -130.5c0 -14.4004 -1.83984 -29.7705 -5.59961 -45.9902
c-22.9004 -98.9502 -107.811 -134.88 -196.671 -134.88c-52.5898 0 -106.57 12.5898 -149.9 32.1396l-16.7402 -91.9697c-1.83008 -10.4102 -2.73047 -20.04 -2.73047 -28.9199c0 -61.3896 42.75 -86.8096 112.21 -86.8096c59.3799 0 111.85 15.96 158.489 43.2295
l20.04 -26.0098c-51.9697 -32.8398 -112.26 -51.2598 -181.09 -51.2598c-94.7305 0 -149.32 42.5098 -149.32 120.71c0 10.9199 1.05957 22.5303 3.22949 34.8203zM158.163 336.549l-13.3203 -72.6914c30.0801 -16.3301 87.1904 -33.1104 144.21 -33.1104
c70.9004 0 141.681 25.9404 160.261 110.94c2.79004 12.7002 4.16016 24.5898 4.16016 35.6201c0 61.9404 -43.2002 96.8408 -121.17 96.8408c-90.9805 0 -158.271 -47.5996 -174.141 -137.6z" />
    <glyph glyph-name="edieresis" unicode="&#xeb;" horiz-adv-x="481" 
d="M272.38 658.37c12.7695 0 22.0303 -9.66895 22.0303 -22.2988c0 -13.6699 -11.9297 -25.8604 -25.2393 -25.8604c-13.0703 0 -22.5703 9.96973 -22.5703 22.5195c0 14.0195 12.2695 25.6396 25.7793 25.6396zM440.341 658.371
c12.7695 0 22.0205 -9.66992 22.0205 -22.2998c0 -13.6797 -11.9297 -25.8594 -25.2295 -25.8594c-13.0801 0 -22.5703 9.96973 -22.5703 22.5195c0 14.0195 12.2695 25.6396 25.7793 25.6396zM84.1016 144.521l33.6387 190.77c19.8799 112.78 103.87 174.66 216.99 174.67
c100.24 0.0898438 157.45 -50.1602 157.45 -130.5c0 -14.4004 -1.83984 -29.7705 -5.59961 -45.9902c-22.9004 -98.9502 -107.801 -134.88 -196.661 -134.88c-52.5898 0 -106.57 12.5898 -149.9 32.1396l-16.7402 -91.9697
c-1.83984 -10.4102 -2.72949 -20.04 -2.72949 -28.9199c0 -61.3896 42.75 -86.8096 112.21 -86.8096c59.3701 0 111.851 15.96 158.49 43.2295l20.0303 -26.0098c-51.9697 -32.8398 -112.25 -51.2598 -181.09 -51.2598c-94.7197 0 -149.319 42.5098 -149.319 120.71
c0 10.9199 1.07031 22.5303 3.23047 34.8203zM158.16 336.551l-13.3203 -72.6914c30.0898 -16.3301 87.1895 -33.1104 144.22 -33.1104c70.9004 0 141.681 25.9404 160.261 110.94c2.79004 12.7002 4.16016 24.5898 4.16016 35.6201
c0 61.9404 -43.2002 96.8408 -121.17 96.8408c-90.9902 0 -158.28 -47.5996 -174.15 -137.6z" />
    <glyph glyph-name="edotaccent" unicode="&#x117;" horiz-adv-x="481" 
d="M355.63 658.37c12.7695 0 22.0303 -9.66895 22.0303 -22.2988c0 -13.6699 -11.9199 -25.8604 -25.2295 -25.8604c-13.0801 0 -22.5703 9.96973 -22.5703 22.5195c0 14.0195 12.2598 25.6396 25.7695 25.6396zM84.1006 144.521l33.6387 190.781
c19.8799 112.77 103.87 174.659 216.99 174.659c100.24 0.0996094 157.45 -50.1602 157.45 -130.49c0 -14.4004 -1.83984 -29.7705 -5.59961 -45.9902c-22.9004 -98.9502 -107.801 -134.88 -196.661 -134.88c-52.5898 0 -106.57 12.5801 -149.9 32.1396l-16.7402 -91.9805
c-1.83984 -10.4102 -2.72949 -20.04 -2.72949 -28.9199c0 -61.3799 42.75 -86.7998 112.21 -86.7998c59.3701 0 111.851 15.96 158.49 43.2295l20.0303 -26.0098c-51.9697 -32.8398 -112.25 -51.2598 -181.09 -51.2598c-94.7197 0 -149.319 42.5 -149.319 120.71
c0 10.9102 1.07031 22.5205 3.23047 34.8105zM158.159 336.562l-13.3203 -72.7002c30.0898 -16.3301 87.1895 -33.1104 144.22 -33.1104c70.9004 0 141.681 25.9404 160.261 110.95c2.79004 12.7002 4.16016 24.5898 4.16016 35.6201
c0 61.9404 -43.2002 96.8301 -121.17 96.8301c-90.9902 0 -158.28 -47.5996 -174.15 -137.59z" />
    <glyph glyph-name="egrave" unicode="&#xe8;" horiz-adv-x="481" 
d="M393.94 585.61h-31.21l-48.2402 114.39h49.4502zM84.1006 144.521l33.6328 190.781c19.8896 112.77 103.88 174.659 216.99 174.659c100.25 0.0996094 157.46 -50.1602 157.46 -130.49c0 -14.4004 -1.83984 -29.7705 -5.59961 -45.9902
c-22.9004 -98.9502 -107.811 -134.88 -196.671 -134.88c-52.5898 0 -106.57 12.5801 -149.9 32.1396l-16.7402 -91.9805c-1.83008 -10.4102 -2.73047 -20.04 -2.73047 -28.9199c0 -61.3799 42.75 -86.7998 112.21 -86.7998c59.3799 0 111.85 15.96 158.489 43.2295
l20.04 -26.0098c-51.9697 -32.8398 -112.26 -51.2598 -181.09 -51.2598c-94.7305 0 -149.32 42.5 -149.32 120.71c0 10.9102 1.05957 22.5205 3.22949 34.8105zM158.163 336.562l-13.3203 -72.7002c30.0801 -16.3301 87.1904 -33.1104 144.21 -33.1104
c70.9004 0 141.681 25.9404 160.261 110.95c2.79004 12.7002 4.16016 24.5898 4.16016 35.6201c0 61.9404 -43.2002 96.8301 -121.17 96.8301c-90.9805 0 -158.271 -47.5996 -174.141 -137.59z" />
    <glyph glyph-name="emacron" unicode="&#x113;" horiz-adv-x="481" 
d="M464.93 619h-228.211l5.03027 28.5098h228.2zM84.0986 144.52l33.6328 190.781c19.8896 112.77 103.88 174.659 216.99 174.659c100.25 0.0996094 157.46 -50.1602 157.46 -130.49c0 -14.4004 -1.83984 -29.7705 -5.59961 -45.9902
c-22.9004 -98.9502 -107.811 -134.88 -196.671 -134.88c-52.5898 0 -106.57 12.5801 -149.9 32.1396l-16.7402 -91.9805c-1.83008 -10.4102 -2.73047 -20.04 -2.73047 -28.9199c0 -61.3799 42.75 -86.7998 112.21 -86.7998c59.3799 0 111.85 15.96 158.489 43.2295
l20.04 -26.0098c-51.9697 -32.8398 -112.26 -51.2598 -181.09 -51.2598c-94.7305 0 -149.32 42.5 -149.32 120.71c0 10.9102 1.05957 22.5205 3.22949 34.8105zM158.161 336.561l-13.3203 -72.7002c30.0801 -16.3301 87.1904 -33.1104 144.21 -33.1104
c70.9004 0 141.681 25.9404 160.261 110.95c2.79004 12.7002 4.16016 24.5898 4.16016 35.6201c0 61.9404 -43.2002 96.8301 -121.17 96.8301c-90.9805 0 -158.271 -47.5996 -174.141 -137.59z" />
    <glyph glyph-name="eogonek" unicode="&#x119;" horiz-adv-x="481" 
d="M84.0996 144.52l33.6406 190.78c19.8896 112.78 103.88 174.66 216.99 174.67c100.25 0.0898438 157.46 -50.1602 157.46 -130.49c0 -14.4004 -1.83984 -29.7705 -5.59961 -45.9902c-22.9004 -98.96 -107.811 -134.89 -196.671 -134.89
c-52.5898 0 -106.56 12.5898 -149.89 32.1396l-16.7402 -91.9697c-1.83984 -10.4102 -2.72949 -20.04 -2.72949 -28.9199c0 -61.3896 42.75 -86.8096 112.21 -86.8096c59.3701 0 111.851 15.96 158.49 43.2295l20.0303 -26.0098
c-28.3701 -17.9297 -59.1699 -31.6201 -92.2803 -40.2598c-73 -51 -86.2803 -85 -90.2607 -105c-1 -5.58984 -1.48047 -10.75 -1.48047 -15.4902c0 -32.5703 22.5303 -45.6406 51.96 -46.5107c33.6104 0 65.2402 17 88.7598 45l21.9502 -13
c-29.2803 -37 -73.2002 -57 -114.74 -57c-41.0801 0 -80.3496 21.5898 -80.3496 69.79c0 5.7002 0.549805 11.7598 1.70996 18.21c3.00977 18 13.9395 51 71.7891 96c-10.5195 -1.16992 -21.0293 -1.66016 -31.3789 -1.66016c-96.2598 0 -156.05 39.2305 -156.05 120.021
c0 10.6602 1.04004 22.0498 3.17969 34.1602zM158.17 336.56l-13.3203 -72.6914c30.0801 -16.3301 87.1904 -33.1104 144.21 -33.1104c70.9004 0 141.681 25.9404 160.261 110.94c2.79004 12.7002 4.16016 24.5898 4.16016 35.6201
c0 61.9404 -43.2002 96.8408 -121.17 96.8408c-90.9805 0 -158.271 -47.5996 -174.141 -137.6z" />
    <glyph glyph-name="f" unicode="f" horiz-adv-x="297" 
d="M48.5596 -187l129.609 735.31c21.5195 122.05 105.369 162.109 178.729 162.109c14.8398 0 27.2803 -1.46973 39.9805 -3.75l-3.46973 -35.1396c-13.1299 2.19043 -26.9102 3.52051 -37.3701 2.51074c-58.2695 -1.49023 -121.21 -36.8604 -138.04 -132.2
l-7.20996 -40.8398h141.63l-6.11035 -34.6797h-141.64l-115.14 -653.32h-40.9697z" />
    <glyph glyph-name="g" unicode="g" 
d="M88.1396 167.47l31.0996 176.453c22.3604 126.77 125.29 165.029 220.46 165.029c52.0303 0 104.011 -11.9102 143.961 -35.54l6.46973 26.8203h34.9805l-96.6504 -548.23c-19.1699 -109 -95.8496 -152 -190.68 -152c-66.5 0 -122.25 18 -167.46 49l20.5801 26
c39.3096 -27 85.9092 -41 142.219 -41c80.7998 0 138.79 34 154.09 119l14.0596 76.3398c-42.6797 -18.7305 -101.569 -29.3408 -153.459 -29.3311c-91.4902 0.129883 -163.37 33.8896 -163.37 127.989c0 12.1299 1.2002 25.2695 3.7002 39.4697zM405.85 63.543
l69.2598 378.351c-35.3096 20.2998 -83.9697 32 -132.1 32c-85.79 0 -166.521 -38.5801 -183.131 -131.94l-30.7002 -173.92c-2.13965 -12.1602 -3.15918 -23.3203 -3.15918 -33.5508c0 -77.1201 57.9404 -101.33 128.99 -101.33c55.2803 0 114.17 14.4404 150.84 30.3906z
" />
    <glyph glyph-name="gbreve" unicode="&#x11f;" 
d="M475.63 707.32l27.6699 -2.92969c-12.2998 -69.7803 -75.1201 -121.641 -140.38 -121.641c-60.6396 0 -104.37 43.6104 -104.37 102.561c0 7.12988 0.639648 14.4902 1.95996 22.0205l27.4902 -2.94043c-0.740234 -4.7998 -1.11035 -9.62988 -1.11035 -14.4199
c0 -40.0703 25.7402 -77.8506 75.7803 -77.8506c57.8799 0 104.05 50.2998 112.96 95.2002zM88.1494 167.471l31.0898 176.452c22.3604 126.77 125.29 165.029 220.46 165.029c52.0303 0 104.011 -11.9102 143.961 -35.5303l6.46973 26.8203h34.9805l-96.6504 -548.24
c-19.1699 -109 -95.8496 -152 -190.68 -152c-66.5 0 -122.25 18 -167.46 49l20.5801 26c39.3096 -27 85.9092 -41 142.219 -41c80.7998 0 138.79 34 154.09 119l14.0098 76.25c-42.6797 -18.7305 -101.52 -29.25 -153.399 -29.2402
c-91.4902 0.129883 -163.37 33.8896 -163.37 127.989c0 12.1299 1.19043 25.2695 3.7002 39.4697zM405.85 63.5527l69.2598 378.351c-35.3096 20.2998 -83.9697 32 -132.1 32c-85.79 0 -166.521 -38.5801 -183.131 -131.95l-30.7002 -173.92
c-2.13965 -12.1602 -3.15918 -23.3203 -3.15918 -33.5508c0 -77.1201 57.9404 -101.33 128.99 -101.33c55.2803 0 114.17 14.4404 150.84 30.4004z" />
    <glyph glyph-name="gcommaaccent" unicode="&#x123;" 
d="M413.93 691.79l-23.709 -41.4082c4.69043 -3.53027 8.44043 -9.26074 8.44043 -16.4912c0 -11.4805 -10.71 -22.1201 -22.0898 -22.1201c-12.7998 0 -21.96 11.2998 -19.6904 24.1797c0.299805 1.66016 1.22949 4.58008 2.74902 7.58008l32.2197 48.2598h22.0801z
M88.1309 167.472l31.0986 176.461c22.3496 126.77 125.279 165.029 220.449 165.029c52.04 0 104.01 -11.9102 143.96 -35.54l6.48047 26.8203h34.9805l-96.6602 -548.23c-19.1699 -109 -95.8496 -152 -190.67 -152c-66.5098 0 -122.26 18 -167.47 49l20.5801 26
c39.3203 -27 85.9102 -41 142.23 -41c80.7998 0 138.78 34 154.09 119l14.0098 76.2402c-42.6699 -18.7197 -101.52 -29.2393 -153.409 -29.2295c-91.4902 0.120117 -163.37 33.8896 -163.37 127.979c0 12.1299 1.2002 25.2695 3.7002 39.4697zM405.84 63.5527
l69.2598 378.351c-35.3096 20.2998 -83.9697 32 -132.109 32c-85.79 0 -166.521 -38.5801 -183.12 -131.94l-30.7002 -173.92c-2.15039 -12.1602 -3.16992 -23.3203 -3.16992 -33.5508c0 -77.1201 57.9502 -101.33 129 -101.33c55.2803 0 114.16 14.4404 150.84 30.3906z
" />
    <glyph glyph-name="gdotaccent" unicode="&#x121;" 
d="M371.17 658.36c12.7695 0 22.0205 -9.66016 22.0205 -22.29c0 -13.6797 -11.9199 -25.8594 -25.2295 -25.8594c-13.0703 0 -22.5605 9.96973 -22.5605 22.5195c0 14.0195 12.2598 25.6299 25.7695 25.6299zM88.1406 167.471l31.0898 176.452
c22.3604 126.77 125.29 165.029 220.46 165.029c52.0303 0 104.011 -11.9102 143.961 -35.5303l6.46973 26.8203h34.9805l-96.6504 -548.24c-19.1699 -109 -95.8496 -152 -190.68 -152c-66.5 0 -122.25 18 -167.46 49l20.5801 26c39.3096 -27 85.9092 -41 142.219 -41
c80.7998 0 138.79 34 154.09 119l14.0596 76.25c-42.6797 -18.7305 -101.569 -29.25 -153.449 -29.2402c-91.4902 0.129883 -163.37 33.8896 -163.37 127.989c0 12.1299 1.19043 25.2695 3.7002 39.4697zM405.841 63.5527l69.2598 378.351
c-35.3096 20.2998 -83.9697 32 -132.1 32c-85.79 0 -166.521 -38.5801 -183.131 -131.95l-30.7002 -173.92c-2.13965 -12.1602 -3.15918 -23.3203 -3.15918 -33.5508c0 -77.1201 57.9404 -101.33 128.99 -101.33c55.2803 0 114.17 14.4404 150.84 30.4004z" />
    <glyph glyph-name="h" unicode="h" horiz-adv-x="533" 
d="M246.6 700l-40.3906 -222.05c47.5 22.0596 101.22 31.7295 148.77 31.7295c88.7695 0 169.21 -33.0996 169.21 -130.88c0 -11.5498 -1.12988 -24 -3.49023 -37.4102l-60.2002 -341.38h-40.96l60.5498 343.35c1.90039 10.8203 2.81055 20.8701 2.81055 30.1904
c0 74.21 -57.7998 102.11 -130.819 102.11c-51.8496 0 -106.3 -13.5898 -149.75 -33.8398l-79.1797 -441.82h-40.96l123.43 700h40.9805z" />
    <glyph glyph-name="hbar" unicode="&#x127;" horiz-adv-x="541" 
d="M239.05 611.82h210.999l-4.87012 -27.6201h-210.94l-20 -106.18c47.4902 22.0596 101.21 31.7295 148.75 31.7295c88.7803 0 169.221 -33.0996 169.221 -130.88c0 -11.5498 -1.12012 -24 -3.49023 -37.4102l-60.1904 -341.38h-40.96l60.54 343.35
c1.91016 10.8203 2.82031 20.8701 2.82031 30.1904c0 74.2197 -57.7998 102.12 -130.819 102.12c-51.8496 0 -106.3 -13.5996 -149.76 -33.8496l-79.1699 -441.82h-40.96l103 584.13h-73.3398l4.87012 27.6201h73.3398l15.5596 88.25h40.96z" />
    <glyph glyph-name="i" unicode="i" horiz-adv-x="208" 
d="M229.49 709.78c14.1396 0 22.4092 -7.91992 22.4092 -20.7695c0 -15.7598 -9.13965 -27.9502 -25.5801 -27.9502c-14.2695 0 -23.1797 8.80957 -23.1797 22.0498c0 18.0498 11.8701 26.6699 26.3506 26.6699zM127.04 0.0107422h-40.96l88.3398 500.97h40.96z" />
    <glyph glyph-name="dotlessi" unicode="&#x131;" horiz-adv-x="136" 
d="M89.2803 0.00976562h-40.96l88.3398 500.97h40.96z" />
    <glyph glyph-name="iacute" unicode="&#xed;" horiz-adv-x="137" 
d="M160.61 585.61h-33.1699l70.3398 114.39h51.4297zM89.2803 0.0107422h-40.96l88.3301 500.97h40.96z" />
    <glyph glyph-name="icaron" unicode="&#x1d0;" horiz-adv-x="136" 
d="M197.09 574.57h-46.7109l-111.4 134.84h45.4404l91.3203 -111.54l128.08 111.54h47.4502zM89.2891 0.0107422h-40.96l88.3301 500.97h40.96z" />
    <glyph glyph-name="icircumflex" unicode="&#xee;" horiz-adv-x="136" 
d="M326.15 571.14h-45.4395l-87.7402 111.54l-131.66 -111.54h-47.4199l158.92 134.84h46.71zM89.2812 0.00976562h-40.96l88.3398 500.97h40.96z" />
    <glyph glyph-name="idieresis" unicode="&#xef;" horiz-adv-x="136" 
d="M99.5098 658.37c12.7695 0 22.0205 -9.66992 22.0205 -22.2998c0 -13.6797 -11.9297 -25.8594 -25.2295 -25.8594c-13.1104 0 -22.6006 9.96973 -22.6006 22.5195c0 14.0195 12.2598 25.6396 25.8096 25.6396zM267.891 658.36c12.7695 0 22.0205 -9.66016 22.0205 -22.29
c0 -13.6797 -11.9297 -25.8594 -25.2295 -25.8594c-13.0801 0 -22.5703 9.96973 -22.5703 22.5195c0 14.0195 12.2695 25.6299 25.7793 25.6299zM89.2822 0.0107422h-40.96l88.3301 500.97h40.96z" />
    <glyph glyph-name="igrave" unicode="&#xec;" horiz-adv-x="136" 
d="M218.26 585.61h-31.21l-48.2197 114.39h49.4297zM89.29 0.0107422h-40.96l88.3301 500.97h40.96z" />
    <glyph glyph-name="ij" unicode="&#x133;" horiz-adv-x="412" 
d="M433.43 709.8c14.1504 0 22.4199 -7.93066 22.4199 -20.7803c0 -15.7598 -9.13965 -27.9502 -25.5801 -27.9502c-14.2803 0 -23.1904 8.82031 -23.1904 22.0508c0 18.0498 11.8701 26.6797 26.3506 26.6797zM229.479 709.779
c14.1504 0 22.4199 -7.91992 22.4199 -20.7695c0 -15.7598 -9.13965 -27.9502 -25.5801 -27.9502c-14.2803 0 -23.1904 8.80957 -23.1904 22.0498c0 18.0498 11.8701 26.6699 26.3506 26.6699zM419.319 500.999l-101.21 -574c-9.09961 -52 -40.5195 -97 -95.5498 -120
c-15.75 -5 -32.0498 -9 -49.8301 -11v35c17.79 2 33.6201 7 46.2402 16c37.46 19 54.0898 57 59.5195 88l99.8701 566h40.96zM127.039 0.00878906h-40.96l88.3301 500.97h40.96z" />
    <glyph glyph-name="imacron" unicode="&#x12b;" horiz-adv-x="136" 
d="M291.08 614.75h-228.58l5.03027 28.5h228.58zM89.2803 0.00976562h-40.96l88.3398 500.97h40.96z" />
    <glyph glyph-name="iogonek" unicode="&#x12f;" horiz-adv-x="136" 
d="M182.34 658.37c12.7695 0 22.0205 -9.66895 22.0205 -22.2988c0 -13.6699 -11.9199 -25.8604 -25.2295 -25.8604c-13.0703 0 -22.5703 9.96973 -22.5703 22.5195c0 14.0195 12.2695 25.6396 25.7793 25.6396zM177.311 499.271l-87.2393 -500.271
c-84.5996 -55 -99.0801 -94 -104.08 -115c-0.820312 -5.05957 -1.2207 -9.76953 -1.2207 -14.1494c0 -32.8398 22.2002 -46.8496 52.1406 -46.8496c33.5898 0 65.2197 16 88.7295 45l21.9502 -14c-29.25 -37 -73.1396 -56 -114.71 -56
c-41.0498 0 -80.5898 20.8096 -80.5898 69.5898c0 5.74023 0.549805 11.8799 1.70996 18.4102c4 19 20 64 95.2998 109l-1.12012 5.00977l88.1699 499.26h40.96z" />
    <glyph glyph-name="j" unicode="j" horiz-adv-x="204" 
d="M225.33 709.8c14.1396 0 22.4189 -7.93066 22.4189 -20.7803c0 -15.7598 -9.13965 -27.9502 -25.5801 -27.9502c-14.2695 0 -23.1797 8.82031 -23.1797 22.0508c0 18.0498 11.8604 26.6797 26.3408 26.6797zM211.229 500.999l-101.221 -574
c-9.09961 -52 -40.5195 -97 -95.5195 -120c-15.4902 -5 -32.4902 -9 -49.4902 -11v35c17 2 33 7 45.0098 15c37.8301 19 54.8105 57 60.3906 89l99.8701 566h40.96z" />
    <glyph glyph-name="k" unicode="k" horiz-adv-x="491" 
d="M168 257.1l310.371 251.641h54.6104l-240.32 -198.64l175.6 -310.1h-46.8203l-159.48 281.27l-102.89 -80.3301l-35.9199 -200.94h-40.96l123.43 700h40.9697z" />
    <glyph glyph-name="kcommaaccent" unicode="&#x137;" horiz-adv-x="491" 
d="M168 257.1l310.371 251.641h54.6104l-240.32 -198.64l175.6 -310.1h-46.8203l-159.48 281.27l-102.89 -80.3301l-35.9199 -200.94h-40.96l123.43 700h40.9697zM196.971 -189l23.7002 41c-5.49023 4 -9.69043 12 -8.10059 20c1.75 11 11.6699 19 21.7598 19
c12.7998 0 21.9502 -12 19.6807 -24c-0.290039 -2 -1.21973 -5 -2.73926 -8l-32.2305 -48h-22.0703z" />
    <glyph glyph-name="l" unicode="l" horiz-adv-x="195" 
d="M123.16 0h-40.96l123.43 700h40.96z" />
    <glyph glyph-name="lacute" unicode="&#x13a;" horiz-adv-x="195" 
d="M259.89 784.75h-33.1699l70.3398 114.39h51.4404zM123.149 0h-40.96l123.43 700h40.96z" />
    <glyph glyph-name="lcaron" unicode="&#x13e;" horiz-adv-x="259" 
d="M318.68 665.87l27.1514 48.5811c-5.49023 3.84961 -9.64062 10.7998 -9.64062 19.25c0 14.6699 13.7197 28.0703 28.1797 28.0703c15.5996 0 26.6699 -13.5703 23.9004 -29.2803c-0.480469 -2.73047 -1.73047 -6.64062 -3.74023 -10.2109l-37.6602 -56.4102h-28.1904z
M123.141 0.000976562h-40.96l123.43 700h40.96z" />
    <glyph glyph-name="lcommaaccent" unicode="&#x13c;" horiz-adv-x="195" 
d="M123.16 0h-40.96l123.43 700h40.96zM43.2197 -189l23.6992 41c-5.49023 4 -9.69043 12 -8.10059 20c1.75 11 11.6699 19 21.7598 19c12.7998 0 21.96 -12 19.6904 -24c-0.299805 -2 -1.22949 -5 -2.74902 -8l-32.2197 -48h-22.0801z" />
    <glyph glyph-name="ldot" unicode="&#x140;" horiz-adv-x="285" 
d="M123.16 0h-40.96l123.43 700h40.96zM291.271 351.64c13.9805 0 24.3203 -10.9102 24.3203 -24.4902c0 -14.8096 -13.7197 -28.21 -28.1895 -28.21c-13.9805 0 -24.3506 10.9102 -24.3506 24.4902c0 14.7998 13.75 28.21 28.2197 28.21z" />
    <glyph glyph-name="lslash" unicode="&#x142;" horiz-adv-x="327" 
d="M235.32 386.75l153.191 64.0293l10.5996 -34.5898l-170.82 -71.6699l-60.96 -344.52h-42.0898l57.7197 326.09l-117.65 -49.0596l-8.63965 34.9697l133.15 55.4199l58.8496 332.58h42.0898z" />
    <glyph glyph-name="m" unicode="m" horiz-adv-x="782" 
d="M200.21 501l-4.84082 -24.4219c49.71 22.7402 100.8 33.0605 145.51 33.1104c61.9805 0.0302734 111.801 -20.2393 130.091 -54.709c57.8301 31.1504 110.521 54.6699 169.98 54.71c78.3604 0.0703125 133.23 -44.9795 133.23 -128.89
c0 -12.3096 -1.17969 -25.46 -3.64941 -39.4297l-60.1904 -341.38h-40.7197l60.0898 340.78c2.37988 13.46 3.50977 25.8096 3.50977 37.0898c0 67.0303 -40.1396 96.0801 -98.6895 96.0801c-41.2402 0 -62.3105 -6.17969 -151.551 -47.5801
c1.32031 -4.20996 1.87012 -10.2295 1.87012 -17.3398c0 -22.75 -5.59961 -56.7305 -9.48926 -78.8008l-58.2305 -330.23h-40.7197l64.9297 368.25c1.57031 8.87012 2.32031 17.0801 2.32031 24.6699c0 59.9404 -46.6797 81.0303 -106.63 81.0303
c-50.1104 0 -103.841 -14.46 -139.961 -32.1396l-79.1602 -441.8h-40.7197l88.3398 501h34.6797z" />
    <glyph glyph-name="n" unicode="n" horiz-adv-x="528" 
d="M200.4 501l-4.97754 -25.2393c49.0498 23.5898 104.479 33.8994 153.539 33.9395c90.7998 0.0703125 170.18 -34.6699 170.18 -131.39c0 -11.4297 -1.11035 -23.7295 -3.44043 -36.9297l-60.2002 -341.38h-40.96l60.5498 343.35
c1.83008 10.4199 2.70996 20.1299 2.70996 29.1494c0 74.2002 -59.4004 102.3 -133.44 102.3c-50.9902 0 -104.44 -12.7402 -147.03 -32.9902l-79.1699 -441.81h-40.96l88.3398 501h34.8604z" />
    <glyph glyph-name="nacute" unicode="&#x144;" horiz-adv-x="528" 
d="M358.01 585.61h-33.1699l70.3398 114.39h51.4297zM200.399 501l-4.97754 -25.2393c49.0498 23.5898 104.479 33.8994 153.539 33.9395c90.7998 0.0703125 170.18 -34.6699 170.18 -131.39c0 -11.4297 -1.11035 -23.7295 -3.44043 -36.9297l-60.2002 -341.38h-40.96
l60.5498 343.35c1.83008 10.4199 2.70996 20.1299 2.70996 29.1494c0 74.2002 -59.4004 102.3 -133.44 102.3c-50.9902 0 -104.44 -12.7402 -147.03 -32.9902l-79.1699 -441.81h-40.96l88.3398 501h34.8604z" />
    <glyph glyph-name="ncaron" unicode="&#x148;" horiz-adv-x="528" 
d="M392.68 574.57h-46.7207l-111.36 134.84h45.04l91.6904 -111.54l128.08 111.54h47.4502zM200.399 501l-4.97754 -25.2393c49.0498 23.5898 104.479 33.8994 153.539 33.9395c90.7998 0.0703125 170.18 -34.6699 170.18 -131.39
c0 -11.4297 -1.11035 -23.7295 -3.44043 -36.9297l-60.2002 -341.38h-40.96l60.5498 343.35c1.83008 10.4199 2.70996 20.1299 2.70996 29.1494c0 74.2002 -59.4004 102.3 -133.44 102.3c-50.9902 0 -104.44 -12.7402 -147.03 -32.9902l-79.1699 -441.81h-40.96l88.3398 501
h34.8604z" />
    <glyph glyph-name="ncommaaccent" unicode="&#x146;" horiz-adv-x="528" 
d="M200.4 501l-4.97754 -25.2393c49.0498 23.5898 104.479 33.8994 153.539 33.9395c90.7998 0.0703125 170.18 -34.6699 170.18 -131.39c0 -11.4297 -1.11035 -23.7295 -3.44043 -36.9297l-60.2002 -341.38h-40.96l60.5498 343.35
c1.83008 10.4199 2.70996 20.1299 2.70996 29.1494c0 74.2002 -59.4004 102.3 -133.44 102.3c-50.9902 0 -104.44 -12.7402 -147.03 -32.9902l-79.1699 -441.81h-40.96l88.3398 501h34.8604zM202.553 -188.999l23.709 41c-5.49023 4 -9.69043 12 -8.10059 20
c1.75 11 11.6602 19 21.75 19c12.7998 0 21.96 -12 19.6904 -24c-0.299805 -2 -1.22949 -5 -2.74902 -8l-32.2197 -48h-22.0801z" />
    <glyph glyph-name="eng" unicode="&#x14b;" horiz-adv-x="528" 
d="M200.4 501l-4.9668 -25.2393c49.0498 23.5898 104.479 33.8994 153.539 33.9395c90.7998 0.0703125 170.18 -34.6699 170.18 -131.39c0 -11.4297 -1.11035 -23.7295 -3.44043 -36.9297l-73.7695 -418.38c-8.9502 -51 -39.3506 -94 -91.0508 -117
c-16.6299 -6 -34.5195 -12 -54.3398 -14v35c18.1396 3 33.5596 8 45.1396 16c39.0596 19 55.0898 56 60.6299 88l72.7695 412.35c1.83008 10.4199 2.70996 20.1299 2.70996 29.1494c0 74.2002 -59.4004 102.3 -133.44 102.3c-50.9902 0 -104.44 -12.7402 -147.03 -32.9902
l-79.1699 -441.81h-40.96l88.3398 501h34.8604z" />
    <glyph glyph-name="ntilde" unicode="&#xf1;" horiz-adv-x="528" 
d="M228.48 611.12l-14.3721 24.8799c35.6299 31.75 72.7803 51.7803 105.021 51.7803c54.0996 0 89.0898 -42.9102 134.74 -42.9102c24.8301 0 53.2402 14.0303 76.1006 34.6299l13.5 -25.7002c-27.96 -22.3096 -62.0498 -38.9297 -90 -38.9297
c-54.0996 0 -89.25 41.2002 -136.22 41.2002c-28.2998 0 -59.3994 -16.6299 -88.7695 -44.9502zM200.398 501l-4.97754 -25.2393c49.0596 23.5898 104.489 33.8994 153.539 33.9395c90.8096 0.0703125 170.18 -34.6699 170.18 -131.39
c0 -11.4297 -1.11035 -23.7295 -3.44043 -36.9297l-60.1904 -341.38h-40.96l60.54 343.35c1.83984 10.4199 2.71973 20.1299 2.71973 29.1494c0 74.2002 -59.4004 102.3 -133.45 102.3c-50.9902 0 -104.431 -12.7402 -147.03 -32.9902l-79.1699 -441.81h-40.96l88.3398 501
h34.8604z" />
    <glyph glyph-name="o" unicode="o" horiz-adv-x="499" 
d="M91.6602 187.43l22.5898 128.13c22.3096 126.51 100.79 196.109 224.21 196.119c105.41 0.0898438 161.49 -57.7598 161.49 -151.01c0 -15.1201 -1.48047 -31.1699 -4.4502 -48.0498l-22.5996 -128.14c-17.6299 -100 -85.5801 -194.49 -220.95 -194.49
c-117.33 0 -164.18 71.0898 -164.18 154.46c0 14.0703 1.33984 28.4902 3.88965 42.9805zM432.36 186.529l22.5889 128.14c2.61035 14.79 3.90039 28.7402 3.90039 41.7598c0 74.9805 -42.79 119.33 -122.82 119.33c-99.21 0 -162.49 -56.54 -181.12 -162.23
l-22.5996 -128.14c-2.25 -12.7695 -3.41992 -25.3496 -3.41992 -37.5098c0 -67.3701 36.1201 -121.64 125.601 -121.64c106.6 0 163.13 76.7002 177.87 160.29z" />
    <glyph glyph-name="oacute" unicode="&#xf3;" horiz-adv-x="499" 
d="M350.52 585.61h-33.1592l70.3398 114.39h51.4297zM91.6699 187.431l22.5898 128.13c22.2998 126.51 100.79 196.109 224.2 196.119c105.42 0.0898438 161.49 -57.7598 161.49 -151.01c0 -15.1201 -1.46973 -31.1699 -4.4502 -48.0498l-22.5898 -128.14
c-17.6396 -100 -85.5898 -194.49 -220.96 -194.49c-117.33 0 -164.17 71.0898 -164.17 154.46c0 14.0703 1.33008 28.4902 3.88965 42.9805zM432.46 187.431l22.5889 128.141c2.63965 14.9404 3.93945 29 3.93945 42.0996c0 74.5498 -42.2197 118.09 -121.439 118.09
c-99.9902 0 -164.21 -57.4404 -182.85 -163.141l-22.5898 -128.13c-2.28027 -12.9199 -3.48047 -25.6299 -3.48047 -37.8896c0 -66.9697 35.6104 -120.359 124.23 -120.359c107.38 0 164.86 77.5996 179.601 161.189z" />
    <glyph glyph-name="ocaron" unicode="&#x1d2;" horiz-adv-x="499" 
d="M377.61 574.57h-46.7197l-111.36 134.84h45.04l91.6797 -111.54l128.08 111.54h47.4502zM91.6602 187.431l22.5898 128.13c22.3096 126.51 100.79 196.109 224.21 196.119c105.41 0.0898438 161.49 -57.7598 161.49 -151.01
c0 -15.1201 -1.48047 -31.1699 -4.4502 -48.0498l-22.5996 -128.14c-17.6299 -100 -85.5801 -194.49 -220.95 -194.49c-117.33 0 -164.18 71.0898 -164.18 154.46c0 14.0703 1.33984 28.4902 3.88965 42.9805zM432.46 187.431l22.5908 128.141
c2.62988 14.9404 3.93945 29 3.93945 42.0996c0 74.5498 -42.2197 118.09 -121.439 118.09c-99.9902 0 -164.221 -57.4404 -182.851 -163.141l-22.5996 -128.13c-2.28027 -12.9199 -3.4707 -25.6299 -3.4707 -37.8896c0 -66.9697 35.5996 -120.359 124.229 -120.359
c107.38 0 164.86 77.5996 179.601 161.189z" />
    <glyph glyph-name="ocircumflex" unicode="&#xf4;" horiz-adv-x="499" 
d="M506.66 571.14h-45.4297l-87.75 111.54l-132.03 -111.54h-47.0303l158.91 134.84h46.71zM91.6602 187.43l22.5898 128.14c22.3096 126.5 100.79 196.11 224.21 196.11c105.41 0.0996094 161.49 -57.7607 161.49 -151.001c0 -15.1201 -1.48047 -31.1699 -4.4502 -48.0596
l-22.5996 -128.13c-17.6299 -100 -85.5801 -194.49 -220.95 -194.49c-117.33 0 -164.18 71.0898 -164.18 154.46c0 14.0703 1.33984 28.4902 3.88965 42.9707zM432.46 187.43l22.5908 128.142c2.62988 14.9502 3.93945 29 3.93945 42.0996
c0 74.5498 -42.2197 118.09 -121.439 118.09c-99.9902 0 -164.221 -57.4404 -182.851 -163.131l-22.5996 -128.14c-2.28027 -12.9199 -3.4707 -25.6299 -3.4707 -37.8799c0 -66.9697 35.5996 -120.37 124.229 -120.37c107.38 0 164.86 77.5996 179.601 161.189z" />
    <glyph glyph-name="odieresis" unicode="&#xf6;" horiz-adv-x="499" 
d="M280.45 658.37c12.7695 0 22.0205 -9.66895 22.0205 -22.2891c0 -13.6797 -11.9199 -25.8701 -25.2295 -25.8701c-13.0703 0 -22.5605 9.96973 -22.5605 22.5195c0 14.0195 12.2598 25.6396 25.7695 25.6396zM448.401 658.371
c12.7695 0 22.0303 -9.66895 22.0303 -22.2988c0 -13.6699 -11.9199 -25.8604 -25.2295 -25.8604c-13.0801 0 -22.5703 9.96973 -22.5703 22.5195c0 14.0195 12.2598 25.6396 25.7695 25.6396zM91.6719 187.432l22.5898 128.13c22.2998 126.51 100.79 196.109 224.2 196.119
c105.42 0.0898438 161.49 -57.7598 161.49 -151.01c0 -15.1201 -1.46973 -31.1699 -4.4502 -48.0498l-22.5898 -128.14c-17.6396 -100 -85.5898 -194.49 -220.96 -194.49c-117.33 0 -164.17 71.0898 -164.17 154.46c0 14.0703 1.33008 28.4902 3.88965 42.9805z
M432.462 187.432l22.5889 128.141c2.63965 14.9404 3.93945 29 3.93945 42.0996c0 74.5498 -42.2197 118.09 -121.439 118.09c-99.9902 0 -164.21 -57.4404 -182.85 -163.141l-22.5898 -128.13c-2.28027 -12.9199 -3.48047 -25.6299 -3.48047 -37.8896
c0 -66.9697 35.6104 -120.359 124.23 -120.359c107.38 0 164.86 77.5996 179.601 161.189z" />
    <glyph glyph-name="ograve" unicode="&#xf2;" horiz-adv-x="499" 
d="M402.02 585.61h-31.21l-48.2402 114.39h49.4502zM91.6699 187.431l22.5898 128.13c22.2998 126.51 100.79 196.109 224.2 196.119c105.42 0.0898438 161.49 -57.7598 161.49 -151.01c0 -15.1201 -1.46973 -31.1699 -4.4502 -48.0498l-22.5898 -128.14
c-17.6396 -100 -85.5898 -194.49 -220.96 -194.49c-117.33 0 -164.17 71.0898 -164.17 154.46c0 14.0703 1.33008 28.4902 3.88965 42.9805zM432.46 187.431l22.5889 128.141c2.63965 14.9404 3.93945 29 3.93945 42.0996c0 74.5498 -42.2197 118.09 -121.439 118.09
c-99.9902 0 -164.21 -57.4404 -182.85 -163.141l-22.5898 -128.13c-2.28027 -12.9199 -3.48047 -25.6299 -3.48047 -37.8896c0 -66.9697 35.6104 -120.359 124.23 -120.359c107.38 0 164.86 77.5996 179.601 161.189z" />
    <glyph glyph-name="ohungarumlaut" unicode="&#x151;" horiz-adv-x="499" 
d="M304.6 585.33h-32.0498l69.0996 114.67h49.6602zM413.52 585.33h-32.0508l69.1104 114.67h49.6504zM91.6689 187.43l22.5898 128.14c22.2998 126.5 100.79 196.11 224.2 196.11c105.42 0.0996094 161.49 -57.7607 161.49 -151.001
c0 -15.1201 -1.46973 -31.1699 -4.4502 -48.0596l-22.5898 -128.13c-17.6396 -100 -85.5898 -194.49 -220.96 -194.49c-117.33 0 -164.17 71.0898 -164.17 154.46c0 14.0703 1.33008 28.4902 3.88965 42.9707zM432.459 187.43l22.5889 128.142
c2.63965 14.9502 3.93945 29 3.93945 42.0996c0 74.5498 -42.2197 118.09 -121.439 118.09c-99.9902 0 -164.21 -57.4404 -182.85 -163.131l-22.5898 -128.14c-2.28027 -12.9199 -3.48047 -25.6299 -3.48047 -37.8799c0 -66.9697 35.6104 -120.37 124.23 -120.37
c107.38 0 164.86 77.5996 179.601 161.189z" />
    <glyph glyph-name="omacron" unicode="&#x14d;" horiz-adv-x="499" 
d="M472.42 614.75h-228.199l5.01953 28.5h228.21zM91.6611 187.43l22.5898 128.13c22.3096 126.51 100.79 196.109 224.21 196.119c105.41 0.0898438 161.49 -57.7598 161.49 -151.01c0 -15.1201 -1.48047 -31.1699 -4.4502 -48.0498l-22.5996 -128.14
c-17.6299 -100 -85.5801 -194.49 -220.95 -194.49c-117.33 0 -164.18 71.0898 -164.18 154.46c0 14.0703 1.33984 28.4902 3.88965 42.9805zM432.461 187.43l22.5908 128.141c2.62988 14.9404 3.93945 29 3.93945 42.0996c0 74.5498 -42.2197 118.09 -121.439 118.09
c-99.9902 0 -164.221 -57.4404 -182.851 -163.141l-22.5996 -128.13c-2.28027 -12.9199 -3.4707 -25.6299 -3.4707 -37.8896c0 -66.9697 35.5996 -120.359 124.229 -120.359c107.38 0 164.86 77.5996 179.601 161.189z" />
    <glyph glyph-name="oslash" unicode="&#xf8;" horiz-adv-x="499" 
d="M467.78 551l-32.499 -62.123c42.5498 -25.0498 64.6602 -69.6494 64.6602 -128.209c0 -15.1201 -1.46973 -31.1699 -4.4502 -48.0498l-22.5898 -128.14c-17.6396 -100 -85.5898 -194.49 -220.96 -194.49c-27.79 0 -51.6201 3.99023 -71.8203 11.1904l-26.7803 -51.1904
h-33.7998l33.4697 63.9805c-45.6299 27.7305 -65.2402 76.54 -65.2402 130.48c0 14.0703 1.33008 28.4902 3.88965 42.9805l22.5898 128.13c22.4805 127.46 101.971 196.12 224.471 196.12c26.1699 0 49.29 -3.57031 69.2598 -10.3799l26 49.7002h33.7998zM154.691 312.617
l-22.5889 -128.138c-2.28027 -12.9199 -3.48047 -25.6299 -3.48047 -37.8799c0 -40.4004 12.96 -75.8604 42.6904 -97.6406l219.05 418.68c-15.2002 5.34961 -32.8301 8.11914 -52.8203 8.11914c-99.9902 0 -164.221 -57.4404 -182.851 -163.141zM432.463 187.42
l22.5908 128.149c2.63965 14.9502 3.93945 29 3.93945 42.0996c0 43.4502 -14.3398 76.3701 -41.9902 96.2705l-219.2 -418.97c15.4404 -5.63965 33.71 -8.73926 55.0596 -8.73926c107.38 0 164.86 77.5996 179.601 161.189z" />
    <glyph glyph-name="otilde" unicode="&#xf5;" horiz-adv-x="499" 
d="M213.41 611.12l-14.3809 24.8799c35.6299 31.75 72.7803 51.7803 105.021 51.7803c54.0996 0 89.0898 -42.9102 134.74 -42.9102c24.8301 0 53.2402 14.0303 76.1006 34.6299l13.5098 -25.7002c-27.96 -22.3096 -62.0498 -38.9297 -90.0098 -38.9297
c-54.0996 0 -89.2393 41.2002 -136.22 41.2002c-28.29 0 -59.4004 -16.6299 -88.7607 -44.9502zM91.6592 187.43l22.5898 128.13c22.3096 126.51 100.79 196.109 224.21 196.119c105.41 0.0898438 161.49 -57.7598 161.49 -151.01
c0 -15.1201 -1.48047 -31.1699 -4.4502 -48.0498l-22.5996 -128.14c-17.6299 -100 -85.5801 -194.49 -220.95 -194.49c-117.33 0 -164.18 71.0898 -164.18 154.46c0 14.0703 1.33984 28.4902 3.88965 42.9805zM432.459 187.43l22.5908 128.141
c2.62988 14.9404 3.93945 29 3.93945 42.0996c0 74.5498 -42.2197 118.09 -121.439 118.09c-99.9902 0 -164.221 -57.4404 -182.851 -163.141l-22.5996 -128.13c-2.28027 -12.9199 -3.4707 -25.6299 -3.4707 -37.8896c0 -66.9697 35.5996 -120.359 124.229 -120.359
c107.38 0 164.86 77.5996 179.601 161.189z" />
    <glyph glyph-name="oe" unicode="&#x153;" horiz-adv-x="823" 
d="M91.6602 187.43l22.5879 128.12c22.2998 126.51 100.79 196.109 224.2 196.119c85.4404 0.0400391 137.221 -39.8301 150.28 -105.22c36.1299 68.5098 105.06 103.5 188.01 103.5c100.24 0.0996094 157.45 -50.1504 157.45 -130.49
c0 -14.4004 -1.83984 -29.7705 -5.59961 -45.9902c-22.9102 -99.0195 -107.62 -134.989 -196.33 -134.989c-52.4004 0 -106.2 12.5498 -149.48 32.0898l-17.4805 -91.8096c-1.83984 -10.4102 -2.72949 -20.04 -2.72949 -28.9199c0 -61.3896 42.75 -86.8096 112.21 -86.8096
c59.3701 0 111.851 15.96 158.49 43.2295l20.0303 -26.0098c-51.9697 -32.8398 -112.26 -51.2598 -181.09 -51.2598c-81.6699 0 -135.04 31.5098 -139.85 97.6494c-36.0996 -56.8301 -94.7695 -96.6504 -180.409 -96.6504c-117.33 0 -164.18 71.0898 -164.18 154.46
c0 14.0703 1.33984 28.4902 3.88965 42.9805zM432.448 187.42l22.5996 128.141c2.62988 14.9404 3.93945 29 3.93945 42.0996c0 74.5498 -42.2197 118.09 -121.439 118.09c-99.9902 0 -164.221 -57.4404 -182.86 -163.141l-22.5898 -128.13
c-2.28027 -12.9199 -3.48047 -25.6299 -3.48047 -37.8896c0 -66.9697 35.6104 -120.359 124.23 -120.359c107.38 0 164.86 77.5996 179.601 161.189zM500.658 336.061l-14.0508 -72.1982c29.7598 -16.1504 86.1299 -32.4902 142.74 -32.4902
c71.79 0 143.96 26.2695 162.78 112.529c2.78027 12.6299 4.15039 24.4395 4.15039 35.3799c0 61.0898 -42.6201 95.2695 -119.851 95.2695c-91.7695 0 -160.029 -48.5 -175.77 -138.49z" />
    <glyph glyph-name="p" unicode="p" horiz-adv-x="519" 
d="M205.24 500.14l-4.93945 -25.1895c48.3896 23.6201 103.819 33.9004 153.14 33.9004c90.5596 0 170.579 -34.4004 170.579 -131.261c0 -11.3604 -1.09961 -23.5801 -3.41992 -36.7002l-32.1797 -182.5c-22.9004 -129.88 -120.37 -167.39 -215.11 -168.39
c-52.8799 0 -106.99 14.7305 -145.09 31.6904l-40.7598 -223.69h-40.9502l123.87 702.14h34.8604zM448.301 163.15l32.0684 181.649c1.7002 9.75977 2.52051 18.8994 2.52051 27.4297c0 73 -59.8896 101.57 -134.279 101.57c-50.8496 0 -104.01 -12.7305 -146.47 -33.0303
l-70.6104 -385.96c31.0703 -15.96 84.8604 -29.4795 137.431 -29.4795c83.1904 0 161.03 34 179.34 137.82z" />
    <glyph glyph-name="thorn" unicode="&#xfe;" horiz-adv-x="529" 
d="M250.85 699.72l-40.1309 -220.41c44.0898 17 102.81 30.1299 152.979 30.1201c86.6504 -0.129883 164.511 -32.4902 164.511 -131.09c0 -12.2305 -1.2002 -25.4805 -3.73047 -39.8105l-32.0596 -181.86c-22.5195 -127.7 -124.55 -165.67 -218.95 -165.67
c-50.3096 0 -100.75 11.2002 -140.52 33.3105l-35.4502 -194.31h-40.9502l153.32 869.72h40.9805zM452.129 160.54l31.5791 179.061c2.15039 12.1602 3.16992 23.3203 3.16992 33.5508c0 77.1201 -57.9502 101.33 -129 101.33c-55.2803 0 -114.16 -14.4404 -150.84 -30.4004
l-70.6104 -385.9c35.46 -20.25 84.4004 -32.0303 132.681 -32.0303c85.7598 0 166.08 38.29 183.021 134.39z" />
    <glyph glyph-name="q" unicode="q" 
d="M87.0596 161.33l32.1787 182.541c22.3604 126.77 125.29 165.029 220.46 165.029c52.0303 0 104.011 -11.9102 143.961 -35.54l6.46973 26.8301h34.9805l-123.89 -702.19h-40.9805l40.5801 222.56c-44.0898 -17.0498 -102.8 -30.5596 -152.97 -30.5596
c-86.6602 0.889648 -164.51 33 -164.51 131.54c0 12.2197 1.2002 25.46 3.71973 39.79zM404.488 55.7715l70.6191 386.08c-35.3096 20.2998 -83.9697 32 -132.1 32c-85.79 0 -166.521 -38.5801 -183.12 -131.95l-32.0703 -181.64
c-2.13965 -12.1602 -3.15918 -23.3203 -3.15918 -33.5508c0 -77.1201 57.9404 -101.33 128.99 -101.33c55.2803 0 114.17 14.4404 150.84 30.3906z" />
    <glyph glyph-name="r" unicode="r" horiz-adv-x="356" 
d="M200.58 502.56l-13.2295 -77.2002c39.6504 58.5996 98.1406 86.0596 174.011 86.0596c23.1699 0 42.9697 -2.29004 60.4297 -7.84961l-7.95996 -35.2197c-18.4102 5.25977 -39.1201 7.71973 -59.7705 6.62012c-98.1699 -1.40039 -162.47 -58.4199 -180.85 -162.67
l-55.0703 -312.3h-40.9404l88.6104 502.56h34.7695z" />
    <glyph glyph-name="racute" unicode="&#x155;" horiz-adv-x="356" 
d="M271.54 585.61h-33.1699l70.3398 114.39h51.4297zM200.58 502.561l-13.2295 -77.1914c39.6504 58.5996 98.1406 86.0498 174.011 86.0498c23.1699 0 42.9697 -2.28027 60.4297 -7.83984l-7.95996 -35.2197c-18.29 5.23047 -38.9102 7.71094 -59.5205 6.70117
c-98.3096 -1.34961 -162.699 -58.3994 -181.1 -162.76l-55.0703 -312.3h-40.9404l88.6104 502.56h34.7695z" />
    <glyph glyph-name="rcaron" unicode="&#x159;" horiz-adv-x="356" 
d="M306.21 574.57h-46.7207l-111.36 134.84h45.04l91.6904 -111.54l128.08 111.54h47.4502zM200.579 502.561l-13.2295 -77.2002c39.6396 58.5996 98.1396 86.0498 174 86.0498c23.1797 0 42.9697 -2.28027 60.4395 -7.83984l-7.95996 -35.2197
c-18.3496 5.25 -39.0195 7.71973 -59.6494 6.66016c-98.2402 -1.37012 -162.59 -58.4102 -180.979 -162.71l-55.0703 -312.3h-40.9404l88.6201 502.56h34.7695z" />
    <glyph glyph-name="rcommaaccent" unicode="&#x157;" horiz-adv-x="356" 
d="M200.58 502.56l-13.2188 -77.2109c39.6396 58.5996 98.1396 86.0596 174 86.0596c23.1797 0 42.9697 -2.29004 60.4395 -7.84961l-7.95996 -35.2197c-18.4697 5.28027 -39.2295 7.73047 -59.8994 6.59082c-98.1104 -1.41992 -162.36 -58.4395 -180.73 -162.63
l-55.0703 -312.3h-40.9404l88.6104 502.56h34.7695zM37.2412 -189.012l23.709 41c-5.49023 4 -9.69043 12 -8.10059 20c1.75 11 11.6602 19 21.75 19c12.7998 0 21.96 -12 19.6904 -24c-0.299805 -2 -1.22949 -5 -2.74902 -8l-32.2197 -48h-22.0801z" />
    <glyph glyph-name="s" unicode="s" horiz-adv-x="460" 
d="M67.8496 128.84l39.7617 -1.13867c-4.91992 -54.9404 28.3203 -106.061 126.261 -106.061c92.5195 0 160.659 56.3496 160.659 125.529c0 57.5 -61.7803 76.8799 -126.41 97.9502c-72.4502 21.3301 -142.7 45.2002 -142.7 113.891
c0 69.8496 57.1104 153.52 192.91 153.52c110.16 0 150.55 -55.4004 150.55 -113.931c0 -7.2998 -0.629883 -14.6494 -1.83008 -21.9395l-39.6699 1.12012c0.969727 5.49023 1.48926 11.0801 1.48926 16.6504c0 41.29 -28.3701 82.1797 -111.311 82.1797
c-96.8496 0 -142.529 -55.6201 -150.909 -103.24c-0.700195 -3.9502 -1.03027 -7.71973 -1.03027 -11.3193c0 -46.29 55.2695 -65.1602 116.739 -84.9102c80.3301 -23.0703 153.23 -51.0107 153.23 -127.36c0 -88.3496 -78.4697 -163.779 -201.45 -163.779
c-118.09 0 -167.1 60.2998 -167.1 127.68c0 5.01953 0.269531 10.0791 0.80957 15.1592z" />
    <glyph glyph-name="sacute" unicode="&#x15b;" horiz-adv-x="460" 
d="M323.7 585.61h-33.1592l70.3398 114.39h51.4297zM67.8506 128.841l39.7607 -1.13867c-4.91992 -54.9404 28.3301 -106.061 126.26 -106.061c92.5195 0 160.659 56.3496 160.659 125.529c0 57.5 -61.7695 76.8799 -126.409 97.9502
c-72.4502 21.3301 -142.7 45.2002 -142.7 113.891c0 69.8496 57.1201 153.52 192.91 153.52c110.17 0 150.55 -55.4004 150.55 -113.931c0 -7.2998 -0.629883 -14.6494 -1.83008 -21.9395l-39.6602 1.12012c0.969727 5.49023 1.48926 11.0801 1.48926 16.6504
c0 41.29 -28.3799 82.1797 -111.32 82.1797c-96.8496 0 -142.52 -55.6201 -150.909 -103.24c-0.69043 -3.9502 -1.03027 -7.71973 -1.03027 -11.3193c0 -46.29 55.2803 -65.1602 116.75 -84.9102c80.3203 -23.0703 153.23 -51.0107 153.23 -127.36
c0 -88.3496 -78.4805 -163.779 -201.45 -163.779c-118.1 0 -167.1 60.2998 -167.1 127.68c0 5.01953 0.269531 10.0791 0.799805 15.1592z" />
    <glyph glyph-name="scaron" unicode="&#x161;" horiz-adv-x="460" 
d="M358.38 574.57h-46.7305l-111.36 134.84h45.04l91.6904 -111.54l128.08 111.54h47.4502zM67.8398 128.84l39.7607 -1.13867c-4.91992 -54.9404 28.3301 -106.061 126.26 -106.061c92.5195 0 160.659 56.3496 160.659 125.529c0 57.5 -61.7695 76.8799 -126.409 97.9502
c-72.4502 21.3301 -142.7 45.2002 -142.7 113.891c0 69.8496 57.1201 153.52 192.91 153.52c110.17 0 150.55 -55.4004 150.55 -113.931c0 -7.2998 -0.629883 -14.6494 -1.83008 -21.9395l-39.6602 1.12012c0.969727 5.49023 1.48926 11.0801 1.48926 16.6504
c0 41.29 -28.3799 82.1797 -111.32 82.1797c-96.8496 0 -142.52 -55.6201 -150.909 -103.24c-0.69043 -3.9502 -1.03027 -7.71973 -1.03027 -11.3193c0 -46.29 55.2803 -65.1602 116.75 -84.9102c80.3203 -23.0703 153.23 -51.0107 153.23 -127.36
c0 -88.3496 -78.4805 -163.779 -201.45 -163.779c-118.1 0 -167.1 60.2998 -167.1 127.68c0 5.01953 0.269531 10.0791 0.799805 15.1592z" />
    <glyph glyph-name="scedilla" unicode="&#x15f;" horiz-adv-x="460" 
d="M67.8496 128.84l39.751 -1.11914c-4.91992 -54.9502 28.3301 -106.061 126.26 -106.061c92.5195 0 160.659 56.3398 160.659 125.52c0 57.5098 -61.7695 76.8896 -126.409 97.96c-72.4502 21.3301 -142.7 45.2002 -142.7 113.88c0 69.8604 57.1201 153.53 192.91 153.53
c110.17 0 150.55 -55.4004 150.55 -113.931c0 -7.2998 -0.629883 -14.6494 -1.83008 -21.9492l-39.6602 1.13965c0.969727 5.49023 1.48926 11.0703 1.48926 16.6504c0 41.2803 -28.3799 82.1602 -111.32 82.1602c-96.8496 0 -142.52 -55.6104 -150.909 -103.23
c-0.69043 -3.9502 -1.03027 -7.71973 -1.03027 -11.3301c0 -46.29 55.2803 -65.1504 116.75 -84.9102c80.3203 -23.0703 153.23 -51 153.23 -127.36c0 -75.3203 -57.7803 -140.391 -148.601 -157.78c-15.8496 -4 -32.1094 -6 -50.6895 -6l-40.5 -42
c15.7305 6 33.9805 9 50.9307 8c40.54 0 76.6904 -19.25 76.6904 -63.4902c0 -5.16016 -0.490234 -10.6602 -1.52051 -16.5098c-12.4404 -71 -81.96 -89 -138.9 -89c-36.04 0 -66.5205 11 -95.501 22l14.75 26c26.4805 -17.9004 60.9609 -22.04 81.5811 -22.04
c48.1904 0 98.29 22.0596 106.51 68.04c0.570312 3.33008 0.839844 6.49023 0.839844 9.49023c0 26.7598 -21.96 40.5098 -52.3799 40.5098c-18.4297 0 -45.4102 -4 -85.5801 -22l-9.2002 13l64.3301 69c-99.71 7.40039 -141.31 64.3809 -141.31 126.641
c0 5.04004 0.269531 10.1104 0.80957 15.1904z" />
    <glyph glyph-name="scommaaccent" unicode="&#x219;" horiz-adv-x="460" 
d="M67.8496 128.84l39.7617 -1.13867c-4.91992 -54.9502 28.3203 -106.061 126.261 -106.061c92.5195 0 160.659 56.3398 160.659 125.53c0 57.1699 -61.0703 76.6396 -125.351 97.5996c-72.7998 21.4502 -143.76 45.2305 -143.76 114.25
c0 69.8398 57.1104 153.51 192.91 153.51c110.16 0 150.55 -55.4004 150.55 -113.931c0 -7.2998 -0.629883 -14.6494 -1.83008 -21.9395l-39.6699 1.12012c0.969727 5.49023 1.48926 11.0801 1.48926 16.6504c0 41.29 -28.3701 82.1797 -111.311 82.1797
c-96.8496 0 -142.529 -55.6201 -150.909 -103.24c-0.700195 -3.9502 -1.03027 -7.71973 -1.03027 -11.3193c0 -46.29 55.2695 -65.1602 116.739 -84.9102c80.3301 -23.0703 153.23 -51.0107 153.23 -127.36c0 -88.3496 -78.4697 -163.779 -201.45 -163.779
c-118.09 0 -167.1 60.2998 -167.1 127.68c0 5.01953 0.269531 10.0791 0.80957 15.1592zM172.842 -189.009l23.7002 41c-5.49023 4 -9.69043 12 -8.10059 20c1.75 11 11.6699 19 21.7598 19c12.7998 0 21.9502 -12 19.6807 -24c-0.290039 -2 -1.21973 -5 -2.73926 -8
l-32.2305 -48h-22.0703z" />
    <glyph glyph-name="germandbls" unicode="&#xdf;" horiz-adv-x="572" 
d="M92.9102 0l93.9014 532.491c18.9502 107.48 100.69 176.62 223.351 176.62c113.04 0 168.76 -51.9199 168.76 -133.24c0 -11.4902 -1.12012 -23.5801 -3.33984 -36.1904c-13.0898 -74.1904 -68.1494 -123.83 -124.34 -143.37
c56.3096 -18.9297 105.5 -75.1299 105.5 -154.42c0 -11.46 -1.03027 -23.4102 -3.2207 -35.7998c-20.4697 -116.13 -122.41 -206.09 -246.15 -206.09h-118.67l6.87012 39h115.97c98.0596 0 183.1 71.71 200.93 172.85c1.75977 9.99023 2.60938 19.6904 2.60938 29.0508
c0 78.7803 -59.8096 133.74 -136.77 135.87l-9.03027 0.0498047l6.57031 37.2695l5.87988 0.0800781c73.6396 2.26953 155.76 67.7793 155.76 161.449c0 64.1904 -46.4199 94.4902 -129 94.4902c-103.3 0 -165.97 -60.2305 -179.87 -139.091l-93.6396 -531.02h-42.0703z" />
    <glyph glyph-name="t" unicode="t" horiz-adv-x="347" 
d="M210.79 501l141.631 -0.000976562l-6.33008 -35.9199h-141.64l-47.3096 -268.32c-2.87012 -16.2695 -4.27051 -31.3291 -4.27051 -45.209c0 -63.7305 29.4199 -102.48 80.5898 -118.73c20.3398 -6.01953 43.8799 -8.06934 70.75 -7.34961l-3.58984 -35.4697
c-27.7402 -1 -53.4307 1 -74.9111 8c-69.3398 17.3604 -114.33 65.6406 -114.33 148.721c0 14.9697 1.45996 31.0693 4.5 48.3193l75.3301 427.24h40.96z" />
    <glyph glyph-name="tbar" unicode="&#x167;" horiz-adv-x="347" 
d="M210.79 501l141.631 0.00195312l-6.33008 -35.9102h-141.63l-19.8096 -112.34h141.63l-5.67969 -32.2305h-141.63l-21.8301 -123.76c-2.83008 -16.0703 -4.20996 -30.9707 -4.20996 -44.7207c0 -60.7197 26.9199 -99.0801 74.75 -116.62
c21.3496 -7.44043 46.6494 -10.6201 76.5293 -9.94043l-3.58984 -35.4697c-30.4697 -1 -58.2998 2 -81.2402 10.21c-65.4902 18.5098 -107.971 66.21 -107.971 146.77c0 14.8896 1.4502 30.8994 4.46973 48.0498l75.3203 427.17h40.96z" />
    <glyph glyph-name="tcaron" unicode="&#x165;" horiz-adv-x="347" 
d="M317.97 665.87l27.1514 48.5811c-5.49023 3.84961 -9.64062 10.7998 -9.64062 19.25c0 14.6699 13.7197 28.0703 28.1797 28.0703c15.5996 0 26.6699 -13.5703 23.9004 -29.2803c-0.480469 -2.73047 -1.73047 -6.64062 -3.74023 -10.2109l-37.6602 -56.4102h-28.1904z
M210.771 501.001l141.64 0.00195312l-6.33008 -35.9102h-141.64l-47.3096 -268.33c-2.84961 -16.1504 -4.23926 -31.1309 -4.23926 -44.9404c0 -63.1699 29.0596 -102.03 80.4795 -118.44c20.2002 -6.04004 43.6006 -8.53027 70.8203 -7.90039l-3.58984 -35.4805
c-27.7305 -1 -53.4209 1 -74.9111 8c-69.3301 17.3604 -114.33 65.6504 -114.33 148.73c0 14.9697 1.45996 31.0596 4.5 48.3096l75.3398 427.25h40.96z" />
    <glyph glyph-name="tcedilla" unicode="&#x163;" horiz-adv-x="347" 
d="M210.79 501l141.64 -0.00976562l-6.33984 -35.9102h-141.63l-47.3203 -268.33c-2.83984 -16.1201 -4.21973 -31.0605 -4.21973 -44.8506c0 -62.9502 28.8604 -101.771 79.6006 -118.32c20.0703 -6.40039 43.6699 -8.86035 71.6895 -8.11035l-3.58984 -35.4805
c-27.7402 -1 -53.4307 1 -74.9209 7c-14.8096 4.36035 -27.2598 9.39062 -38.0693 15.4209l-44.8398 -46.4199c16.25 7 34.9199 10 51.5898 9c40.2998 -0.889648 76 -20.21 76 -63.7002c0 -5.09961 -0.490234 -10.5293 -1.52051 -16.2988
c-12.4297 -71 -81.9297 -89 -138.87 -89c-36.04 0 -66.5498 10 -95.5098 22l14.7305 26c25.1602 -18 57.54 -22 78.3701 -23c49.1504 0 101.32 21 109.721 68c0.589844 3.41992 0.870117 6.66992 0.870117 9.75977c0 26.7803 -21.4102 41.25 -52.3604 41.25
c-19.1201 0 -45.0605 -4 -85.6406 -22l-9.19043 12l76.6699 82.5801c-35.3496 25.4502 -56.3193 66.4697 -56.3193 123.59c0 15.1504 1.46973 31.4404 4.5498 48.8701l75.3301 427.24h40.96z" />
    <glyph glyph-name="uni021B" unicode="&#x21b;" horiz-adv-x="347" 
d="M210.79 501l141.631 -0.00878906l-6.33008 -35.9102h-141.63l-47.3203 -268.33c-2.82031 -16.0303 -4.2002 -30.9004 -4.2002 -44.6309c0 -62.9004 28.9199 -101.801 79.8604 -118.4c20.0996 -6.36035 43.6299 -8.95996 71.4102 -8.25l-3.58984 -35.4697
c-27.7402 -1 -53.4307 1 -74.9111 8c-69.3398 17.3604 -114.33 65.6406 -114.33 148.721c0 14.9697 1.45996 31.0693 4.5 48.3193l75.3301 427.24h40.96zM124.69 -189.009l23.6992 41c-5.49023 4 -9.69043 12 -8.10059 20c1.75 11 11.6699 19 21.7598 19
c12.7998 0 21.96 -12 19.6904 -24c-0.299805 -2 -1.22949 -5 -2.74902 -8l-32.2197 -48h-22.0801z" />
    <glyph glyph-name="u" unicode="u" horiz-adv-x="523" 
d="M450.5 0h-34.8721l4.98047 25.2402c-49.0498 -23.5898 -104.49 -34.2402 -153.54 -34.2402c-90.79 0 -170.17 34.9199 -170.17 131.68c0 11.4404 1.11035 23.7305 3.44043 36.9404l60.1904 341.38h40.96l-60.54 -343.36
c-1.83984 -10.4199 -2.71973 -20.1201 -2.71973 -29.1504c0 -74.2002 59.4004 -102.3 133.45 -102.3c50.9902 0 104.431 12.7402 147.03 32.9902l79.1699 441.82h40.96z" />
    <glyph glyph-name="uacute" unicode="&#xfa;" horiz-adv-x="523" 
d="M355.3 585.61h-33.1699l70.3398 114.39h51.4297zM450.5 0h-34.8623l4.98047 25.2402c-49.0596 -23.5898 -104.5 -34.2402 -153.54 -34.2402c-90.7998 0 -170.18 34.9199 -170.18 131.68c0 11.4404 1.11035 23.7305 3.44043 36.9404l60.2002 341.38h40.96
l-60.5498 -343.36c-1.83008 -10.4199 -2.70996 -20.1201 -2.70996 -29.1504c0 -74.2002 59.4004 -102.3 133.44 -102.3c50.9902 0 104.44 12.7402 147.03 32.9902l79.1699 441.82h40.96z" />
    <glyph glyph-name="ucaron" unicode="&#x1d4;" horiz-adv-x="523" 
d="M389.97 574.57h-46.7207l-111.36 134.84h45.04l91.6904 -111.54l128.08 111.54h47.4502zM450.499 0h-34.8721l4.98047 25.2402c-49.0498 -23.5898 -104.49 -34.2402 -153.54 -34.2402c-90.79 0 -170.17 34.9199 -170.17 131.68
c0 11.4404 1.11035 23.7305 3.44043 36.9404l60.1904 341.38h40.96l-60.54 -343.36c-1.83984 -10.4199 -2.71973 -20.1201 -2.71973 -29.1504c0 -74.2002 59.4004 -102.3 133.45 -102.3c50.9902 0 104.431 12.7402 147.03 32.9902l79.1699 441.82h40.96z" />
    <glyph glyph-name="ucircumflex" unicode="&#xfb;" horiz-adv-x="523" 
d="M519.03 571.13h-45.4395l-87.7402 111.54l-132.03 -111.54h-47.04l158.91 134.84h46.71zM450.501 -0.00976562h-34.8721l4.98047 25.25c-49.0498 -23.5996 -104.49 -34.25 -153.54 -34.25c-90.79 0 -170.17 34.9199 -170.17 131.689
c0 11.4297 1.11035 23.7295 3.44043 36.9297l60.1904 341.38h40.96l-60.54 -343.35c-1.83984 -10.4199 -2.71973 -20.1299 -2.71973 -29.1494c0 -74.2002 59.4004 -102.3 133.45 -102.3c50.9902 0 104.431 12.7402 147.03 32.9902l79.1699 441.81h40.96z" />
    <glyph glyph-name="udieresis" unicode="&#xfc;" horiz-adv-x="523" 
d="M292.82 658.37c12.7598 0 22.0205 -9.66895 22.0205 -22.2891c0 -13.6797 -11.9297 -25.8701 -25.2295 -25.8701c-13.0801 0 -22.5703 9.96973 -22.5703 22.5195c0 14.0195 12.2695 25.6396 25.7793 25.6396zM460.771 658.371
c12.7695 0 22.0303 -9.66895 22.0303 -22.2988c0 -13.6699 -11.9199 -25.8604 -25.2295 -25.8604c-13.0801 0 -22.5703 9.96973 -22.5703 22.5195c0 14.0195 12.2598 25.6396 25.7695 25.6396zM450.513 0.00195312h-34.8721l4.98047 25.2402
c-49.0498 -23.5898 -104.49 -34.2402 -153.54 -34.2402c-90.79 0 -170.17 34.9199 -170.17 131.68c0 11.4404 1.11035 23.7305 3.44043 36.9404l60.1904 341.38h40.96l-60.54 -343.36c-1.83984 -10.4199 -2.71973 -20.1201 -2.71973 -29.1504
c0 -74.2002 59.4004 -102.3 133.45 -102.3c50.9902 0 104.431 12.7402 147.03 32.9902l79.1699 441.82h40.96z" />
    <glyph glyph-name="udieresisacute" unicode="&#x1d8;" horiz-adv-x="523" 
d="M392.12 721.44h-33.1699l70.3398 114.39h51.4404zM292.811 658.37c12.7695 0 22.0205 -9.66895 22.0205 -22.2891c0 -13.6797 -11.9199 -25.8701 -25.2295 -25.8701c-13.0703 0 -22.5605 9.96973 -22.5605 22.5195c0 14.0195 12.2598 25.6396 25.7695 25.6396z
M460.771 658.371c12.7695 0 22.0303 -9.66895 22.0303 -22.2988c0 -13.6699 -11.9297 -25.8604 -25.2393 -25.8604c-13.0703 0 -22.5703 9.96973 -22.5703 22.5195c0 14.0195 12.2695 25.6396 25.7793 25.6396zM450.503 0.00195312h-34.8623l4.98047 25.2402
c-49.0596 -23.5898 -104.5 -34.2402 -153.54 -34.2402c-90.7998 0 -170.18 34.9199 -170.18 131.68c0 11.4404 1.11035 23.7305 3.44043 36.9404l60.2002 341.38h40.96l-60.5498 -343.36c-1.83008 -10.4199 -2.70996 -20.1201 -2.70996 -29.1504
c0 -74.2002 59.4004 -102.3 133.44 -102.3c50.9902 0 104.44 12.7402 147.03 32.9902l79.1699 441.82h40.96z" />
    <glyph glyph-name="udieresiscaron" unicode="&#x1da;" horiz-adv-x="523" 
d="M413.02 705.24h-46.7197l-111.36 134.84h45.04l91.6797 -111.54l128.08 111.54h47.4502zM292.819 658.36c12.7695 0 22.0205 -9.66016 22.0205 -22.29c0 -13.6797 -11.9199 -25.8594 -25.2295 -25.8594c-13.0703 0 -22.5605 9.96973 -22.5605 22.5195
c0 14.0195 12.2598 25.6299 25.7695 25.6299zM460.78 658.36c12.7695 0 22.0303 -9.66016 22.0303 -22.29c0 -13.6797 -11.9297 -25.8594 -25.2393 -25.8594c-13.0703 0 -22.5703 9.96973 -22.5703 22.5195c0 14.0195 12.2695 25.6299 25.7793 25.6299zM450.512 -0.00976562
h-34.8623l4.98047 25.25c-49.0596 -23.5996 -104.5 -34.25 -153.54 -34.25c-90.7998 0 -170.18 34.9199 -170.18 131.689c0 11.4297 1.11035 23.7295 3.44043 36.9297l60.2002 341.38h40.96l-60.5498 -343.35c-1.83008 -10.4199 -2.70996 -20.1299 -2.70996 -29.1494
c0 -74.2002 59.4004 -102.3 133.44 -102.3c50.9902 0 104.44 12.7402 147.03 32.9902l79.1699 441.81h40.96z" />
    <glyph glyph-name="udieresisgrave" unicode="&#x1dc;" horiz-adv-x="523" 
d="M430.43 721.9h-31.2109l-48.2695 114.39h49.4805zM291.349 658.931c12.7695 0 22.0205 -9.66992 22.0205 -22.29c0 -13.6797 -11.9199 -25.8701 -25.2295 -25.8701c-13.0703 0 -22.5605 9.98047 -22.5605 22.5303c0 14.0195 12.2598 25.6299 25.7695 25.6299z
M459.3 658.931c12.7695 0 22.0205 -9.66895 22.0205 -22.2891c0 -13.6797 -11.9199 -25.8701 -25.2295 -25.8701c-13.0703 0 -22.5605 9.96973 -22.5605 22.5195c0 14.0195 12.2598 25.6396 25.7695 25.6396zM450.491 -0.00878906h-34.8623l4.98047 25.25
c-49.0596 -23.5996 -104.5 -34.25 -153.54 -34.25c-90.7998 0 -170.18 34.9199 -170.18 131.689c0 11.4297 1.11035 23.7295 3.44043 36.9297l60.2002 341.38h40.96l-60.5498 -343.35c-1.83008 -10.4199 -2.70996 -20.1299 -2.70996 -29.1494
c0 -74.2002 59.4004 -102.3 133.44 -102.3c50.9902 0 104.44 12.7402 147.03 32.9902l79.1699 441.81h40.96z" />
    <glyph glyph-name="udieresismacron" unicode="&#x1d6;" horiz-adv-x="523" 
d="M503.41 721.32h-228.211l5.03027 28.5h228.2zM291.35 658.931c12.7695 0 22.0205 -9.66992 22.0205 -22.29c0 -13.6797 -11.9199 -25.8701 -25.2295 -25.8701c-13.0703 0 -22.5605 9.98047 -22.5605 22.5303c0 14.0195 12.2598 25.6299 25.7695 25.6299zM459.301 658.931
c12.7695 0 22.0205 -9.66895 22.0205 -22.2891c0 -13.6797 -11.9199 -25.8701 -25.2295 -25.8701c-13.0703 0 -22.5605 9.96973 -22.5605 22.5195c0 14.0195 12.2598 25.6396 25.7695 25.6396zM450.492 -0.00878906h-34.8623l4.98047 25.25
c-49.0596 -23.5996 -104.5 -34.25 -153.54 -34.25c-90.7998 0 -170.18 34.9199 -170.18 131.689c0 11.4297 1.11035 23.7295 3.44043 36.9297l60.2002 341.38h40.96l-60.5498 -343.35c-1.83008 -10.4199 -2.70996 -20.1299 -2.70996 -29.1494
c0 -74.2002 59.4004 -102.3 133.44 -102.3c50.9902 0 104.44 12.7402 147.03 32.9902l79.1699 441.81h40.96z" />
    <glyph glyph-name="ugrave" unicode="&#xf9;" horiz-adv-x="523" 
d="M414.38 585.61h-31.21l-48.2402 114.39h49.4502zM450.5 0h-34.8721l4.98047 25.2402c-49.0498 -23.5898 -104.49 -34.2402 -153.54 -34.2402c-90.79 0 -170.17 34.9199 -170.17 131.68c0 11.4404 1.11035 23.7305 3.44043 36.9404l60.1904 341.38h40.96l-60.54 -343.36
c-1.83984 -10.4199 -2.71973 -20.1201 -2.71973 -29.1504c0 -74.2002 59.4004 -102.3 133.45 -102.3c50.9902 0 104.431 12.7402 147.03 32.9902l79.1699 441.82h40.96z" />
    <glyph glyph-name="uhungarumlaut" unicode="&#x171;" horiz-adv-x="523" 
d="M318.33 585.33h-32.0498l69.0996 114.67h49.6602zM427.25 585.33h-32.0508l69.1104 114.67h49.6504zM450.499 0h-34.8623l4.98047 25.2402c-49.0596 -23.5898 -104.5 -34.2402 -153.54 -34.2402c-90.7998 0 -170.18 34.9199 -170.18 131.68
c0 11.4404 1.11035 23.7305 3.44043 36.9404l60.2002 341.38h40.96l-60.5498 -343.36c-1.83008 -10.4199 -2.70996 -20.1201 -2.70996 -29.1504c0 -74.2002 59.4004 -102.3 133.44 -102.3c50.9902 0 104.44 12.7402 147.03 32.9902l79.1699 441.82h40.96z" />
    <glyph glyph-name="umacron" unicode="&#x16b;" horiz-adv-x="523" 
d="M484.28 614.75h-228.211l5.03027 28.5h228.2zM450.499 0h-34.8623l4.98047 25.2402c-49.0596 -23.5898 -104.5 -34.2402 -153.54 -34.2402c-90.7998 0 -170.18 34.9199 -170.18 131.68c0 11.4404 1.11035 23.7305 3.44043 36.9404l60.2002 341.38h40.96l-60.5498 -343.36
c-1.83008 -10.4199 -2.70996 -20.1201 -2.70996 -29.1504c0 -74.2002 59.4004 -102.3 133.44 -102.3c50.9902 0 104.44 12.7402 147.03 32.9902l79.1699 441.82h40.96z" />
    <glyph glyph-name="uogonek" unicode="&#x173;" horiz-adv-x="523" 
d="M450.23 -3l-12.6318 -5.01074c-70.1797 -49 -85.0498 -89 -88.9795 -109c-1 -5.45996 -1.46973 -10.5195 -1.46973 -15.1895c0 -32.0898 22.54 -45.8096 51.9902 -45.8096c33.5898 0 65.2197 17 88.7295 45l21.9502 -14c-29.2695 -37 -73.1699 -56 -114.71 -56
c-41.0801 0 -80.3799 21.5996 -80.3799 69.7998c0 5.7002 0.549805 11.7598 1.70996 18.21c3.37012 20 15.6299 63 97.8398 113l6.33008 27.2402c-49.0498 -23.5898 -104.49 -34.2402 -153.54 -34.2402c-90.79 0 -170.17 34.9199 -170.17 131.68
c0 11.4404 1.11035 23.7305 3.44043 36.9404l60.1904 341.38h40.96l-60.54 -343.36c-1.83984 -10.4199 -2.71973 -20.1201 -2.71973 -29.1504c0 -74.2002 59.4004 -102.3 133.45 -102.3c50.9902 0 104.431 12.7402 147.03 32.9902l79.1699 441.82h40.96z" />
    <glyph glyph-name="uring" unicode="&#x16f;" horiz-adv-x="523" 
d="M391.4 747.3c56.4805 0 98.2002 -43.3301 98.2002 -97.96c0 -67.8604 -66.1504 -130.82 -133.12 -130.82c-56.6504 0 -98.1904 43.75 -98.1904 98.1201c0 68.4697 66.6201 130.66 133.11 130.66zM391.56 717.47c-54.5098 0 -104.851 -46.9307 -104.851 -102.69
c0 -38.9404 27.9902 -67.2803 69.4502 -67.2803c53.2803 0 104.11 46.8301 104.11 103.23c0 38.5498 -27.9297 66.7402 -68.71 66.7402zM450.499 -0.000976562h-34.8721l4.98047 25.2402c-49.0498 -23.5898 -104.49 -34.2402 -153.54 -34.2402
c-90.79 0 -170.17 34.9199 -170.17 131.68c0 11.4404 1.11035 23.7305 3.44043 36.9404l60.1904 341.38h40.96l-60.54 -343.36c-1.83984 -10.4199 -2.71973 -20.1201 -2.71973 -29.1504c0 -74.2002 59.4004 -102.3 133.45 -102.3c50.9902 0 104.431 12.7402 147.03 32.9902
l79.1699 441.82h40.96z" />
    <glyph glyph-name="v" unicode="v" horiz-adv-x="447" 
d="M243.93 0.00976562h-40.0801l-92.9697 500.97h40.7002l80.8799 -443.83l238.94 443.83h42.0996z" />
    <glyph glyph-name="w" unicode="w" horiz-adv-x="690" 
d="M503.35 0.00976562h-38.0195l-46.7598 415.01l-192.85 -415.01h-37.0303l-77.8203 500.97h42.2598l62.5 -438.61l200.89 438.61h31.7998l46.5801 -437.75l218.45 437.75h43.6504z" />
    <glyph glyph-name="wacute" unicode="&#x1e83;" horiz-adv-x="690" 
d="M459.2 585.61h-33.1699l70.3398 114.39h51.4297zM503.351 0.0107422h-38.0195l-46.7598 415.01l-192.85 -415.01h-37.0303l-77.8203 500.97h42.2598l62.5 -438.61l200.89 438.61h31.7998l46.5801 -437.75l218.45 437.75h43.6504z" />
    <glyph glyph-name="wcircumflex" unicode="&#x175;" horiz-adv-x="690" 
d="M602.35 571.14h-45.4297l-87.75 111.54l-132.03 -111.54h-47.0303l158.91 134.84h46.71zM503.35 0.00976562h-38.0195l-46.7598 415.01l-192.85 -415.01h-37.0303l-77.8203 500.97h42.2598l62.5 -438.61l200.89 438.61h31.7998l46.5801 -437.75l218.45 437.75h43.6504z
" />
    <glyph glyph-name="wdieresis" unicode="&#x1e85;" horiz-adv-x="690" 
d="M376.14 658.37c12.7695 0 22.0303 -9.66895 22.0303 -22.2988c0 -13.6699 -11.9199 -25.8604 -25.2295 -25.8604c-13.0801 0 -22.5703 9.96973 -22.5703 22.5195c0 14.0195 12.2598 25.6396 25.7695 25.6396zM544.101 658.371
c12.7695 0 22.0205 -9.66992 22.0205 -22.2998c0 -13.6797 -11.9199 -25.8594 -25.2295 -25.8594c-13.0703 0 -22.5605 9.96973 -22.5605 22.5195c0 14.0195 12.2598 25.6396 25.7695 25.6396zM503.352 0.0117188h-38.0195l-46.7598 415l-192.85 -415h-37.0303
l-77.8203 500.97h42.2598l62.5 -438.62l200.89 438.62h31.7998l46.5801 -437.76l218.45 437.76h43.6504z" />
    <glyph glyph-name="wgrave" unicode="&#x1e81;" horiz-adv-x="690" 
d="M476.7 585.61h-31.21l-48.2402 114.39h49.4502zM503.351 0.0107422h-38.0195l-46.7598 415.01l-192.85 -415.01h-37.0303l-77.8203 500.97h42.2598l62.5 -438.61l200.89 438.61h31.7998l46.5801 -437.75l218.45 437.75h43.6504z" />
    <glyph glyph-name="x" unicode="x" horiz-adv-x="401" 
d="M272.63 249.99l103.28 -249.979h-43.21l-90.4297 219.24l-174.24 -219.24h-46.3799l200.69 251.01l-105.2 249.96h45.3301l88.8799 -221.37l169.3 221.37h46.1797z" />
    <glyph glyph-name="y" unicode="y" horiz-adv-x="528" 
d="M538.84 501l-96.791 -548.99c-19.1797 -109 -95.8594 -152 -190.72 -152c-64.7998 0 -123.47 19 -167.43 49l20.5801 26c38.2002 -25 87.5703 -41 142.181 -41c80.4404 0 139.07 34 154.13 119l15.1299 76.2402c-42.6797 -18.7197 -102.64 -29.2393 -154.52 -29.2295
c-91.4902 0.120117 -163.37 33.8896 -163.37 127.979c0 12.1299 1.19043 25.2695 3.7002 39.4697l58.8096 333.53h40.96l-58.7305 -333.06c-2.15039 -12.1602 -3.16992 -23.3203 -3.16992 -33.5508c0 -77.1201 57.9502 -101.33 129 -101.33
c55.2803 0 114.16 14.4404 150.851 30.3906l78.4297 437.55h40.96z" />
    <glyph glyph-name="yacute" unicode="&#xfd;" horiz-adv-x="528" 
d="M357.72 585.61h-33.1699l70.3398 114.39h51.4404zM538.84 501l-96.791 -548.99c-19.1797 -109 -95.8594 -152 -190.72 -152c-64.7998 0 -123.47 19 -167.43 49l20.5801 26c38.2002 -25 87.5703 -41 142.181 -41c80.4404 0 139.07 34 154.13 119l15.1299 76.2402
c-42.6797 -18.7197 -102.64 -29.2393 -154.52 -29.2295c-91.4902 0.120117 -163.37 33.8896 -163.37 127.979c0 12.1299 1.19043 25.2695 3.7002 39.4697l58.8096 333.53h40.96l-58.7305 -333.06c-2.15039 -12.1602 -3.16992 -23.3203 -3.16992 -33.5508
c0 -77.1201 57.9502 -101.33 129 -101.33c55.2803 0 114.16 14.4404 150.851 30.3906l78.4297 437.55h40.96z" />
    <glyph glyph-name="ycircumflex" unicode="&#x177;" horiz-adv-x="528" 
d="M521.45 571.14h-45.4297l-87.75 111.54l-132.03 -111.54h-47.0303l158.91 134.84h46.71zM538.841 501l-96.791 -548.99c-19.1797 -109 -95.8594 -152 -190.72 -152c-64.7998 0 -123.47 19 -167.43 49l20.5801 26c38.2002 -25 87.5703 -41 142.181 -41
c80.4404 0 139.07 34 154.13 119l15.1299 76.2402c-42.6797 -18.7197 -102.64 -29.2393 -154.52 -29.2295c-91.4902 0.120117 -163.37 33.8896 -163.37 127.979c0 12.1299 1.19043 25.2695 3.7002 39.4697l58.8096 333.53h40.96l-58.7305 -333.06
c-2.15039 -12.1602 -3.16992 -23.3203 -3.16992 -33.5508c0 -77.1201 57.9502 -101.33 129 -101.33c55.2803 0 114.16 14.4404 150.851 30.3906l78.4297 437.55h40.96z" />
    <glyph glyph-name="ydieresis" unicode="&#xff;" horiz-adv-x="528" 
d="M295.24 658.37c12.7695 0 22.0303 -9.66992 22.0303 -22.2998c0 -13.6797 -11.9297 -25.8594 -25.2393 -25.8594c-13.0703 0 -22.5605 9.96973 -22.5605 22.5195c0 14.0195 12.2598 25.6396 25.7695 25.6396zM463.201 658.36c12.7695 0 22.0205 -9.66016 22.0205 -22.29
c0 -13.6797 -11.9297 -25.8594 -25.2295 -25.8594c-13.0801 0 -22.5703 9.96973 -22.5703 22.5195c0 14.0195 12.2695 25.6299 25.7793 25.6299zM538.843 500.99l-96.791 -548.988c-19.1797 -109 -95.8594 -152 -190.72 -152c-64.7998 0 -123.47 19 -167.43 49l20.5801 26
c38.2002 -25 87.5703 -41 142.181 -41c80.4404 0 139.07 34 154.13 119l15.1299 76.25c-42.6797 -18.7305 -102.64 -29.25 -154.52 -29.2402c-91.4902 0.129883 -163.37 33.8896 -163.37 127.979c0 12.1396 1.19043 25.2793 3.7002 39.4795l58.8096 333.52h40.96
l-58.7305 -333.06c-2.15039 -12.1602 -3.16992 -23.3203 -3.16992 -33.5508c0 -77.1201 57.9502 -101.33 129 -101.33c55.2803 0 114.16 14.4404 150.851 30.4004l78.4297 437.54h40.96z" />
    <glyph glyph-name="ygrave" unicode="&#x1ef3;" horiz-adv-x="528" 
d="M416.81 585.61h-31.21l-48.25 114.39h49.46zM538.84 501l-96.791 -548.99c-19.1797 -109 -95.8594 -152 -190.72 -152c-64.7998 0 -123.47 19 -167.43 49l20.5801 26c38.2002 -25 87.5703 -41 142.181 -41c80.4404 0 139.07 34 154.13 119l15.1299 76.2402
c-42.6797 -18.7197 -102.64 -29.2393 -154.52 -29.2295c-91.4902 0.120117 -163.37 33.8896 -163.37 127.979c0 12.1299 1.19043 25.2695 3.7002 39.4697l58.8096 333.53h40.96l-58.7305 -333.06c-2.15039 -12.1602 -3.16992 -23.3203 -3.16992 -33.5508
c0 -77.1201 57.9502 -101.33 129 -101.33c55.2803 0 114.16 14.4404 150.851 30.3906l78.4297 437.55h40.96z" />
    <glyph glyph-name="z" unicode="z" horiz-adv-x="445" 
d="M473.38 470.92l-370.98 -435.011h299.87l-6.33008 -35.9004h-350.88l4.7998 30.1504l370.94 434.92h-272.67l6.33008 35.9004h323.7z" />
    <glyph glyph-name="zacute" unicode="&#x17a;" horiz-adv-x="445" 
d="M330.79 585.61h-33.1699l70.3398 114.39h51.4404zM473.38 470.92l-370.98 -435.011h299.87l-6.33008 -35.9004h-350.88l4.7998 30.1504l370.94 434.92h-272.67l6.33008 35.9004h323.7z" />
    <glyph glyph-name="zcaron" unicode="&#x17e;" horiz-adv-x="445" 
d="M352.56 574.57h-46.7197l-111.36 134.84h45.04l91.6797 -111.54l128.09 111.54h47.4502zM473.37 470.92l-370.98 -435.011h299.88l-6.33008 -35.9004h-350.89l4.7998 30.1504l370.94 434.92h-272.67l6.33008 35.9004h323.71z" />
    <glyph glyph-name="zdotaccent" unicode="&#x17c;" horiz-adv-x="445" 
d="M334.39 662.58c12.7695 0 22.0303 -9.66016 22.0303 -22.29c0 -13.6797 -11.9297 -25.8594 -25.2393 -25.8594c-13.0703 0 -22.5703 9.96973 -22.5703 22.5195c0 14.0195 12.2695 25.6299 25.7793 25.6299zM473.381 470.93l-370.98 -435.01h299.88l-6.33008 -35.9004
h-350.89l4.7998 30.1396l370.94 434.93h-272.67l6.33008 35.9004h323.71z" />
    <glyph glyph-name="T_h" horiz-adv-x="1029" 
d="M744.2 700l-40.3799 -222.051c47.4902 22.0596 101.21 31.7295 148.75 31.7295c88.7803 0 169.23 -33.0996 169.23 -130.88c0 -11.5498 -1.12988 -24.0098 -3.49023 -37.4199l-60.2002 -341.38h-40.96l60.54 343.36c1.91016 10.8203 2.82031 20.8701 2.82031 30.1904
c0 74.21 -57.7998 102.11 -130.819 102.11c-51.8496 0 -106.3 -13.5898 -149.76 -33.8398l-79.1699 -441.82h-40.96l116.56 661.06h-301.44l-116.57 -661.06h-42.0801l116.56 661.06h-191.23l6.86035 38.9404h575.74z" />
    <glyph glyph-name="c_h" horiz-adv-x="978" 
d="M92.9102 194.48l20.1494 114.23c23.9004 135.51 113.75 197.05 211.53 200.21c33.0801 1.86035 65.04 -3.17969 96.9404 -12.2295c-5.54004 14.9697 -8.27051 30.7695 -8.27051 46.8291c0 41.6602 18.4199 85.0303 54.2295 120.07
c34.1504 31.8896 79.5908 51.8994 125.661 51.8994c41.1299 0 73.21 -16.4805 95.0898 -38.79l-35.3701 -198.75c47.5 22.0596 101.21 31.7295 148.75 31.7295c88.79 0 169.23 -33.0996 169.23 -130.88c0 -11.5498 -1.12988 -24 -3.49023 -37.4102l-60.2002 -341.38h-40.96
l60.5498 343.35c1.91016 10.8203 2.82031 20.8701 2.82031 30.1904c0 74.2197 -57.7998 102.12 -130.819 102.12c-51.8496 0 -106.3 -13.5996 -149.76 -33.8496l-79.1699 -441.82h-40.9697l118.16 662.91c-15.9902 10.7598 -35.6504 15.9795 -56.2705 15.9795
c-34.2305 0 -71.1104 -14.3896 -98.29 -41.7598c-28.29 -26.8301 -46.2598 -64.1904 -46.2598 -100.65c0 -26.5898 10.3203 -51.5996 26.2002 -74.79l-29.6602 -18.7803c-32.9805 21.4902 -69.7705 31.1299 -107.181 31.1299c-85.4004 0 -161.9 -54.0098 -182.051 -168.279
l-20.1396 -114.22c-2.82031 -15.9805 -4.16016 -30.7305 -4.16016 -44.2705c0 -83.29 50.8203 -121.08 121.95 -121.08c40.1201 0 82.1602 11.9199 122.43 33.4102l24.8203 -23.4297c-46.4805 -29.6299 -96.2002 -46.1699 -148.16 -46.1699
c-96.0996 0 -162 51.6699 -162 154.28c0 15.5596 1.50977 32.2998 4.66992 50.2002z" />
    <glyph glyph-name="c_t" horiz-adv-x="793" 
d="M92.21 194.57l20.1338 114.179c23.9902 136.06 114.69 200.939 222.021 200.939c29.1104 0 57.7002 -4.63965 86.4805 -12.8496c-5.78027 15.1396 -8.57031 31.0693 -8.57031 47.1797c0 48.0801 24.8496 97.75 69.1396 132.72
c32.2695 24.2402 71.5791 38.7998 111.009 38.7998c46.79 0 75.3096 -19.9102 95.0693 -38.8701l-30.0703 -175.71h141.64l-6.33984 -35.9102h-141.63l-47.3203 -268.33c-2.87988 -16.3701 -4.2998 -31.54 -4.2998 -45.54c0 -65.4404 30.9404 -105.101 87.1006 -120.431
c19.3799 -4.26953 40.3496 -5.88965 64.2793 -5.2998l-3.58984 -35.4502c-24.0801 -1 -46.79 0 -66.1104 5c-74.6602 15.9404 -123.17 64.9404 -123.17 151.421c0 15.0498 1.46973 31.2402 4.5293 48.5898l83.79 468c-15.9102 10.6104 -35.0205 15.6504 -55.001 15.6504
c-30.6396 0 -63.3193 -11.8398 -89.5791 -33.5801c-32.6602 -25.7998 -56.54 -64.8896 -56.54 -106.989c0 -28.1904 11.4502 -53.2207 26.5605 -76.3311l-29.7197 -18.7598c-32.9805 21.4902 -69.7705 31.1299 -107.181 31.1299
c-85.4004 0 -161.9 -54.0098 -182.051 -168.279l-20.1396 -114.22c-2.82031 -15.9805 -4.16016 -30.7305 -4.16016 -44.2705c0 -83.29 50.8203 -121.08 121.95 -121.08c40.1201 0 82.1602 11.9199 122.43 33.4102l24.8301 -23.4297
c-46.4805 -29.6299 -96.2002 -46.2598 -148.15 -46.2598c-96.0996 0 -162.01 51.7402 -162.01 154.36c0 15.5703 1.51953 32.3008 4.66992 50.2109z" />
    <glyph glyph-name="f_b" horiz-adv-x="803" 
d="M48.5596 -187l129.601 735.321c18.21 103.25 89.0596 162.55 179.409 162.55c100.11 0 165.9 -42.8701 165.931 -42.8701l-33.3701 -188.38c44.04 16.9199 102.69 30.0596 152.82 30.0596c85.7197 0 164.67 -31.7197 164.67 -131.04
c0 -12.2305 -1.2002 -25.4805 -3.73047 -39.8301l-32.1797 -182.5c-22.3496 -126.77 -125.279 -165.31 -220.449 -165.31c-52.0303 0 -104.011 12.1904 -143.961 35.8203l-6.46973 -26.8203h-34.9902l115.43 647.33c-39.9199 18.4297 -81.1602 27.4199 -123.061 27.4199
c-33.9502 0 -119.29 -14.4805 -140.14 -132.471l-7.28027 -41.2803h141.63l-6.11035 -34.6797h-141.64l-115.14 -653.32h-40.9697zM731.07 158.281l32.0586 181.64c2.15039 12.1602 3.16992 23.3203 3.16992 33.5508c0 77.1201 -57.9502 101.33 -129 101.33
c-55.2803 0 -114.16 -14.4404 -150.84 -30.3906l-70.6299 -386.08c35.3203 -20.2998 83.9805 -32 132.11 -32c85.79 0 166.521 38.5898 183.131 131.95z" />
    <glyph glyph-name="f_h" horiz-adv-x="816" 
d="M48.5596 -187l129.618 735.318c18.21 103.25 89.0596 162.54 179.409 162.54c100.11 0 165.9 -42.8604 165.931 -42.8604l-33.6396 -190.06c47.4902 22.0596 101.21 31.7393 148.75 31.7393c88.7803 0 169.221 -33.1104 169.221 -130.88
c0 -11.5498 -1.12012 -24.0098 -3.49023 -37.4199l-60.1904 -341.38h-40.96l60.54 343.36c1.91016 10.8203 2.82031 20.8701 2.82031 30.1904c0 74.21 -57.7998 102.11 -130.819 102.11c-51.8496 0 -106.3 -13.5898 -149.76 -33.8398l-79.1699 -441.82h-40.9697
l115.43 647.33c-39.9199 18.4297 -81.1602 27.4199 -123.061 27.4199c-33.9102 0 -119.28 -14.4297 -140.13 -132.399l-7.2998 -41.3496h141.63l-6.11035 -34.6797h-141.64l-115.14 -653.32h-40.9697z" />
    <glyph glyph-name="f_i" horiz-adv-x="484" 
d="M48.5596 -187l129.61 735.319c18.2002 103.25 89.0498 162.54 179.399 162.54c78.7197 0 134.09 -31.0098 139.88 -33.25l-4.23047 -31.0195s-57.0996 28.1699 -130.72 28.1699c-37.5195 0 -123.34 -13.75 -144.46 -132.83l-7.24023 -40.9297h284.36l-88.3398 -501
h-40.96l82.2197 466.32h-243.41l-115.14 -653.32h-40.9697z" />
    <glyph glyph-name="f_j" horiz-adv-x="484" 
d="M48.5596 -187l129.621 735.32c18.2002 103.25 89.0498 162.54 179.399 162.54c78.7197 0 134.09 -31.0098 139.87 -33.25l-4.23047 -31.0195s-57.0898 28.1699 -130.72 28.1699c-36.7998 0 -123.03 -13.3203 -144.2 -131.82l-7.49023 -41.9404h284.35l-101.21 -574
c-8.9502 -51 -39.7803 -95 -92.75 -118c-16.3604 -6 -33.6104 -11 -52.6406 -13v35c18.4805 3 34.1104 8 45.8008 16c38.5195 19 54.4297 57 59.9697 88l93.75 531.32h-243.41l-115.14 -653.32h-40.9697z" />
    <glyph glyph-name="f_k" horiz-adv-x="775" 
d="M49.2803 -187l129.621 735.319c18.2002 103.25 89.0498 162.55 179.399 162.55c100.11 0 165.9 -42.8701 165.91 -42.8701l-71.8203 -410.89l310.36 251.63h54.6104l-240.32 -198.64l175.6 -310.1h-46.8203l-159.48 281.27l-102.89 -80.3301l-35.9199 -200.94h-40.96
l115.42 647.33c-39.9199 18.4297 -81.1602 27.4199 -123.05 27.4199c-33.7598 0 -119.22 -14.2695 -140.08 -132.149l-7.36035 -41.5996h141.63l-6.11035 -34.6797h-141.64l-115.14 -653.32h-40.96z" />
    <glyph glyph-name="f_l" horiz-adv-x="480" 
d="M48.5596 -187l129.609 735.32c18.21 103.25 89.0596 162.54 179.409 162.54c100.11 0 165.9 -42.8604 165.9 -42.8604l-116.66 -668h-40.96l115.42 647.33c-39.9199 18.4297 -81.1602 27.4199 -123.061 27.4199c-33.8896 0 -119.27 -14.4102 -140.119 -132.37
l-7.30957 -41.3799h141.63l-6.11035 -34.6797h-141.64l-115.14 -653.32h-40.9697z" />
    <glyph glyph-name="s_p" horiz-adv-x="980" 
d="M67.3799 129.72l39.9814 -1.1377c-4.91992 -54.9502 28.8105 -106.8 126.66 -106.8c92.1299 0 159.77 54.8604 159.77 123.98c0 57.7803 -61.7998 77.8604 -126.729 98.6504c-72.0996 21.6299 -142.5 44.7998 -142.5 113.06c0 69.0703 56.9102 154.62 190.83 154.62
c26.8799 0 49.1699 -3.58984 69.0898 -9.12012c-4.01953 12.6797 -6.2998 26.4199 -6.2998 40.96c0 90.0801 85.0098 169.1 174.75 169.1c76.4404 0 127.69 -57.3701 127.69 -126.46c0 -7.86035 -0.660156 -15.8604 -2.02051 -23.9502l-16.0195 -87.9902
c48.3896 23.6201 103.83 34.21 153.94 34.21c89.79 0 169.18 -33.6299 169.18 -130.17c0 -11.4102 -1.11035 -23.6904 -3.44043 -36.8906l-32.1797 -182.5c-22.9004 -129.88 -121.311 -168.29 -216.841 -169.29c-52.0996 0 -106.199 14.3604 -144.299 31.3203
l-39.9805 -223.32h-40.9697l135.11 765.77c1.0498 6.33984 1.55957 12.54 1.55957 18.5498c0 55.1602 -42.5596 94.8105 -95.79 94.8105c-70.6201 0 -138.53 -63.4805 -138.53 -135.87c0 -25.0195 8.78027 -47.2598 23.9199 -63.75
c23.9697 -20.4805 34.2393 -48.6602 34.2393 -78.1006c0 -7.83984 -0.730469 -15.7695 -2.12012 -23.6592l-39.71 1.13965c0.959961 5.40039 1.46973 10.9004 1.46973 16.4102c0 41.54 -28.9004 83.3096 -112.721 83.3096c-96.0596 0 -140.79 -54.71 -149 -101.43
c-0.709961 -4.04004 -1.0498 -7.88965 -1.0498 -11.5801c0 -47.0498 55.8496 -66.5195 118.029 -86.1396c79.6104 -23.2305 151.92 -50.5508 151.92 -126.141c0 -88.7803 -79.4697 -165.311 -203.319 -165.311c-116.97 0 -165.66 58.9902 -165.66 126.41
c0 5.71973 0.349609 11.5 1.04004 17.3096zM909.651 162.252l32.0195 181.65c1.7002 9.69043 2.50977 18.7705 2.50977 27.2607c0 73.2998 -60.4805 102.649 -135.641 102.649c-50.0596 0 -103.149 -12.4902 -145.619 -32.79l-69.0801 -386
c31.0703 -15.96 84.8506 -29.6904 138.2 -29.6904c82.4004 0 159.301 33.0996 177.61 136.92z" />
    <glyph glyph-name="s_t" horiz-adv-x="764" 
d="M68.8896 130.13l39.9678 -1.1377c-4.91992 -54.9502 28.8105 -106.8 126.66 -106.8c92.1299 0 159.77 54.8604 159.77 123.98c0 58.0498 -62.3701 78.0498 -127.59 98.9395c-71.8096 21.5303 -141.63 44.7803 -141.63 112.771c0 68.9805 57.1602 154.19 191.62 154.19
c26.96 0 49.2803 -3.62012 71.6807 -9.23047c-4.24023 12.5098 -6.41016 26.0098 -6.41016 40c0 41.96 19.5703 88.3896 61.8799 126.29c34.0703 29.4102 77.0107 46.9102 120.201 46.9102c45.7197 0 76.1094 -22.54 94.0498 -38.1299l-30.6504 -176.44h141.63
l-6.33008 -35.9102h-141.64l-47.1504 -267.43c-2.83984 -16.1104 -4.22949 -31.0801 -4.22949 -44.9199c0 -68.4502 34.04 -109.15 95.0303 -122.931c16.8896 -3.55957 35.5996 -5.0498 56.8994 -4.46973l-5.20996 -35.8096c-21.4297 -1 -41.8594 0 -60.1895 4
c-77.9404 14.0498 -128.471 62.8701 -128.471 151.42c0 15.21 1.49023 31.5996 4.58984 49.1895l83.1504 468.85c-16.3496 11.0596 -36.1094 16.71 -56.9297 16.71c-29.7803 0 -61.7305 -11.5498 -88.9707 -35.3594c-32.0498 -25.3398 -54.3096 -64.3398 -54.3096 -106.76
c0 -23.8799 7.65039 -45.25 21.4902 -61.9805c22.4404 -20.6504 32.1406 -48.3203 32.1406 -76.8008c0 -7.69043 -0.709961 -15.4404 -2.05957 -23.1309l-39.71 1.13965c0.959961 5.40039 1.46973 10.9102 1.46973 16.4102c0 41.5498 -28.9004 83.3193 -112.71 83.3193
c-96.0703 0 -140.79 -54.7197 -149 -101.439c-0.709961 -4.03027 -1.0498 -7.89062 -1.0498 -11.5703c0 -47.0596 55.8496 -66.5293 118.029 -86.1396c79.5996 -23.2305 151.92 -50.5605 151.92 -126.141c0 -88.7002 -79.5498 -165.73 -203.39 -165.73
c-116.96 0 -165.59 59.3301 -165.59 126.8c0 5.73047 0.349609 11.5205 1.04004 17.3408z" />
    <glyph glyph-name="ordfeminine" unicode="&#xaa;" horiz-adv-x="335" 
d="M192.68 611.42l-14.3682 22.8203c23.5098 16.0498 56.3896 24.8799 95.5801 24.9297c91.7002 0.0800781 112.49 -38.1602 112.49 -83.8105c0 -15.3096 -2.33984 -31.46 -5.12988 -47.2803l-31.5801 -179.09h-27.7803l2.36035 12.3398
c-28.6504 -11.9697 -59.8604 -17.3096 -88.0703 -17.3096c-61.2803 0 -111.82 20.29 -111.82 82.3799c0 7.5 0.740234 15.5996 2.28027 24.3496c14.4102 81.7305 81.2998 102.421 152.439 102.421c22.5303 0 47.5498 -2.25977 74.5195 -5.41992
c0.849609 7.03027 1.39941 13.9102 1.39941 20.5098c0 34.5 -15.2197 61.3799 -84.29 61.3799c-31.6504 0 -57.6699 -5.88965 -78.0303 -18.2197zM326.521 392.26l23.9707 129.819c-22.7197 2.57031 -49.1299 5.37988 -70.9697 5.37988
c-58.1504 0 -110.94 -15.3896 -121.99 -78.0596c-1.11035 -6.25 -1.64062 -12.04 -1.64062 -17.4004c0 -45.0996 37.5498 -59.2295 85.9697 -59.2295c28.71 0 60.3799 8.33984 84.6602 19.4902z" />
    <glyph glyph-name="ordmasculine" unicode="&#xba;" horiz-adv-x="327" 
d="M129.18 465.13l13.0498 74.0615c13.3398 75.6504 60.4102 120.811 137.29 120.811c66.0195 0 98.4297 -36.4902 98.4297 -92.25c0 -9.40039 -0.919922 -19.3408 -2.75 -29.751l-13.0596 -74.0498c-10.9199 -61.9199 -52.54 -119.96 -136.271 -119.96
c-70.9199 0 -99.1396 43.0996 -99.1396 94.1797c0 8.80957 0.839844 17.8594 2.4502 26.959zM330.729 464.321l13.332 75.5801c1.37988 7.82031 2.05957 15.2402 2.05957 22.21c0 41.8496 -24.4805 67.6992 -69.6504 67.6992c-55.5703 0 -91.8604 -33.6699 -101.971 -91
l-13.3301 -75.5898c-1.28027 -7.25977 -1.9502 -14.3994 -1.9502 -21.2793c0 -37.7002 20.0498 -67.7705 69.7002 -67.7705c60.71 0 93.5098 43.1104 101.81 90.1504z" />
    <glyph glyph-name="uni0419" unicode="&#x419;" horiz-adv-x="624" 
d="M567.6 910.65l27.6797 -2.93066c-12.2998 -69.7803 -75.1299 -121.641 -140.39 -121.641c-60.6396 0 -104.37 43.6104 -104.37 102.561c0 7.12988 0.639648 14.4795 1.95996 22.0098l27.4902 -2.92969c-0.740234 -4.7998 -1.11035 -9.62988 -1.11035 -14.4297
c0 -40.0596 25.7402 -77.8496 75.7803 -77.8496c57.8799 0 104.05 50.2998 112.96 95.21zM532.229 -0h-42.0898l108.95 614.99l-463.02 -614.99h-43.8604l123.43 700h42.0898l-109.7 -619.25l465.17 619.25h42.46z" />
    <glyph glyph-name="uni0410" unicode="&#x410;" horiz-adv-x="594" 
d="M558.28 0h-44.0703l-43.1699 260.78h-255.85l-135.99 -260.78h-43.8398l365.59 700h37.7598zM233.9 299.71h232.181l-56.4004 336.54z" />
    <glyph glyph-name="uni0411" unicode="&#x411;" horiz-adv-x="610" 
d="M616.44 660.19l-360.619 0.000976562l-49.6201 -281.4h226.43c98.4902 0 152.2 -47.9697 152.2 -140.2c0 -16.04 -1.62988 -33.4297 -4.92969 -52.1299c-21.7402 -123.29 -95.7207 -186.46 -211.351 -186.46h-271.24l123.43 700.01h402.72zM199.331 339.941
l-53.0811 -301.09h220.83c93.4102 0 153.98 52.2598 171.511 151.68c2.58008 14.6699 3.87012 28.29 3.87012 40.8398c0 71.5703 -41.6904 108.57 -121.16 108.57h-221.97z" />
    <glyph glyph-name="uni0412" unicode="&#x412;" horiz-adv-x="611" 
d="M220.63 700.01l251.871 0.000976562c100.27 0 151.18 -62.3604 151.18 -142.74c0 -11.7598 -1.08984 -23.9102 -3.26953 -36.2998c-15.4102 -87.3701 -58.4404 -144.93 -128.101 -170.18c59.6602 -17.9404 90.4102 -68.5801 90.4102 -130.73
c0 -11.6396 -1.08008 -23.6895 -3.25 -36.0098c-21.2002 -120.19 -95.4004 -184.051 -211.03 -184.051h-271.24zM255.881 661.051l-51.3311 -291.109h202.38c93.4102 0 153.98 52.2598 171.511 151.68c1.75 9.9502 2.62988 19.6699 2.62988 29.0498
c0 62.7695 -39.3896 110.38 -119.859 110.38h-205.33zM197.47 329.972l-51.3213 -291.119h220.83c93.4102 0 153.98 52.2695 171.511 151.689c1.75 9.9502 2.62988 19.6699 2.62988 29.0498c0 62.7598 -39.3896 110.38 -119.859 110.38h-223.79z" />
    <glyph glyph-name="uni0413" unicode="&#x413;" horiz-adv-x="512" 
d="M616.33 660.19l-360.62 0.000976562l-116.41 -660.19h-42.0996l123.43 700.01h402.72z" />
    <glyph glyph-name="uni0414" unicode="&#x414;" horiz-adv-x="700" 
d="M579.59 39.0703l84.1797 0.00195312l-34.0898 -193.07h-40.1396l27.3203 154.64h-533.6l-27.3203 -154.64h-40.0801l34.04 194.06h56.5801c47.4502 29.0195 81.8799 78.7793 94.1797 148.549l90.2803 512.03h405.3zM326.159 661.692l-83.8711 -475.61
c-11.5898 -65.7402 -38.7598 -114.83 -78.3594 -147.01h373.54l109.79 622.62h-321.1z" />
    <glyph glyph-name="uni0415" unicode="&#x415;" horiz-adv-x="576" 
d="M635.6 661.06l-379.749 0.00976562l-51.5098 -292.09h351.6l-6.86035 -38.9297h-351.6l-51.3301 -291.12h385.57l-6.86035 -38.9297h-427.66l123.43 700h421.83z" />
    <glyph glyph-name="uni0416" unicode="&#x416;" horiz-adv-x="932" 
d="M600.62 365.67l295.16 -365.67h-53.3799l-290.92 362.55l-64.4102 -362.55h-42.1104l64.4102 362.55l-418.77 -362.55h-55.3496l425.14 365.67l-243.25 334.33h51.4199l240.39 -334.27l59.4404 334.27h42.1104l-59.4404 -334.27l358.27 334.27h53.4297z" />
    <glyph glyph-name="uni0417" unicode="&#x417;" horiz-adv-x="513" 
d="M207.48 585.91l-34.9482 18.4199c34.1104 58.2305 100.23 105.221 179.32 105.221c90.0303 0 150.33 -58.4502 150.33 -144.87c0 -11.4004 -1.0498 -23.29 -3.21973 -35.5996c-12.8604 -72.9502 -68.3008 -126.431 -128.631 -149.881
c59.3301 -20.75 105.771 -77.4697 105.771 -153.37c0 -11.1104 -1 -22.6299 -3.08984 -34.5098c-21.2998 -120.79 -124.45 -203.33 -243.8 -203.33c-84.54 0 -142.33 42.96 -167.5 96.1602l34.9502 19.2695c22.2305 -47.2197 71.4004 -76.3398 133.99 -76.3398
c98.9502 0 184.96 72.4805 202.27 170.69c1.65039 9.33008 2.44043 18.4502 2.44043 27.2998c0 79.0498 -63.1104 136.84 -144.221 136.84h-59.0303l6.17969 35.0195h56.3096c80.21 0 167.02 70.3701 167.02 164.45c0 64.4404 -43.2803 109.36 -111.19 109.36
c-62.8604 0 -116.11 -38.4902 -142.95 -84.8301z" />
    <glyph glyph-name="uni0418" unicode="&#x418;" horiz-adv-x="624" 
d="M532.21 0h-42.0801l108.94 614.99l-463.01 -614.99h-43.8701l123.43 700h42.0898l-109.69 -619.25l465.17 619.25h42.4502z" />
    <glyph glyph-name="uni041A" unicode="&#x41a;" horiz-adv-x="597" 
d="M252.85 365.67l295.171 -365.67h-53.3799l-290.92 362.55l-64.4199 -362.55h-42.0996l123.43 700h42.1104l-59.4404 -334.27l358.27 334.27h53.4297z" />
    <glyph glyph-name="uni041B" unicode="&#x41b;" horiz-adv-x="665" 
d="M571.28 0h-42.1094l116.56 661.05h-321.12l-88.0996 -499.63c-22.1904 -125.86 -107.561 -172.42 -195.4 -172.42l3.90039 38.0303c62.6299 0 132.1 36.1602 149.859 136.91l94.5195 536.06h405.32z" />
    <glyph glyph-name="uni041C" unicode="&#x41c;" horiz-adv-x="743" 
d="M650.41 0h-41.1309l105.78 597.43l-322.84 -584.23h-33.75l-115.09 584.23l-105.78 -597.43h-41.1201l123.43 700h41.2803l124.91 -623.32l345.59 623.32h42.1504z" />
    <glyph glyph-name="uni041D" unicode="&#x41d;" horiz-adv-x="663" 
d="M565.43 0h-42.0811l58.1904 330.05h-384.06l-58.2002 -330.05h-42.0801l123.43 700h42.0801l-58.3701 -331.02h384.07l58.3701 331.02h42.0801z" />
    <glyph glyph-name="uni041E" unicode="&#x41e;" horiz-adv-x="625" 
d="M115.3 208.06l48.9512 277.621c27.4297 155.55 134.12 230.1 273.92 230.1c130.73 0 198.74 -68.5996 198.74 -178.779c0 -17.4102 -1.7002 -35.8506 -5.11035 -55.2305l-48.7803 -276.66c-28.8896 -163.84 -160.09 -218.12 -268.82 -218.12
c-98.8799 0 -203.34 45.8301 -203.34 173.12c0 14.8496 1.41992 30.8193 4.43945 47.9492zM541.381 207.15l48.7803 276.659c3.0498 17.2803 4.56934 33.5801 4.56934 48.8203c0 90.8496 -53.9199 144.22 -159.479 144.22c-118.73 0 -206.091 -62.2402 -229.19 -193.21
l-48.9502 -277.63c-2.58008 -14.6299 -3.7998 -28.1895 -3.7998 -40.749c0 -103.45 82.4404 -138.7 164.021 -138.7c93.5303 0 200.21 45.3896 224.05 180.59z" />
    <glyph glyph-name="uni041F" unicode="&#x41f;" horiz-adv-x="663" 
d="M565.43 0h-42.1113l116.56 661.05h-384.02l-116.56 -661.05h-42.0996l123.43 700h468.23z" />
    <glyph glyph-name="uni0420" unicode="&#x420;" horiz-adv-x="609" 
d="M220.62 700l256.401 0.000976562c105.5 0 158.54 -65.3496 158.54 -148.569c0 -12.0801 -1.12012 -24.5303 -3.35059 -37.2207c-21.8203 -123.72 -99.6807 -190.75 -220.811 -190.73h-215.08l-57.04 -323.48h-42.0898zM255.901 661.071l-52.6602 -298.589h212.84
c95.8096 0 157.92 53.5898 175.9 155.55c1.7998 10.21 2.7002 20.1797 2.7002 29.7998c0 64.3896 -40.4102 113.239 -122.95 113.239h-215.83z" />
    <glyph glyph-name="uni0421" unicode="&#x421;" horiz-adv-x="561" 
d="M117.79 222.18l46.7314 265.031c27.4297 155.55 134.59 230.1 273.35 230.1c94.79 0 155.59 -38.1104 180.95 -99.5508l-34.1504 -15.0195c-22.4502 49.04 -73.2197 75.5801 -145.88 75.5801c-117.25 0 -209.67 -63.4502 -232.7 -194.05l-46.7305 -265.03
c-3.01953 -17.1201 -4.48926 -33.0498 -4.48926 -47.8096c0 -97.6904 64.1201 -143.41 163.561 -143.41c75.5 0 137.8 29.2598 177.319 78.3594l30.1396 -20.3604c-46.7803 -61.4297 -118.92 -97.0195 -210.99 -97.0195c-123.37 0 -202.32 59.0303 -202.32 177.29
c0 17.3496 1.7002 35.9795 5.20996 55.8896z" />
    <glyph glyph-name="uni0422" unicode="&#x422;" horiz-adv-x="530" 
d="M592.94 661.06h-198.03l-116.56 -661.06h-42.0898l116.57 661.06h-191.24l6.87012 38.9404h431.35z" />
    <glyph glyph-name="uni0423" unicode="&#x423;" horiz-adv-x="627" 
d="M684.67 700l-362.311 -600.21c-41.1201 -68.4004 -91.5303 -114.79 -165.94 -114.79h-61.46l6.91016 39.6201h53.7803c55.3301 0 98 32.9199 135.96 97.3604l49.0303 78.9697l-141.67 499.05h43.7002l126.12 -450.43l271.01 450.43h44.8701z" />
    <glyph glyph-name="uni0424" unicode="&#x424;" horiz-adv-x="748" 
d="M506.24 628.77l33.7305 0.000976562c115 0 201.04 -40.3203 201.04 -188.61c0 -27.25 -2.91016 -58.1396 -9.07031 -93.0996c-39.2197 -222.4 -151.45 -275.851 -287.83 -275.87h-36.1904l-12.5596 -71.1904h-42.0996l12.5498 71.21h-33.4697
c-117.69 0 -201.391 41.1904 -201.391 187.65c0 27.5 2.9502 58.7197 9.18066 94.0801c39.2197 222.42 151.6 275.84 287.899 275.859h36.1201l12.5596 71.2002h42.0801zM414.801 110.251h33.5c124.85 0.469727 209.14 52.9697 242.59 242.689
c5.82031 32.9805 8.62988 61.6904 8.62988 86.6006c0 116.21 -61.1602 149.96 -163.94 150.34h-36.1797zM457.291 589.881l-33.3506 -0.00976562c-125.08 -0.5 -209.271 -52.9902 -242.74 -242.811c-5.80957 -32.9502 -8.61914 -61.6299 -8.61914 -86.5303
c0 -116.31 61.2803 -150.029 164.08 -150.369h36.0303z" />
    <glyph glyph-name="uni0425" unicode="&#x425;" horiz-adv-x="602" 
d="M393.69 363.58l171.99 -363.58h-49.5l-156.72 328.41l-271.66 -328.41h-52.5801l302.25 363.59l-159.33 336.41h47.5898l143.43 -305.09l252 305.09h51.5303z" />
    <glyph glyph-name="uni0427" unicode="&#x427;" horiz-adv-x="620" 
d="M242.2 700.14l-44.4199 -251.83c-2.16016 -12.2803 -3.23047 -23.4502 -3.23047 -33.5703c0 -60.5498 38.0996 -83.5996 106.369 -83.5996c49.1602 0 219.7 29.7598 244.19 34.1201l60.3604 334.75h41.3701l-123.43 -700h-41.3799l58.7803 325.64
c-40.8398 -6.70996 -199.5 -34.2295 -250.12 -34.2295c-87.2002 0 -139.45 36.5 -139.45 114.83c0 11.7305 1.17969 24.4102 3.58008 38.04l45.1201 255.85h42.2598z" />
    <glyph glyph-name="uni0426" unicode="&#x426;" horiz-adv-x="693" 
d="M572 37.9199l84.7891 0.00976562l-34.0498 -192.93h-40.1299l27.2002 154h-512.89l123.49 700.49h42.1201l-116.56 -661.06h384.01l116.56 661.06h42.1104z" />
    <glyph glyph-name="uni0428" unicode="&#x428;" horiz-adv-x="953" 
d="M856.52 0h-759.061l123.37 699.69h42.1104l-116.56 -661.06h316.37l116.56 661.06h42.1104l-116.56 -661.06h316.37l116.56 661.06h42.0996z" />
    <glyph glyph-name="uni0429" unicode="&#x429;" horiz-adv-x="984" 
d="M863.24 38.1201h84.7881l-34.0801 -193.12h-40.1396l27.3604 155h-803.72l123.38 699.69h42.1104l-116.56 -661.06h316.36l116.56 661.06h42.1201l-116.56 -661.06h316.36l116.56 661.06h42.1104z" />
    <glyph glyph-name="uni042F" unicode="&#x42f;" horiz-adv-x="601" 
d="M503.78 0l-42.0918 -0.000976562l57.3496 325.24h-148.21l-264.49 -325.24h-51.3799l269.67 329.96h-38.0996c-91.3496 4.7002 -140.029 53.2002 -140.029 140.181c0 15.6797 1.58008 32.6201 4.78027 50.7803c17.0596 96.7305 96 179.08 216.82 179.08h259.11z
M578.248 661.069l-214.699 0.000976562c-94.8701 0.00976562 -158.11 -65.2705 -172.07 -144.431c-2.62988 -14.8701 -3.92969 -28.6904 -3.92969 -41.4404c0 -73.1104 42.7998 -110.95 124.39 -110.95h213.97z" />
    <glyph glyph-name="uni042C" unicode="&#x42c;" horiz-adv-x="598" 
d="M206.21 378.79h226.42c98.4902 0 152.2 -47.9697 152.2 -140.2c0 -16.04 -1.62988 -33.4297 -4.92969 -52.1299c-21.7402 -123.29 -95.7207 -186.46 -211.351 -186.46h-271.24l123.43 700h42.1104zM199.33 339.94l-53.0811 -301.099h220.83
c93.4102 0 153.98 52.2695 171.511 151.689c2.58008 14.6699 3.87012 28.2803 3.87012 40.8398c0 71.5596 -41.6904 108.569 -121.16 108.569h-221.97z" />
    <glyph glyph-name="uni042A" unicode="&#x42a;" horiz-adv-x="656" 
d="M263.85 378.79h226.42c98.4902 0 152.2 -47.9697 152.2 -140.2c0 -16.04 -1.62988 -33.4297 -4.92969 -52.1299c-21.7402 -123.29 -95.7207 -186.46 -211.351 -186.46h-271.24l116.65 661.57h-153.53l6.78027 38.4297h195.64zM256.819 339.94l-53.0811 -301.099h220.83
c93.4102 0 153.98 52.2598 171.511 151.68c2.58008 14.6699 3.87012 28.29 3.87012 40.8496c0 71.5596 -41.6904 108.569 -121.16 108.569h-221.97z" />
    <glyph glyph-name="uni042B" unicode="&#x42b;" horiz-adv-x="796" 
d="M206.1 378.79h226.42c98.4902 0 152.2 -47.9697 152.2 -140.2c0 -16.0498 -1.62988 -33.4297 -4.92969 -52.1396c-21.7402 -123.28 -95.7207 -186.46 -211.351 -186.46h-271.24l123.43 700.01h42.1104zM699.13 -0.00976562h-41.3701l123.43 700.01h41.3701z
M199.22 339.94l-53.0811 -301.099h220.83c93.4102 0 153.98 52.2695 171.511 151.689c2.58008 14.6699 3.87012 28.2803 3.87012 40.8398c0 71.5596 -41.6904 108.569 -121.16 108.569h-221.97z" />
    <glyph glyph-name="uni042D" unicode="&#x42d;" horiz-adv-x="561" 
d="M189.7 599.85l-30.1396 20.3594c46.7695 61.4404 118.909 96.8809 210.989 96.8809c123.36 0 202.311 -58.9199 202.311 -177.15c0 -17.3496 -1.7002 -35.9795 -5.20996 -55.8896l-46.7305 -265.04c-27.4297 -155.55 -134.6 -230 -273.359 -230
c-94.79 0 -155.58 38.0195 -180.93 99.46l34.1396 15.0195c22.46 -49.04 73.2197 -75.5801 145.88 -75.5801c117.26 0 209.67 63.4502 232.7 194.05l19.9102 112.9h-282.65l6.40039 36.29h282.65l20.4199 115.84c3.01953 17.1201 4.48926 33.0498 4.48926 47.7998
c0 97.7002 -64.1201 143.42 -163.561 143.42c-75.4902 0 -137.8 -29.2598 -177.31 -78.3594z" />
    <glyph glyph-name="uni042E" unicode="&#x42e;" horiz-adv-x="859" 
d="M377.8 369.41l20.2109 114.65c27.4297 155.55 134.12 230.1 273.92 230.1c130.73 0 198.75 -68.5996 198.75 -178.779c0 -17.4004 -1.7002 -35.8506 -5.12012 -55.2207l-48.7803 -276.66c-28.8896 -163.84 -160.159 -218.51 -268.89 -218.51
c-98.8701 0 -203.271 46.1396 -203.271 173.47c0 14.8701 1.41992 30.8506 4.43945 47.9902l21.8701 124.02h-174.12l-58.2695 -330.47h-41.3496l123.43 700h41.3496l-58.29 -330.59h174.12zM775.211 206.431l48.7773 276.649
c3.07031 17.4199 4.60059 33.8301 4.60059 49.1504c0 90.4297 -53.3496 143 -158.1 143c-119.51 0 -207.819 -63.1396 -230.909 -194.109l-48.96 -277.63c-2.58984 -14.71 -3.80957 -28.3398 -3.80957 -40.9502c0 -103.12 81.7998 -137.601 162.62 -137.601
c94.3203 0 201.94 46.29 225.78 181.49z" />
    <glyph glyph-name="uni0430" unicode="&#x430;" horiz-adv-x="512" 
d="M185.84 443.76l-20.1719 27.9336c35.8604 22.9404 84.8506 37.71 152.19 37.8096c149.59 0.0996094 183.07 -62.6602 183.07 -136.11c0 -24.7305 -3.7998 -50.6709 -8.22949 -75.8311l-52.8604 -300.18h-34.8496l4.92969 25.6104c-48.3896 -24 -103.819 -34 -153.14 -34
c-100.51 1.78027 -181.38 34.96 -181.38 135.92c0 12.4297 1.21973 25.8896 3.79004 40.4492c23.9102 135.63 131.93 168.7 248.05 168.7c39.3301 0 84.0801 -4.73047 128.13 -9.76074c2.62012 15.3203 4.5 30.71 4.5 45.4697c0 56.5596 -27.5098 103.64 -144.85 103.64
c-55.8799 0 -97.9395 -11.9502 -129.18 -29.6504zM408.238 57.9434l43.8311 233.87c-40.21 5.37012 -82.3799 9.65039 -121.28 9.65039c-102.45 0 -193.94 -29.2002 -213.761 -141.601c-1.98047 -11.2598 -2.93066 -21.6699 -2.93066 -31.29
c0 -79.2803 64.6904 -104.44 148.051 -104.44c50.5596 0 104.05 13.2305 146.09 33.8105z" />
    <glyph glyph-name="uni0431" unicode="&#x431;" horiz-adv-x="582" 
d="M538.98 700.06l-3.67676 -36.5127c-114.75 -5.7002 -215.39 -12.4697 -277.04 -62.5498c-47 -36.7998 -68.5703 -79.5303 -90.9307 -186.09c38.0098 57.4004 96.9395 86.1904 173.529 86.1904c102.26 0 157.24 -58.1904 157.24 -150.851
c0 -15.1699 -1.48047 -31.2695 -4.46094 -48.1895l-20.9805 -119c-17.6299 -99.9697 -85.6602 -194.06 -220.96 -194.06c-117.33 0 -164.18 70.7803 -164.18 154.061c0 14.0498 1.33984 28.46 3.88965 42.9502l24.7998 140.61c31.4297 177.93 51.2197 248.12 119.38 303.36
c70.9102 57.04 180.33 62.79 303.39 70.0801zM432.224 185.997l20.9922 119c2.62988 14.9502 3.93945 29 3.93945 42.0996c0 74.5596 -42.2305 118.1 -121.45 118.1c-100.08 0 -164.2 -57.3496 -182.86 -163.14l-20.9805 -118.99
c-2.28027 -12.9199 -3.4707 -25.6299 -3.4707 -37.8896c0 -66.9697 35.5996 -120.37 124.229 -120.37c107.45 0 164.851 77.5703 179.601 161.19z" />
    <glyph glyph-name="uni0432" unicode="&#x432;" horiz-adv-x="516" 
d="M169.66 500.03l206.049 -0.00878906c47.4902 0 127.09 -18.3203 127.09 -101.92c0 -8.41016 -0.80957 -17.4805 -2.5293 -27.2607c-16.1201 -91.4102 -93.5801 -110.391 -95.5205 -110.711c0.330078 -0.919922 65.9404 -18.8604 65.9404 -98.3203
c0 -9.00977 -0.839844 -18.8193 -2.71973 -29.4795c-19.1396 -108.57 -118.38 -132.33 -169.26 -132.33h-217.22zM170.769 274.352l161.932 0.00976562c66.5996 0 116.359 32.3301 127.709 96.7002c1.2998 7.36035 1.92969 14.29 1.92969 20.7803
c0 48.9502 -35.9902 73.3301 -94.7998 73.3301h-163.12zM128.561 34.9814l168.421 -0.000976562c35.7402 0 116.3 14.54 132.2 104.75c1.4502 8.2002 2.12012 15.7598 2.12012 22.7402c0 68.2402 -64.1904 80.4004 -96.4805 80.4004h-169.61z" />
    <glyph glyph-name="uni0433" unicode="&#x433;" horiz-adv-x="426" 
d="M467.7 465.94l-263.09 0.000976562l-82.1602 -465.94h-40.96l88.3301 500.97h304.05z" />
    <glyph glyph-name="uni0434" unicode="&#x434;" horiz-adv-x="576" 
d="M482.76 36.0303l67.252 0.00292969l-28.1201 -159.03h-38.7002l21.8896 123.66h-433.4l-21.8799 -123.66h-38.6797l26.7998 159.34c41.7803 0 61.6299 2.38965 86.4395 22.4492c21.54 16.1396 36.0898 41.4092 41.8896 74.2988l64.8398 367.72h333.62zM265.882 465.783
l-58.9492 -334.29c-8.7002 -49.3604 -30.1602 -78.1602 -54.7803 -95.46h289.65l75.7695 429.75h-251.69z" />
    <glyph glyph-name="uni0435" unicode="&#x435;" horiz-adv-x="481" 
d="M84.0996 144.52l33.6182 190.782c19.8896 112.77 103.88 174.659 216.99 174.659c102.49 0.0996094 155.62 -50.8906 155.62 -134.36c0 -12.8096 -1.25 -26.3896 -3.75977 -40.6592l-17.0596 -96.7402h-328.7l-17.8301 -101.15
c-1.58008 -8.91992 -2.33984 -17.3096 -2.33984 -25.1699c0 -61.7002 46.7402 -90.5605 111.67 -90.5605c48.2305 0 105.61 16.3896 159.891 45.6396l19.0801 -26.7002c-51.9697 -32.8398 -112.1 -51.2598 -182.8 -51.2598c-93.21 0 -147.62 42.4805 -147.62 120.66
c0 10.9297 1.07031 22.5596 3.24023 34.8594zM435.768 269.542l12.3203 69.8906c2.13965 12.1396 3.14941 23.2695 3.14941 33.4697c0 78.8701 -60.0098 101.84 -118.17 101.84c-73.3896 0 -156.3 -36.8398 -174.63 -140.82l-11.3496 -64.3799h288.68z" />
    <glyph glyph-name="uni0436" unicode="&#x436;" horiz-adv-x="762" 
d="M447.34 263.36l304.41 237.609h52.7002l-311.09 -241.01l243.92 -259.02h-51.7402l-239.03 255.68l-45.6104 -256.03h-39.71l45.6104 256.03l-329.19 -255.68h-53.6201l336.23 259.02l-225.15 241.01h50.7803l221.79 -237.58l42.6504 239.49h39.71z" />
    <glyph glyph-name="uni0437" unicode="&#x437;" horiz-adv-x="450" 
d="M164.59 442.39l-24.8301 23.4307c46.4697 29.6299 94.2197 45.8896 151.069 45.8896c81.5498 0 161.85 -30.6504 161.85 -110.57c0 -7.49023 -0.709961 -15.4102 -2.17969 -23.79c-15.5996 -88.46 -95.9795 -115.13 -103.21 -118.42
c4.16016 -2.12012 73.8105 -24.3203 73.8105 -102.9c0 -122.64 -146.32 -166.02 -232.09 -166.02c-53.9102 0 -97.2305 13.1201 -130.521 34.6201l27.0801 19.9805c31.21 -12.04 67.9795 -18.3604 102.84 -18.4404c64.0195 0 192.67 30.2197 192.67 132.609
c0 65.0303 -61.3301 83.2402 -113.39 83.2402h-88.4697l5.55957 31.5303h87.5801c72.1904 0 126.061 40.7305 137.45 105.33c1.04004 5.91016 1.5498 11.5703 1.5498 16.9902c0 51.1104 -45.6699 79.9199 -123.16 79.9199c-40.8799 0 -83.3398 -11.9199 -123.609 -33.4004z
" />
    <glyph glyph-name="uni0438" unicode="&#x438;" horiz-adv-x="527" 
d="M446.55 0h-39.5312l75.9004 427.62l-359.93 -427.62h-41.5l88.3301 500.97h39.5303l-75.8301 -427.24l359.98 427.24h41.3896z" />
    <glyph glyph-name="uni0439" unicode="&#x439;" horiz-adv-x="527" 
d="M487.72 708.74l27.6895 -2.92969c-12.3096 -69.7803 -75.1299 -121.641 -140.39 -121.641c-60.6396 0 -104.38 43.6104 -104.38 102.561c0 7.12988 0.639648 14.4902 1.96973 22.0205l27.4805 -2.94043c-0.740234 -4.7998 -1.11035 -9.62988 -1.11035 -14.4199
c0 -40.0703 25.7402 -77.8506 75.7803 -77.8506c57.8896 0 104.05 50.2998 112.96 95.2002zM446.569 0.000976562h-39.5303l75.9004 427.62l-359.94 -427.62h-41.5l88.3398 500.97h39.5303l-75.8398 -427.24l359.98 427.24h41.3896z" />
    <glyph glyph-name="uni043A" unicode="&#x43a;" horiz-adv-x="482" 
d="M167.22 262.48l304.83 237.891h52.7002l-311.1 -241l243.92 -259.03h-51.7402l-239.61 254.47l-45.0195 -254.81h-39.71l88.5596 502.26h39.7197z" />
    <glyph glyph-name="uni043B" unicode="&#x43b;" horiz-adv-x="554" 
d="M473.22 0l-40.9707 0.00976562l82.1602 465.94h-251.69l-60.6797 -344.11c-8.37012 -47.4697 -28.1904 -81.54 -58.0508 -105.1c-21.8301 -13.96 -53.21 -26.7402 -94.3896 -26.7402l3.78027 36.6797c18.3301 0 44.2598 4.69043 66.3301 22.5801
c21.4004 16.1201 35.8604 41.3203 41.6602 74.1699l66.5703 377.54h333.61z" />
    <glyph glyph-name="uni043C" unicode="&#x43c;" horiz-adv-x="598" 
d="M517.91 0h-39.5293l73.7197 415.65l-233.69 -415.65h-36.5703l-87.1104 415.65l-73.7197 -415.65h-39.5195l88.79 503.54h41.1104l95.6299 -457.17l257.71 457.17h41.9697z" />
    <glyph glyph-name="uni043D" unicode="&#x43d;" horiz-adv-x="527" 
d="M446.55 0h-40.96l41.3096 234.26h-283.15l-41.2998 -234.26h-40.96l88.79 503.54h40.96l-41.3096 -234.26h283.15l41.2998 234.26h40.96z" />
    <glyph glyph-name="uni043E" unicode="&#x43e;" horiz-adv-x="499" 
d="M91.6602 187.43l22.5898 128.13c22.3096 126.51 100.79 196.109 224.21 196.119c105.41 0.0898438 161.49 -57.7598 161.49 -151.01c0 -15.1201 -1.48047 -31.1699 -4.4502 -48.0498l-22.5996 -128.14c-17.6299 -100 -85.5801 -194.49 -220.95 -194.49
c-117.33 0 -164.18 71.0898 -164.18 154.46c0 14.0703 1.33984 28.4902 3.88965 42.9805zM432.26 186.529l22.5791 128.13c2.61035 14.7998 3.90039 28.7402 3.90039 41.7598c0 74.9902 -42.7803 119.34 -122.811 119.34c-99.21 0 -162.49 -56.54 -181.12 -162.23
l-22.5996 -128.14c-2.25 -12.7695 -3.41992 -25.3496 -3.41992 -37.5098c0 -67.3701 36.1201 -121.64 125.601 -121.64c106.6 0 163.13 76.7002 177.87 160.29z" />
    <glyph glyph-name="uni043F" unicode="&#x43f;" horiz-adv-x="527" 
d="M446.55 0h-40.9609l82.1602 465.94h-283.14l-82.1602 -465.94h-40.96l88.3301 500.97h365.07z" />
    <glyph glyph-name="uni0440" unicode="&#x440;" horiz-adv-x="519" 
d="M205.24 500.14l-4.93945 -25.1895c48.3896 23.6201 103.819 33.9004 153.14 33.9004c90.5596 0 170.579 -34.4004 170.579 -131.261c0 -11.3604 -1.09961 -23.5801 -3.41992 -36.7002l-32.1797 -182.5c-22.9004 -129.88 -120.37 -167.39 -215.11 -168.39
c-52.8799 0 -106.99 14.7305 -145.09 31.6904l-40.7598 -223.69h-40.9502l123.87 702.14h34.8604zM448.301 163.15l32.0684 181.649c1.7002 9.75977 2.52051 18.8994 2.52051 27.4297c0 73 -59.8896 101.57 -134.279 101.57c-50.8496 0 -104.01 -12.7305 -146.47 -33.0303
l-70.6104 -385.96c31.0703 -15.96 84.8604 -29.4795 137.431 -29.4795c83.1904 0 161.03 34 179.34 137.82z" />
    <glyph glyph-name="uni0441" unicode="&#x441;" horiz-adv-x="447" 
d="M92.9102 194.48l20.1416 114.219c23.9697 135.95 115.43 201.26 223.39 201.26c54.6699 0 99.5996 -18.5 135.88 -48.1299l-29.5996 -18.9102c-32.9805 21.4805 -69.7705 31.1309 -107.181 31.1309c-85.4004 0 -161.891 -54.0098 -182.041 -168.29l-20.1396 -114.22
c-2.82031 -15.9805 -4.16992 -30.7207 -4.16992 -44.2607c0 -83.2998 50.8301 -121.08 121.95 -121.08c40.1299 0 82.1602 11.9102 122.43 33.4004l24.8301 -23.4297c-46.4805 -29.6299 -96.2002 -46.1699 -148.16 -46.1699c-96.0996 0 -162 51.6699 -162 154.28
c0 15.5596 1.50977 32.2998 4.66992 50.2002z" />
    <glyph glyph-name="uni0442" unicode="&#x442;" horiz-adv-x="449" 
d="M488.62 465.3h-161.37l-82.04 -465.3h-40.96l82.04 465.3h-161.37l6.29004 35.6699h363.7z" />
    <glyph glyph-name="uni0443" unicode="&#x443;" horiz-adv-x="528" 
d="M538.84 501l-96.7881 -548.999c-18.5703 -105 -94.1406 -152 -188.94 -152c-68.0996 1 -124 18 -169.2 49l19.8799 27c46.3096 -29 97.6191 -44 142.639 -44c75.8604 0 140.08 40 154.07 120l15.4199 77.25c-42.6797 -18.7305 -102.64 -29.25 -154.52 -29.2402
c-91.4902 0.129883 -163.37 33.8896 -163.37 127.989c0 12.1299 1.19043 25.2695 3.7002 39.4697l58.8096 333.53h40.96l-58.7305 -333.06c-2.15039 -12.1602 -3.16992 -23.3203 -3.16992 -33.5508c0 -77.1201 57.9502 -101.33 129 -101.33
c55.2803 0 114.16 14.4404 150.851 30.3906l78.4297 437.55h40.96z" />
    <glyph glyph-name="uni0444" unicode="&#x444;" horiz-adv-x="655" 
d="M437.37 507.85l17.6797 -0.00878906c105.47 -0.259766 193.02 -40.7197 193.02 -178.689c0 -22.3203 -2.29004 -47.2002 -7.16992 -74.8799c-33.6699 -190.95 -122.979 -259.28 -273.319 -260.28h-20.8398l-34.6104 -196h-40.96l34.6104 196h-19.8301
c-130.72 0 -190.149 58.2402 -190.149 177.5c0 26.5098 2.92969 56.0293 8.67969 88.5996c34.5801 196.13 146.87 247.75 270.43 247.77h21.5l34.1797 193.85h40.96zM353.1 30.001l17.4902 0.0205078c120.57 0.929688 199.86 57.0693 230.351 229.949
c4.37988 24.8701 6.42969 46.9502 6.42969 66.5303c0 117.4 -73.4805 144.86 -156 145.25h-20.3701zM390.04 471.752l-18.5498 -0.0107422c-97.1504 0 -195.83 -40.2695 -227.09 -217.539c-5.28027 -29.9404 -7.9502 -56.5303 -7.9502 -79.9902
c0 -101.51 49.8896 -144.2 153.59 -144.21h22.0996z" />
    <glyph glyph-name="uni0445" unicode="&#x445;" horiz-adv-x="401" 
d="M272.63 249.99l103.28 -249.979h-43.21l-90.4297 219.24l-174.24 -219.24h-46.3799l200.69 251.01l-105.2 249.96h45.3301l88.8799 -221.37l169.3 221.37h46.1797z" />
    <glyph glyph-name="uni0447" unicode="&#x447;" horiz-adv-x="493" 
d="M189.07 503.54l-29.3584 -166.47c-1.86035 -10.54 -2.79004 -20.1396 -2.79004 -28.8398c0 -48.6104 28.8604 -69.3408 85.5605 -69.3408c51.8301 0 137.04 17.0996 173.68 24.4092l43.7002 240.25h40.96l-88.79 -503.55h-40.9902l41.04 225.02
c-39.3604 -7.87988 -125.271 -24.25 -180.11 -24.25c-72.9404 0 -116.881 34.2002 -116.881 100.58c0 9.86035 0.969727 20.4307 2.95996 31.7109l30.0596 170.48h40.96z" />
    <glyph glyph-name="uni0446" unicode="&#x446;" horiz-adv-x="546" 
d="M453 36.4902h67.2412l-28.0498 -159.49h-38.6904l21.8096 124.11h-393.63l88.1797 500.12h40.9697l-82.0098 -465.09h283.15l82.0098 465.09h40.96z" />
    <glyph glyph-name="uni0448" unicode="&#x448;" horiz-adv-x="753" 
d="M672.14 0h-590.66l88.3398 500.97h40.96l-82.2305 -466.34h233.89l82.2305 466.34h40.96l-82.2197 -466.34h233.88l82.2305 466.34h40.96z" />
    <glyph glyph-name="uni0449" unicode="&#x449;" horiz-adv-x="772" 
d="M678.38 35.3701l67.2607 0.00976562l-28.0098 -158.38h-38.6904l21.7598 123h-619.21l88.3398 500.97h40.96l-82.2305 -466.33h233.88l82.2305 466.33h40.96l-82.1602 -465.94h233.89l82.1602 465.94h40.96z" />
    <glyph glyph-name="uni044C" unicode="&#x44c;" horiz-adv-x="494" 
d="M171.84 280.35h169.711c47.6104 0 130.021 -24.4805 130.021 -113.61c0 -9.13965 -0.870117 -18.96 -2.73047 -29.5c-19.4697 -110.42 -121.66 -137.24 -172.66 -137.24h-214.69l88.1699 500.03h40.9102zM165.631 245.13l-37.0605 -210.14h166.12
c36.79 0 118.75 15.5303 134.74 106.21c1.45996 8.29004 2.13965 15.9297 2.13965 22.9795c0 69.1104 -65.2998 80.9502 -98.6895 80.9502h-167.25z" />
    <glyph glyph-name="uni044A" unicode="&#x44a;" horiz-adv-x="539" 
d="M216.03 280.35l169.711 0.000976562c47.6104 0 130.021 -24.4805 130.021 -113.61c0 -9.13965 -0.870117 -18.96 -2.73047 -29.5c-19.4697 -110.42 -121.66 -137.24 -172.66 -137.24h-215.03l81.6396 463.01h-123.21l6.53027 37.0195h164.46zM209.821 245.131
l-37.0605 -210.14h166.12c36.79 0 118.75 15.5303 134.74 106.21c1.45996 8.29004 2.13965 15.9297 2.13965 22.9795c0 69.1104 -65.2998 80.9502 -98.6895 80.9502h-167.25z" />
    <glyph glyph-name="uni044B" unicode="&#x44b;" horiz-adv-x="633" 
d="M171.84 280.35h169.711c47.6104 0 130.021 -24.4805 130.021 -113.61c0 -9.13965 -0.870117 -18.96 -2.73047 -29.5c-19.4697 -110.42 -121.66 -137.24 -172.66 -137.24h-214.69l88.1699 500.03h40.9102zM552.181 -0h-40.9199l88.1699 500.02h40.9199zM165.621 245.13
l-37.0508 -210.141h166.12c36.79 0 118.75 15.5195 134.74 106.21c1.45996 8.28027 2.13965 15.9307 2.13965 22.9707c0 69.1104 -65.2998 80.96 -98.6895 80.96h-167.26z" />
    <glyph glyph-name="uni044D" unicode="&#x44d;" horiz-adv-x="449" 
d="M164.5 450.56l-24.9092 23.3896c46.6602 28.9102 96.3105 44.5898 147.641 44.5898c96.0996 0 162 -51.46 162 -154.01c0 -15.5596 -1.51953 -32.29 -4.66992 -50.1904l-21.96 -124.52c-26.1396 -148.24 -117.699 -190.83 -235.31 -190.83
c-50.6104 0 -92.0508 13.3701 -126.07 32.8506l26.9297 20.0098c31.5898 -11.1699 65.5996 -17.0703 100.05 -17.0703c99.0596 0 171.659 32.5801 193.699 156.71l9.15039 51.7305h-204.92l5.45996 30.96h204.93l7.88965 44.7695c2.70996 15.5 4 29.8203 4 43
c0 82.9805 -51.0996 120.671 -122.08 120.671c-39.7402 0 -81.4902 -11.4502 -121.83 -32.0605z" />
    <glyph glyph-name="uni044E" unicode="&#x44e;" horiz-adv-x="675" 
d="M282.53 268.49l8.89062 50.2705c23.1699 124.73 101.47 192.91 223.569 192.91c105.42 0.0996094 161.49 -57.75 161.49 -151c0 -15.1201 -1.46973 -31.1699 -4.4502 -48.0498l-22.5898 -128.14c-17.6396 -100 -85.5898 -194.49 -220.96 -194.49
c-116.96 0 -164 70.8203 -164 154.25c0 13.0801 1.16016 26.4697 3.37988 39.9502l8.5498 49.2695h-112.79l-41.1602 -233.4h-40.96l88.4902 501.83h40.96l-41.1602 -233.4h112.74zM608.98 186.581l22.5889 128.141c2.61035 14.79 3.90039 28.7402 3.90039 41.7598
c0 74.9902 -42.79 119.34 -122.82 119.34c-99.2002 0 -162.48 -56.54 -181.12 -162.24l-22.5898 -128.13c-2.25 -12.7695 -3.42969 -25.3594 -3.42969 -37.5195c0 -67.3604 36.1201 -121.641 125.61 -121.641c106.59 0 163.12 76.7002 177.86 160.29z" />
    <glyph glyph-name="uni044F" unicode="&#x44f;" horiz-adv-x="516" 
d="M435.32 0l-40.9209 0.000976562l38.7305 219.67h-141.19l-178.77 -219.67h-45.3799l184.06 224.71l-5.46973 0.639648c-37.6699 4.05957 -112.87 25.9297 -112.87 109.149c0 8.73047 0.830078 18.1504 2.62012 28.29c19.4697 110.42 121.66 137.229 172.66 137.229h214.7
zM476.399 465.041l-166.119 -0.000976562c-36.7998 0 -118.76 -15.5303 -134.75 -106.21c-1.45996 -8.29004 -2.13965 -15.9297 -2.13965 -22.9795c0 -69.1104 65.3096 -80.96 98.6992 -80.96h167.25z" />
    <glyph glyph-name="Delta" unicode="&#x394;" horiz-adv-x="833" 
 />
    <glyph glyph-name="Omega" unicode="&#x3a9;" horiz-adv-x="833" 
 />
    <glyph glyph-name="mu" unicode="&#x3bc;" horiz-adv-x="833" 
 />
    <glyph glyph-name="pi" unicode="&#x3c0;" horiz-adv-x="127" 
 />
    <glyph glyph-name="zero" unicode="0" horiz-adv-x="578" 
d="M107.86 190.22l55.5098 314.77c25.0898 142.32 122.399 210.61 250.819 210.61c119.98 0 182.12 -63.1104 182.12 -163.931c0 -15.9502 -1.5498 -32.8398 -4.67969 -50.5801l-55.3301 -313.81c-26.3701 -149.55 -145.92 -198.28 -245.74 -198.28
c-90.71 0 -186.729 41.4404 -186.729 157.69c0 13.4902 1.29004 27.9805 4.03027 43.5303zM495.79 190.169l55.0605 312.278c2.74023 15.5703 4.11035 30.2607 4.11035 44.0205c0 81.79 -48.4297 130.2 -143.87 130.2c-107.73 0 -186.511 -56.4697 -207.301 -174.42
l-55.2305 -313.22c-2.2998 -13.0498 -3.38965 -25.1602 -3.38965 -36.3701c0 -93.0996 74.7598 -124.56 148.34 -124.56c84.4502 0 180.86 40.5801 202.28 162.07z" />
    <glyph glyph-name="one" unicode="1" horiz-adv-x="313" 
d="M216.31 0l-39.4414 -0.00195312l112.07 630.52c-20.8203 -19.5195 -42.9004 -33.5996 -65.29 -44.9395c-27.6299 -11.8496 -54.3701 -18.6592 -75.1797 -21.459l-6.26953 39.1699c24.6104 4.66992 53.1299 13.96 79.3398 28.6602
c30.5498 15.4004 58.4795 36.8809 80.9199 68.0508h37.2803z" />
    <glyph glyph-name="two" unicode="2" horiz-adv-x="462" 
d="M197.3 564.74l-37.9512 14.6689c34.6396 69.9102 95.9893 130.82 206.749 130.82c90.7305 0 147.03 -60.5898 147.03 -143.04c0 -11.0195 -1.00977 -22.4395 -3.06934 -34.1494c-7.83984 -44.4297 -30.8896 -92.0596 -72.4697 -137.38l-325.76 -356.36h311.17
l-6.92969 -39.2998h-368.26l5.37988 33.4199l350.23 384.36c48.2598 52.7803 69.2002 101.92 69.2002 147.95c0 61.2695 -41.29 105.56 -107.95 105.56c-93.4297 0 -141.64 -52.9199 -167.37 -106.55z" />
    <glyph glyph-name="three" unicode="3" horiz-adv-x="513" 
d="M207.48 585.91l-34.958 18.4307c34.1201 58.2197 100.24 105.22 179.33 105.22c90.0303 0 150.33 -58.46 150.33 -144.88c0 -11.4004 -1.0498 -23.29 -3.21973 -35.5996c-12.8604 -72.9502 -68.3008 -126.431 -128.631 -149.881
c59.3301 -20.75 105.771 -77.4697 105.771 -153.37c0 -11.1104 -1 -22.6299 -3.08984 -34.5098c-21.2998 -120.79 -124.45 -203.33 -243.8 -203.33c-84.54 0 -142.33 42.96 -167.5 96.1602l34.9502 19.2695c22.2305 -47.2197 71.4004 -76.3398 133.99 -76.3398
c98.9502 0 184.96 72.4805 202.27 170.69c1.65039 9.33008 2.44043 18.4502 2.44043 27.2998c0 79.0498 -63.1104 136.84 -144.221 136.84h-59.0303l6.17969 35.0195h56.3096c80.21 0 167.02 70.3701 167.02 164.45c0 64.4404 -43.2803 109.36 -111.19 109.36
c-62.8604 0 -116.11 -38.4902 -142.95 -84.8301z" />
    <glyph glyph-name="four" unicode="4" horiz-adv-x="503" 
d="M431.22 229.55h64.0596l-6.66016 -37.7695h-64.0596l-33.8096 -191.78h-40.96l33.8203 191.78h-311.91l6.13965 37.7695l393.26 470.52h43.0898zM123.56 229.55h266.71l71.5303 402.81z" />
    <glyph glyph-name="five" unicode="5" horiz-adv-x="515" 
d="M510.76 661.07l-239.71 -0.0107422l-68.2598 -239.41h105.16c111.98 -0.790039 181.7 -81.4199 181.7 -180.03c0 -12.4297 -1.11035 -25.1494 -3.37988 -38.0195c-20.0703 -113.82 -124.69 -215.601 -255.341 -215.601c-80.2998 0 -144.229 44.6904 -168.22 99.6104
l34.8096 18.3896c20.3604 -48.0898 75.7607 -78.8994 134.851 -78.8994c110.1 0 197.3 89.3301 213.76 181.24c1.78027 10.21 2.66992 20.4199 2.66992 30.4697c0 76.2803 -50.8799 143.98 -147.92 143.98h-146.89l90.3096 317.29h273.34z" />
    <glyph glyph-name="six" unicode="6" horiz-adv-x="570" 
d="M112.18 206.66l46.1104 261.47c18.6299 105.65 105.58 241.32 287.63 241.32c78.6904 0 130.71 -28.1201 160.8 -57.4697l-28.5 -27.8301c-26.5898 26.7598 -71.25 46.3594 -134.44 46.3594c-159.91 0 -231.68 -120.63 -246.01 -203.53l-28.75 -156.29
c56.5303 85.5703 137.66 110.681 197.101 110.681c108.84 0 184.359 -77.1299 184.359 -180.16c0 -12.6299 -1.13965 -25.6494 -3.48926 -38.959c-20.9805 -118.99 -133.4 -214.25 -253.261 -214.25c-109.32 0 -184.95 78.1201 -184.95 180.47
c0 12.4102 1.11035 25.1699 3.40039 38.1895zM363.25 382.41c-103.22 0 -190.318 -77.9189 -210.878 -180.169c-1.94043 -11.0303 -2.89062 -21.7998 -2.89062 -32.2295c0 -81.9199 58.1797 -142.92 145.689 -142.92c101.36 0 194.13 80.2598 211.899 181.029
c1.92969 10.9502 2.85938 21.6201 2.85938 31.96c0 82.0195 -58.9102 142.329 -146.68 142.329z" />
    <glyph glyph-name="seven" unicode="7" horiz-adv-x="478" 
d="M556.66 667.2l-465.2 -667.2h-42.9102l459.03 660.21h-353.15l7.00977 39.79h400.53z" />
    <glyph glyph-name="eight" unicode="8" horiz-adv-x="570" 
d="M409.27 709.56c90.0303 0 150.331 -58.46 150.331 -144.88c0 -11.4004 -1.0498 -23.29 -3.21973 -35.5898c-12.8604 -72.96 -68.3008 -126.43 -128.631 -149.89c59.3301 -20.75 105.771 -77.46 105.771 -153.37c0 -11.1104 -1 -22.6299 -3.08984 -34.5098
c-21.2998 -120.78 -124.45 -203.33 -243.8 -203.33c-107.63 0 -181.87 67.4102 -181.87 169.15c0 12.8301 1.17969 26.21 3.62988 40.0596c16.04 90.96 88.0303 161.4 170.25 185.92c-41.7998 19.8301 -77.0498 63.7803 -77.0498 123.58
c0 9.07031 0.80957 18.5 2.5293 28.2695c18.0996 102.64 105.109 174.59 205.149 174.59zM407.851 670.729c-80.79 0 -149.889 -61.0117 -164.299 -142.781c-1.32031 -7.49023 -1.9502 -14.7598 -1.9502 -21.79c0 -64.5098 53.0596 -108.25 111.859 -108.25
c79.3799 0 165.58 69.1504 165.58 163.471c0 64.4404 -43.2803 109.351 -111.19 109.351zM352.342 360.857c-95.5098 0 -186.818 -73.3398 -203.679 -168.97c-1.87012 -10.6299 -2.78027 -20.9502 -2.78027 -30.8799c0 -79.04 57.46 -133.92 142.18 -133.92
c98.9502 0 184.96 72.4805 202.27 170.69c1.66016 9.38965 2.4502 18.5596 2.4502 27.4492c0 78.7803 -62.4404 135.63 -140.44 135.63z" />
    <glyph glyph-name="nine" unicode="9" horiz-adv-x="570" 
d="M495.14 230.61l28.75 156.301c-56.5303 -85.5703 -137.65 -110.681 -197.091 -110.681c-108.85 0 -184.359 77.1201 -184.359 180.15c0 12.6299 1.12988 25.6494 3.47949 38.9697c20.9805 118.99 133.41 214.101 253.26 214.101c109.33 0 184.96 -78.0098 184.96 -180.34
c0 -12.4004 -1.11035 -25.1504 -3.41016 -38.1699l-46.0996 -261.48c-18.6299 -105.65 -105.59 -241.46 -287.64 -241.46c-78.6904 0 -130.7 28.2598 -160.79 57.6094l28.4902 27.8203c26.5898 -26.75 71.2598 -46.3604 134.45 -46.3604c159.91 0 231.68 120.63 246 203.54z
M397.739 670.511c-101.36 0 -194.132 -80.2598 -211.901 -181.029c-1.92969 -10.9502 -2.85938 -21.6201 -2.85938 -31.96c0 -82.0195 58.9102 -142.329 146.68 -142.329c103.23 0 190.32 77.9199 210.87 180.17c1.9502 11.0195 2.89062 21.7891 2.89062 32.2188
c0 81.9199 -58.1797 142.93 -145.68 142.93z" />
    <glyph glyph-name="zero.lf" horiz-adv-x="578" 
d="M107.86 190.22l55.5098 314.77c25.0898 142.32 122.399 210.61 250.819 210.61c119.98 0 182.12 -63.1104 182.12 -163.931c0 -15.9502 -1.5498 -32.8398 -4.67969 -50.5801l-55.3301 -313.81c-26.3701 -149.55 -145.92 -198.28 -245.74 -198.28
c-90.71 0 -186.729 41.4404 -186.729 157.69c0 13.4902 1.29004 27.9805 4.03027 43.5303zM495.79 190.169l55.0605 312.278c2.74023 15.5703 4.11035 30.2607 4.11035 44.0205c0 81.79 -48.4297 130.2 -143.87 130.2c-107.73 0 -186.511 -56.4697 -207.301 -174.42
l-55.2305 -313.22c-2.2998 -13.0498 -3.38965 -25.1602 -3.38965 -36.3701c0 -93.0996 74.7598 -124.56 148.34 -124.56c84.4502 0 180.86 40.5801 202.28 162.07z" />
    <glyph glyph-name="one.lf" horiz-adv-x="313" 
d="M216.31 0l-39.4404 0.000976562l112.06 630.52c-20.9297 -19.4102 -42.5498 -33.46 -64.4102 -44.8203c-27.4902 -12.0303 -54.0703 -18.7705 -76.0508 -21.5801l-6.26953 39.1699c25.04 4.7002 53.9102 14.2002 80.2705 29.1602
c30.1699 15.3496 57.8701 36.6299 80.2002 67.5498h37.0703z" />
    <glyph glyph-name="two.lf" horiz-adv-x="462" 
d="M197.3 564.74l-37.9512 14.6689c34.6396 69.9102 95.9893 130.82 206.749 130.82c90.7305 0 147.03 -60.5898 147.03 -143.04c0 -11.0195 -1.00977 -22.4395 -3.06934 -34.1494c-7.83984 -44.4297 -30.8896 -92.0596 -72.4697 -137.38l-325.76 -356.36h311.17
l-6.92969 -39.2998h-368.26l5.37988 33.4199l350.23 384.36c48.2598 52.7803 69.2002 101.92 69.2002 147.95c0 61.2695 -41.29 105.56 -107.95 105.56c-93.4297 0 -141.64 -52.9199 -167.37 -106.55z" />
    <glyph glyph-name="three.lf" horiz-adv-x="513" 
d="M207.48 585.91l-34.958 18.4307c34.1201 58.2197 100.24 105.22 179.33 105.22c90.0303 0 150.33 -58.46 150.33 -144.88c0 -11.4004 -1.0498 -23.29 -3.21973 -35.5996c-12.8604 -72.9502 -68.3008 -126.431 -128.631 -149.881
c59.3301 -20.75 105.771 -77.4697 105.771 -153.37c0 -11.1104 -1 -22.6299 -3.08984 -34.5098c-21.2998 -120.79 -124.45 -203.33 -243.8 -203.33c-84.54 0 -142.33 42.96 -167.5 96.1602l34.9502 19.2695c22.2305 -47.2197 71.4004 -76.3398 133.99 -76.3398
c98.9502 0 184.96 72.4805 202.27 170.69c1.65039 9.33008 2.44043 18.4502 2.44043 27.2998c0 79.0498 -63.1104 136.84 -144.221 136.84h-59.0303l6.17969 35.0195h56.3096c80.21 0 167.02 70.3701 167.02 164.45c0 64.4404 -43.2803 109.36 -111.19 109.36
c-62.8604 0 -116.11 -38.4902 -142.95 -84.8301z" />
    <glyph glyph-name="four.lf" horiz-adv-x="503" 
d="M431.22 229.55h64.0596l-6.66016 -37.7695h-64.0596l-33.8096 -191.78h-40.96l33.8203 191.78h-311.91l6.13965 37.7695l393.26 470.52h43.0898zM123.56 229.55h266.71l71.5303 402.81z" />
    <glyph glyph-name="five.lf" horiz-adv-x="515" 
d="M510.76 661.07l-239.71 -0.0107422l-68.2598 -239.41h105.16c111.98 -0.790039 181.7 -81.4199 181.7 -180.03c0 -12.4297 -1.11035 -25.1494 -3.37988 -38.0195c-20.0703 -113.82 -124.69 -215.601 -255.341 -215.601c-80.2998 0 -144.229 44.6904 -168.22 99.6104
l34.8096 18.3896c20.3604 -48.0898 75.7607 -78.8994 134.851 -78.8994c110.1 0 197.3 89.3301 213.76 181.24c1.78027 10.21 2.66992 20.4199 2.66992 30.4697c0 76.2803 -50.8799 143.98 -147.92 143.98h-146.89l90.3096 317.29h273.34z" />
    <glyph glyph-name="six.lf" horiz-adv-x="600" 
d="M112.18 206.66l46.1104 261.47c18.6299 105.65 105.58 241.32 287.63 241.32c78.6904 0 130.71 -28.1201 160.8 -57.4697l-28.5 -27.8301c-26.5898 26.7598 -71.25 46.3594 -134.44 46.3594c-159.91 0 -231.68 -120.63 -246.01 -203.53l-28.75 -156.29
c56.5303 85.5703 137.66 110.681 197.101 110.681c108.84 0 184.359 -77.1299 184.359 -180.16c0 -12.6299 -1.13965 -25.6494 -3.48926 -38.959c-20.9805 -118.99 -133.4 -214.25 -253.261 -214.25c-109.32 0 -184.95 78.1201 -184.95 180.47
c0 12.4102 1.11035 25.1699 3.40039 38.1895zM363.25 382.41c-103.22 0 -190.318 -77.9189 -210.878 -180.169c-1.94043 -11.0303 -2.89062 -21.7998 -2.89062 -32.2295c0 -81.9199 58.1797 -142.92 145.689 -142.92c101.36 0 194.13 80.2598 211.899 181.029
c1.92969 10.9502 2.85938 21.6201 2.85938 31.96c0 82.0195 -58.9102 142.329 -146.68 142.329z" />
    <glyph glyph-name="seven.lf" horiz-adv-x="504" 
d="M556.66 667.2l-465.2 -667.2h-42.9102l459.03 660.21h-353.15l7.00977 39.79h400.53z" />
    </font>
</defs>
</svg>
